<svg width="46" height="46" viewBox="0 0 46 46" fill="none" xmlns="http://www.w3.org/2000/svg">
<g clip-path="url(#clip0)">
<path d="M22.9329 0.0581055L1.33594 7.65697L4.74884 35.9463L22.9557 45.9509L41.2567 35.8107L44.6682 7.5224L22.9329 0.0581055Z" fill="#B3B3B3"/>
<path d="M42.514 9.15738L22.8823 2.46423V43.5607L39.3345 34.4573L42.5138 9.15738H42.514Z" fill="#A6120D"/>
<path d="M3.75928 9.27793L6.68387 34.5782L22.882 43.5606V2.4635L3.75945 9.27776L3.75928 9.27793Z" fill="#DD1B16"/>
<path d="M28.2862 24.3417L22.8822 26.8683H17.1866L14.5092 33.5636L9.5293 33.6556L22.8822 3.95654L28.2862 24.3419V24.3417ZM27.7638 23.0698L22.9182 13.4789L18.9434 22.9047H22.8821L27.7638 23.07V23.0698Z" fill="#F2F2F2"/>
<path d="M22.8821 3.95642L22.9179 13.479L27.4278 22.9121H22.8923L22.8821 26.8622L29.1538 26.8682L32.085 33.6567L36.8501 33.7449L22.8821 3.95642Z" fill="#B3B3B3"/>
</g>
<defs>
<clipPath id="clip0">
<rect width="43.6175" height="46" fill="white" transform="translate(1.19116)"/>
</clipPath>
</defs>
</svg>
