<svg width="120" height="120" viewBox="0 0 120 120" fill="none" xmlns="http://www.w3.org/2000/svg">
<path d="M101.25 26.25H86.25V41.25H101.25V26.25Z" fill="#43D992"/>
<path d="M101.25 48.75H86.25V63.75H101.25V48.75Z" fill="#43D992"/>
<path d="M78.75 26.25H63.75V41.25H78.75V26.25Z" fill="#43D992"/>
<path d="M78.75 48.75H63.75V63.75H78.75V48.75Z" fill="#43D992"/>
<path d="M54.375 97.5C57.4816 97.5 60 94.9816 60 91.875C60 88.7684 57.4816 86.25 54.375 86.25C51.2684 86.25 48.75 88.7684 48.75 91.875C48.75 94.9816 51.2684 97.5 54.375 97.5Z" fill="#43D992"/>
<path d="M78.75 112.5H30C28.0116 112.498 26.1052 111.707 24.6992 110.301C23.2932 108.895 22.5023 106.988 22.5 105V15C22.5023 13.0116 23.2932 11.1052 24.6992 9.69922C26.1052 8.29319 28.0116 7.50228 30 7.5H78.75V15H30V105H78.75V75H86.25V105C86.2477 106.988 85.4568 108.895 84.0508 110.301C82.6448 111.707 80.7384 112.498 78.75 112.5Z" fill="#E8E8E8"/>
</svg>
