<svg width="80" height="80" viewBox="0 0 80 80" fill="none" xmlns="http://www.w3.org/2000/svg">
<path d="M75 5H65V15H75V5Z" fill="#E8E8E8"/>
<path d="M75 20H65V30H75V20Z" fill="#E8E8E8"/>
<path d="M60 5H50V15H60V5Z" fill="#E8E8E8"/>
<path d="M60 20H50V30H60V20Z" fill="#E8E8E8"/>
<path d="M70 40V55H10V15H40V10H10C8.67392 10 7.40215 10.5268 6.46447 11.4645C5.52678 12.4021 5 13.6739 5 15V55C5 56.3261 5.52678 57.5979 6.46447 58.5355C7.40215 59.4732 8.67392 60 10 60H30V70H20V75H60V70H50V60H70C71.3261 60 72.5979 59.4732 73.5355 58.5355C74.4732 57.5979 75 56.3261 75 55V40H70ZM45 70H35V60H45V70Z" fill="#E8E8E8"/>
</svg>
