<svg width="120" height="120" viewBox="0 0 120 120" fill="none" xmlns="http://www.w3.org/2000/svg">
<path d="M112.5 7.5H97.5V22.5H112.5V7.5Z" fill="#43D992"/>
<path d="M112.5 30H97.5V45H112.5V30Z" fill="#43D992"/>
<path d="M90 7.5H75V22.5H90V7.5Z" fill="#43D992"/>
<path d="M90 30H75V45H90V30Z" fill="#43D992"/>
<path d="M105 60V82.5H15V22.5H60V15H15C13.0109 15 11.1032 15.7902 9.6967 17.1967C8.29018 18.6032 7.5 20.5109 7.5 22.5V82.5C7.5 84.4891 8.29018 86.3968 9.6967 87.8033C11.1032 89.2098 13.0109 90 15 90H45V105H30V112.5H90V105H75V90H105C106.989 90 108.897 89.2098 110.303 87.8033C111.71 86.3968 112.5 84.4891 112.5 82.5V60H105ZM67.5 105H52.5V90H67.5V105Z" fill="#E8E8E8"/>
</svg>
