<svg width="80" height="80" viewBox="0 0 80 80" fill="none" xmlns="http://www.w3.org/2000/svg">
<path d="M67.5 17.5H57.5V27.5H67.5V17.5Z" fill="#E8E8E8"/>
<path d="M67.5 32.5H57.5V42.5H67.5V32.5Z" fill="#E8E8E8"/>
<path d="M52.5 17.5H42.5V27.5H52.5V17.5Z" fill="#E8E8E8"/>
<path d="M52.5 32.5H42.5V42.5H52.5V32.5Z" fill="#E8E8E8"/>
<path d="M36.25 65C38.3211 65 40 63.3211 40 61.25C40 59.1789 38.3211 57.5 36.25 57.5C34.1789 57.5 32.5 59.1789 32.5 61.25C32.5 63.3211 34.1789 65 36.25 65Z" fill="#E8E8E8"/>
<path d="M52.5 75H20C18.6744 74.9985 17.4035 74.4712 16.4661 73.5339C15.5288 72.5965 15.0015 71.3256 15 70V10C15.0015 8.67438 15.5288 7.4035 16.4661 6.46615C17.4035 5.52879 18.6744 5.00152 20 5H52.5V10H20V70H52.5V50H57.5V70C57.4985 71.3256 56.9712 72.5965 56.0339 73.5339C55.0965 74.4712 53.8256 74.9985 52.5 75Z" fill="#E8E8E8"/>
</svg>
