<svg id="eeTQj0AiXYg1" xmlns="http://www.w3.org/2000/svg" xmlns:xlink="http://www.w3.org/1999/xlink" viewBox="0 0 1146 1146" shape-rendering="geometricPrecision" text-rendering="geometricPrecision"><defs><radialGradient id="eeTQj0AiXYg25-fill" cx="0" cy="0" r="1" spreadMethod="pad" gradientUnits="userSpaceOnUse" gradientTransform="matrix(404.992 0 0 404.992 572.745 572.745)"><stop id="eeTQj0AiXYg25-fill-0" offset="40.594%" stop-color="rgb(0,0,0)"/><stop id="eeTQj0AiXYg25-fill-1" offset="69.802%" stop-color="rgb(67,217,146)"/><stop id="eeTQj0AiXYg25-fill-2" offset="100%" stop-color="rgb(0,0,0)"/></radialGradient></defs><g id="eeTQj0AiXYg2" transform="matrix(0.885211 0 0 0.885211 65.774241 65.744942)"><g id="eeTQj0AiXYg3" transform="matrix(1 0 0 1 0.253997 0)" opacity="0.01727"><path id="eeTQj0AiXYg4" d="M572.746,881.992C511.582,881.992,451.793,863.854,400.937,829.874C350.082,795.893,310.445,747.595,287.039,691.088C263.633,634.58,257.509,572.401,269.442,512.413C281.374,452.425,310.827,397.322,354.076,354.073C397.325,310.825,452.428,281.372,512.416,269.439C572.404,257.507,634.583,263.631,691.09,287.037C747.598,310.443,795.896,350.08,829.876,400.936C863.857,451.791,881.994,511.581,881.994,572.744C881.901,654.733,849.29,733.338,791.314,791.313C733.339,849.288,654.735,881.899,572.746,881.992L572.746,881.992ZM572.746,336.823C526.085,336.822,480.472,350.659,441.674,376.582C402.877,402.505,372.638,439.351,354.782,482.46C336.925,525.569,332.253,573.005,341.356,618.77C350.459,664.534,372.928,706.571,405.922,739.566C438.917,772.56,480.954,795.029,526.718,804.132C572.483,813.236,619.919,808.564,663.028,790.707C706.137,772.851,742.983,742.612,768.906,703.815C794.829,665.018,808.666,619.405,808.666,572.744C808.595,510.196,783.717,450.229,739.489,406.001C695.26,361.772,635.294,336.894,572.746,336.823L572.746,336.823Z" opacity="0.01727" fill="rgb(67,217,146)" stroke="none" stroke-width="1"/></g><g id="eeTQj0AiXYg5" transform="matrix(1 0 0 1 0.253997 0)" opacity="0.01727"><path id="eeTQj0AiXYg6" d="M572.746,879.373C512.1,879.373,452.816,861.39,402.392,827.697C351.967,794.005,312.665,746.116,289.457,690.087C266.249,634.058,260.176,572.405,272.008,512.925C283.839,453.445,313.042,398.809,355.925,355.926C398.808,313.043,453.444,283.839,512.924,272.008C572.404,260.176,634.057,266.248,690.086,289.456C746.115,312.664,794.004,351.966,827.697,402.39C861.389,452.815,879.373,512.099,879.373,572.744C879.282,654.039,846.947,731.978,789.463,789.462C731.979,846.946,654.04,879.281,572.746,879.373L572.746,879.373ZM572.746,334.205C525.567,334.205,479.448,348.195,440.22,374.406C400.992,400.618,370.418,437.873,352.364,481.46C334.31,525.048,329.586,573.01,338.79,619.282C347.994,665.555,370.713,708.058,404.074,741.419C437.434,774.779,479.938,797.498,526.21,806.702C572.483,815.906,620.445,811.182,664.033,793.127C707.62,775.072,744.875,744.498,771.086,705.27C797.297,666.042,811.287,619.923,811.287,572.744C811.215,509.501,786.06,448.869,741.34,404.15C696.621,359.43,635.988,334.276,572.746,334.205L572.746,334.205Z" opacity="0.01727" fill="rgb(67,217,146)" stroke="none" stroke-width="1"/></g><g id="eeTQj0AiXYg7" transform="matrix(1 0 0 1 0.253998 0)" opacity="0.03454"><path id="eeTQj0AiXYg8" d="M572.746,876.754C512.618,876.754,453.841,858.924,403.847,825.519C353.853,792.114,314.887,744.635,291.878,689.084C268.868,633.534,262.847,572.407,274.578,513.435C286.308,454.463,315.262,400.294,357.779,357.777C400.295,315.261,454.464,286.307,513.437,274.576C572.409,262.846,633.535,268.867,689.085,291.876C744.636,314.886,792.116,353.852,825.521,403.846C858.926,453.84,876.756,512.617,876.756,572.744C876.664,653.345,844.606,730.618,787.613,787.611C730.619,844.605,653.346,876.663,572.746,876.754L572.746,876.754ZM572.746,331.586C525.049,331.586,478.423,345.73,438.765,372.228C399.107,398.727,368.197,436.391,349.944,480.457C331.691,524.523,326.916,573.012,336.221,619.793C345.526,666.573,368.494,709.543,402.221,743.27C435.948,776.996,478.918,799.965,525.698,809.27C572.479,818.575,620.968,813.799,665.034,795.546C709.1,777.294,746.763,746.384,773.262,706.725C799.761,667.067,813.905,620.441,813.905,572.744C813.832,508.807,788.401,447.51,743.191,402.299C697.981,357.089,636.683,331.658,572.746,331.586L572.746,331.586Z" opacity="0.03454" fill="rgb(67,217,146)" stroke="none" stroke-width="1"/></g><g id="eeTQj0AiXYg9" transform="matrix(1 0 0 1 0.253998 0)" opacity="0.03454"><path id="eeTQj0AiXYg10" d="M572.746,874.135C513.136,874.135,454.865,856.458,405.302,823.341C355.739,790.224,317.109,743.153,294.298,688.081C271.486,633.009,265.518,572.409,277.147,513.945C288.777,455.481,317.481,401.779,359.632,359.629C401.782,317.478,455.485,288.774,513.949,277.145C572.413,265.515,633.012,271.484,688.084,294.296C743.156,317.107,790.227,355.737,823.344,405.3C856.461,454.864,874.138,513.135,874.138,572.744C874.047,652.65,842.264,729.258,785.762,785.76C729.259,842.262,652.652,874.045,572.746,874.135L572.746,874.135ZM572.746,328.967C524.531,328.966,477.399,343.264,437.31,370.05C397.221,396.837,365.975,434.909,347.524,479.454C329.073,523.999,324.245,573.014,333.651,620.302C343.057,667.591,366.275,711.028,400.368,745.121C434.46,779.214,477.898,802.432,525.186,811.838C572.474,821.244,621.49,816.416,666.034,797.965C710.579,779.514,748.652,748.269,775.438,708.18C802.225,668.091,816.522,620.959,816.522,572.744C816.45,508.113,790.743,446.149,745.041,400.448C699.34,354.747,637.377,329.04,572.746,328.967L572.746,328.967Z" opacity="0.03454" fill="rgb(67,217,146)" stroke="none" stroke-width="1"/></g><g id="eeTQj0AiXYg11" transform="matrix(1 0 0 1 0.253998 0)" opacity="0.05182"><path id="eeTQj0AiXYg12" d="M572.745,871.517C513.654,871.517,455.889,853.995,406.756,821.165C357.623,788.336,319.329,741.674,296.715,687.081C274.102,632.487,268.185,572.414,279.713,514.458C291.241,456.502,319.696,403.265,361.48,361.481C403.264,319.697,456.5,291.242,514.456,279.713C572.412,268.185,632.486,274.102,687.079,296.715C741.673,319.328,788.335,357.623,821.164,406.755C853.994,455.888,871.517,513.653,871.517,572.745C871.427,651.956,839.921,727.898,783.91,783.909C727.899,839.921,651.957,871.427,572.745,871.517L572.745,871.517ZM572.745,326.348C524.013,326.349,476.375,340.8,435.855,367.874C395.336,394.949,363.755,433.431,345.106,478.454C326.457,523.477,321.578,573.019,331.085,620.815C340.592,668.611,364.059,712.515,398.519,746.974C432.978,781.433,476.882,804.9,524.678,814.407C572.474,823.914,622.016,819.034,667.039,800.385C712.062,781.736,750.544,750.155,777.618,709.635C804.692,669.115,819.143,621.477,819.143,572.745C819.069,507.419,793.085,444.79,746.893,398.598C700.7,352.406,638.071,326.422,572.745,326.348L572.745,326.348Z" opacity="0.05182" fill="rgb(67,217,146)" stroke="none" stroke-width="1"/></g><g id="eeTQj0AiXYg13" transform="matrix(1 0 0 1 0.253998 0)" opacity="0.05182"><path id="eeTQj0AiXYg14" d="M572.746,868.897C514.172,868.897,456.914,851.528,408.212,818.987C359.51,786.445,321.551,740.192,299.136,686.077C276.721,631.962,270.856,572.416,282.283,514.968C293.71,457.519,321.916,404.75,363.334,363.332C404.752,321.914,457.521,293.709,514.969,282.281C572.417,270.854,631.964,276.719,686.079,299.134C740.194,321.549,786.447,359.508,818.988,408.21C851.53,456.912,868.899,514.17,868.899,572.744C868.81,651.261,837.58,726.538,782.06,782.058C726.539,837.578,651.263,868.808,572.746,868.897L572.746,868.897ZM572.746,323.729C523.495,323.729,475.351,338.334,434.4,365.696C393.45,393.058,361.533,431.949,342.686,477.45C323.838,522.952,318.907,573.021,328.516,621.325C338.124,669.629,361.84,713.999,396.666,748.825C431.491,783.65,475.861,807.366,524.166,816.975C572.47,826.583,622.538,821.652,668.04,802.804C713.542,783.957,752.432,752.04,779.795,711.089C807.157,670.139,821.761,621.995,821.761,572.744C821.686,506.724,795.427,443.429,748.744,396.746C702.061,350.063,638.766,323.804,572.746,323.729L572.746,323.729Z" opacity="0.05182" fill="rgb(67,217,146)" stroke="none" stroke-width="1"/></g><g id="eeTQj0AiXYg15" transform="matrix(1 0 0 1 0.253998 0)" opacity="0.06909"><path id="eeTQj0AiXYg16" d="M572.745,866.279C514.69,866.278,457.938,849.063,409.667,816.808C361.396,784.554,323.773,738.71,301.556,685.074C279.339,631.438,273.526,572.418,284.853,515.478C296.179,458.538,324.135,406.235,365.187,365.184C406.238,324.132,458.541,296.176,515.481,284.85C572.421,273.524,631.441,279.337,685.078,301.554C738.714,323.771,784.558,361.394,816.812,409.665C849.066,457.936,866.281,514.688,866.281,572.744C866.193,650.567,835.239,725.178,780.209,780.207C725.18,835.237,650.569,866.191,572.745,866.279L572.745,866.279ZM572.745,321.11C522.977,321.109,474.326,335.867,432.945,363.517C391.564,391.167,359.311,430.467,340.265,476.447C321.219,522.427,316.236,573.022,325.945,621.835C335.654,670.647,359.62,715.484,394.812,750.676C430.003,785.868,474.84,809.834,523.653,819.543C572.465,829.252,623.06,824.269,669.04,805.224C715.021,786.178,754.321,753.925,781.971,712.544C809.621,671.163,824.379,622.512,824.379,572.744C824.303,506.03,797.768,442.069,750.594,394.895C703.42,347.721,639.46,321.185,572.745,321.11L572.745,321.11Z" opacity="0.06909" fill="rgb(67,217,146)" stroke="none" stroke-width="1"/></g><g id="eeTQj0AiXYg17" transform="matrix(1 0 0 1 0.253998 0)" opacity="0.06909"><path id="eeTQj0AiXYg18" d="M572.746,863.66C515.208,863.66,458.962,846.599,411.121,814.632C363.28,782.666,325.992,737.232,303.974,684.074C281.955,630.916,276.193,572.422,287.418,515.99C298.643,459.558,326.35,407.721,367.035,367.036C407.721,326.351,459.557,298.643,515.989,287.418C572.421,276.193,630.915,281.954,684.073,303.973C737.231,325.991,782.666,363.279,814.632,411.12C846.598,458.961,863.66,515.206,863.66,572.744C863.573,649.873,832.895,723.818,778.357,778.356C723.819,832.894,649.874,863.573,572.746,863.66L572.746,863.66ZM572.746,318.492C522.459,318.492,473.302,333.404,431.491,361.342C389.679,389.279,357.091,428.988,337.848,475.447C318.604,521.906,313.569,573.027,323.38,622.347C333.19,671.668,357.406,716.971,392.963,752.529C428.521,788.086,473.825,812.301,523.145,822.112C572.465,831.922,623.587,826.887,670.046,807.643C716.504,788.399,756.213,755.811,784.15,713.999C812.088,672.188,826.999,623.03,826.999,572.744C826.923,505.335,800.111,440.709,752.446,393.044C704.78,345.379,640.154,318.568,572.746,318.492L572.746,318.492Z" opacity="0.06909" fill="rgb(67,217,146)" stroke="none" stroke-width="1"/></g><g id="eeTQj0AiXYg19" transform="matrix(1 0 0 1 0.253998 0)" opacity="0.08636"><path id="eeTQj0AiXYg20" d="M572.746,861.041C515.726,861.041,459.987,844.133,412.577,812.454C365.167,780.776,328.215,735.75,306.394,683.071C284.574,630.391,278.865,572.424,289.989,516.5C301.113,460.576,328.57,409.207,368.889,368.887C409.208,328.568,460.578,301.111,516.502,289.987C572.426,278.863,630.393,284.572,683.072,306.393C735.752,328.213,780.778,365.165,812.456,412.575C844.135,459.985,861.043,515.724,861.043,572.744C860.957,649.179,830.555,722.458,776.507,776.505C722.46,830.553,649.181,860.955,572.746,861.041L572.746,861.041ZM572.746,315.873C521.941,315.873,472.278,330.938,430.036,359.163C387.793,387.389,354.87,427.507,335.428,474.444C315.986,521.381,310.899,573.029,320.81,622.857C330.722,672.686,355.186,718.456,391.111,754.38C427.035,790.304,472.805,814.769,522.633,824.68C572.461,834.591,624.11,829.505,671.047,810.062C717.984,790.62,758.102,757.697,786.327,715.454C814.552,673.212,829.618,623.548,829.618,572.744C829.54,504.641,802.452,439.35,754.296,391.194C706.14,343.038,640.849,315.95,572.746,315.873L572.746,315.873Z" opacity="0.08636" fill="rgb(67,217,146)" stroke="none" stroke-width="1"/></g><g id="eeTQj0AiXYg21" transform="matrix(1 0 0 1 0.253997 0)" opacity="0.08636"><path id="eeTQj0AiXYg22" d="M572.746,858.423C516.244,858.422,461.011,841.667,414.032,810.277C367.052,778.886,330.436,734.269,308.814,682.068C287.192,629.867,281.535,572.427,292.558,517.011C303.581,461.595,330.789,410.692,370.742,370.739C410.695,330.787,461.598,303.578,517.014,292.556C572.43,281.533,629.87,287.19,682.071,308.812C734.272,330.435,778.889,367.051,810.279,414.03C841.67,461.01,858.425,516.242,858.425,572.744C858.339,648.485,828.213,721.098,774.656,774.655C721.1,828.211,648.486,858.337,572.746,858.423L572.746,858.423ZM572.746,313.254C521.423,313.254,471.253,328.472,428.58,356.985C385.907,385.498,352.647,426.025,333.007,473.441C313.366,520.857,308.227,573.032,318.24,623.368C328.252,673.704,352.966,719.941,389.257,756.232C425.547,792.522,471.784,817.236,522.12,827.249C572.456,837.261,624.631,832.123,672.047,812.482C719.463,792.842,759.99,759.583,788.503,716.91C817.016,674.237,832.235,624.067,832.235,572.744C832.157,503.947,804.794,437.99,756.147,389.343C707.5,340.696,641.543,313.332,572.746,313.254L572.746,313.254Z" opacity="0.08636" fill="rgb(67,217,146)" stroke="none" stroke-width="1"/></g><g id="eeTQj0AiXYg23" transform="matrix(1 0 0 1 0.253998 0)" opacity="0.10364"><path id="eeTQj0AiXYg24" d="M572.746,855.804C516.762,855.804,462.035,839.203,415.486,808.1C368.937,776.998,332.656,732.79,311.232,681.067C289.808,629.345,284.202,572.431,295.124,517.523C306.045,462.615,333.004,412.178,372.591,372.592C412.177,333.005,462.614,306.046,517.522,295.124C572.43,284.202,629.344,289.807,681.066,311.231C732.789,332.655,776.997,368.936,808.1,415.485C839.203,462.034,855.804,516.76,855.804,572.744C855.72,647.79,825.87,719.738,772.805,772.804C719.739,825.87,647.792,855.719,572.746,855.804L572.746,855.804ZM572.746,310.636C520.905,310.636,470.229,326.009,427.126,354.81C384.022,383.611,350.427,424.547,330.589,472.441C310.751,520.335,305.561,573.036,315.674,623.88C325.788,674.725,350.752,721.428,387.408,758.084C424.065,794.741,470.768,819.704,521.613,829.817C572.457,839.931,625.158,834.74,673.052,814.902C720.946,795.063,761.882,761.468,790.683,718.364C819.484,675.261,834.856,624.585,834.856,572.744C834.777,503.253,807.137,436.63,757.999,387.492C708.86,338.354,642.237,310.714,572.746,310.636L572.746,310.636Z" opacity="0.10364" fill="rgb(67,217,146)" stroke="none" stroke-width="1"/></g><path id="eeTQj0AiXYg25" style="mix-blend-mode:screen" d="M859.117,859.117C1017.28,700.958,1017.28,444.531,859.117,286.372C700.958,128.213,444.531,128.213,286.372,286.372C128.213,444.531,128.213,700.958,286.372,859.117C444.531,1017.28,700.958,1017.28,859.117,859.117Z" transform="matrix(1 0 0 1 0.255279 0)" opacity="0.5" fill="url(#eeTQj0AiXYg25-fill)" stroke="none" stroke-width="1"/></g><script><![CDATA[!function(t,n){"object"==typeof exports&&"undefined"!=typeof module?module.exports=n(require("vue")):"function"==typeof define&&define.amd?define(["vue"],n):((t="undefined"!=typeof globalThis?globalThis:t||self).__SVGATOR_PLAYER__=t.__SVGATOR_PLAYER__||{},t.__SVGATOR_PLAYER__["5c7f360c"]=n())}(this,(function(){"use strict";function t(t,n){var r=Object.keys(t);if(Object.getOwnPropertySymbols){var e=Object.getOwnPropertySymbols(t);n&&(e=e.filter((function(n){return Object.getOwnPropertyDescriptor(t,n).enumerable}))),r.push.apply(r,e)}return r}function n(n){for(var r=1;r<arguments.length;r++){var e=null!=arguments[r]?arguments[r]:{};r%2?t(Object(e),!0).forEach((function(t){u(n,t,e[t])})):Object.getOwnPropertyDescriptors?Object.defineProperties(n,Object.getOwnPropertyDescriptors(e)):t(Object(e)).forEach((function(t){Object.defineProperty(n,t,Object.getOwnPropertyDescriptor(e,t))}))}return n}function r(t){return(r="function"==typeof Symbol&&"symbol"==typeof Symbol.iterator?function(t){return typeof t}:function(t){return t&&"function"==typeof Symbol&&t.constructor===Symbol&&t!==Symbol.prototype?"symbol":typeof t})(t)}function e(t,n){if(!(t instanceof n))throw new TypeError("Cannot call a class as a function")}function i(t,n){for(var r=0;r<n.length;r++){var e=n[r];e.enumerable=e.enumerable||!1,e.configurable=!0,"value"in e&&(e.writable=!0),Object.defineProperty(t,e.key,e)}}function o(t,n,r){return n&&i(t.prototype,n),r&&i(t,r),t}function u(t,n,r){return n in t?Object.defineProperty(t,n,{value:r,enumerable:!0,configurable:!0,writable:!0}):t[n]=r,t}function a(t){return(a=Object.setPrototypeOf?Object.getPrototypeOf:function(t){return t.__proto__||Object.getPrototypeOf(t)})(t)}function l(t,n){return(l=Object.setPrototypeOf||function(t,n){return t.__proto__=n,t})(t,n)}function f(t,n){if(n&&("object"==typeof n||"function"==typeof n))return n;if(void 0!==n)throw new TypeError("Derived constructors may only return object or undefined");return function(t){if(void 0===t)throw new ReferenceError("this hasn't been initialised - super() hasn't been called");return t}(t)}function s(t){var n=function(){if("undefined"==typeof Reflect||!Reflect.construct)return!1;if(Reflect.construct.sham)return!1;if("function"==typeof Proxy)return!0;try{return Boolean.prototype.valueOf.call(Reflect.construct(Boolean,[],(function(){}))),!0}catch(t){return!1}}();return function(){var r,e=a(t);if(n){var i=a(this).constructor;r=Reflect.construct(e,arguments,i)}else r=e.apply(this,arguments);return f(this,r)}}function c(t,n,r){return(c="undefined"!=typeof Reflect&&Reflect.get?Reflect.get:function(t,n,r){var e=function(t,n){for(;!Object.prototype.hasOwnProperty.call(t,n)&&null!==(t=a(t)););return t}(t,n);if(e){var i=Object.getOwnPropertyDescriptor(e,n);return i.get?i.get.call(r):i.value}})(t,n,r||t)}var h=v(Math.pow(10,-6));function v(t){var n=arguments.length>1&&void 0!==arguments[1]?arguments[1]:6;if(Number.isInteger(t))return t;var r=Math.pow(10,n);return Math.round((+t+Number.EPSILON)*r)/r}function y(t,n){var r=arguments.length>2&&void 0!==arguments[2]?arguments[2]:h;return Math.abs(t-n)<r}var g=Math.PI/180;function d(t){return t}function p(t,n,r){var e=1-r;return 3*r*e*(t*e+n*r)+r*r*r}function m(){var t=arguments.length>0&&void 0!==arguments[0]?arguments[0]:0,n=arguments.length>1&&void 0!==arguments[1]?arguments[1]:0,r=arguments.length>2&&void 0!==arguments[2]?arguments[2]:1,e=arguments.length>3&&void 0!==arguments[3]?arguments[3]:1;return t<0||t>1||r<0||r>1?null:y(t,n)&&y(r,e)?d:function(i){if(i<=0)return t>0?i*n/t:0===n&&r>0?i*e/r:0;if(i>=1)return r<1?1+(i-1)*(e-1)/(r-1):1===r&&t<1?1+(i-1)*(n-1)/(t-1):1;for(var o,u=0,a=1;u<a;){var l=p(t,r,o=(u+a)/2);if(y(i,l))break;l<i?u=o:a=o}return p(n,e,o)}}function b(){return 1}function w(t){return 1===t?1:0}function x(){var t=arguments.length>0&&void 0!==arguments[0]?arguments[0]:1,n=arguments.length>1&&void 0!==arguments[1]?arguments[1]:0;if(1===t){if(0===n)return w;if(1===n)return b}var r=1/t;return function(t){return t>=1?1:(t+=n*r)-t%r}}var A="undefined"!=typeof window&&/(Mac|iPhone|iPod|iPad)/i.test(window.navigator.platform);Object.freeze({Meta:A?"Control":"Meta",Ctrl:"Control",Down:"ArrowDown",Up:"ArrowUp",Left:"ArrowLeft",Right:"ArrowRight",Esc:"Escape",Delete:"Backspace",Space:"Space"});var k=Math.sin,_=Math.cos,S=Math.acos,O=Math.asin,j=Math.tan,P=Math.atan2,M=Math.PI/180,E=180/Math.PI,R=Math.sqrt,I=function(){function t(){var n=arguments.length>0&&void 0!==arguments[0]?arguments[0]:1,r=arguments.length>1&&void 0!==arguments[1]?arguments[1]:0,i=arguments.length>2&&void 0!==arguments[2]?arguments[2]:0,o=arguments.length>3&&void 0!==arguments[3]?arguments[3]:1,u=arguments.length>4&&void 0!==arguments[4]?arguments[4]:0,a=arguments.length>5&&void 0!==arguments[5]?arguments[5]:0;e(this,t),this.m=[n,r,i,o,u,a],this.i=null,this.w=null,this.s=null}return o(t,[{key:"determinant",get:function(){var t=this.m;return t[0]*t[3]-t[1]*t[2]}},{key:"isIdentity",get:function(){if(null===this.i){var t=this.m;this.i=1===t[0]&&0===t[1]&&0===t[2]&&1===t[3]&&0===t[4]&&0===t[5]}return this.i}},{key:"point",value:function(t,n){var r=this.m;return{x:r[0]*t+r[2]*n+r[4],y:r[1]*t+r[3]*n+r[5]}}},{key:"translateSelf",value:function(){var t=arguments.length>0&&void 0!==arguments[0]?arguments[0]:0,n=arguments.length>1&&void 0!==arguments[1]?arguments[1]:0;if(!t&&!n)return this;var r=this.m;return r[4]+=r[0]*t+r[2]*n,r[5]+=r[1]*t+r[3]*n,this.w=this.s=this.i=null,this}},{key:"rotateSelf",value:function(){var t=arguments.length>0&&void 0!==arguments[0]?arguments[0]:0;if(t%=360){var n=k(t*=M),r=_(t),e=this.m,i=e[0],o=e[1];e[0]=i*r+e[2]*n,e[1]=o*r+e[3]*n,e[2]=e[2]*r-i*n,e[3]=e[3]*r-o*n,this.w=this.s=this.i=null}return this}},{key:"scaleSelf",value:function(){var t=arguments.length>0&&void 0!==arguments[0]?arguments[0]:1,n=arguments.length>1&&void 0!==arguments[1]?arguments[1]:1;if(1!==t||1!==n){var r=this.m;r[0]*=t,r[1]*=t,r[2]*=n,r[3]*=n,this.w=this.s=this.i=null}return this}},{key:"skewSelf",value:function(t,n){if(n%=360,(t%=360)||n){var r=this.m,e=r[0],i=r[1],o=r[2],u=r[3];t&&(t=j(t*M),r[2]+=e*t,r[3]+=i*t),n&&(n=j(n*M),r[0]+=o*n,r[1]+=u*n),this.w=this.s=this.i=null}return this}},{key:"resetSelf",value:function(){var t=arguments.length>0&&void 0!==arguments[0]?arguments[0]:1,n=arguments.length>1&&void 0!==arguments[1]?arguments[1]:0,r=arguments.length>2&&void 0!==arguments[2]?arguments[2]:0,e=arguments.length>3&&void 0!==arguments[3]?arguments[3]:1,i=arguments.length>4&&void 0!==arguments[4]?arguments[4]:0,o=arguments.length>5&&void 0!==arguments[5]?arguments[5]:0,u=this.m;return u[0]=t,u[1]=n,u[2]=r,u[3]=e,u[4]=i,u[5]=o,this.w=this.s=this.i=null,this}},{key:"recomposeSelf",value:function(){var t=arguments.length>0&&void 0!==arguments[0]?arguments[0]:null,n=arguments.length>1&&void 0!==arguments[1]?arguments[1]:null,r=arguments.length>2&&void 0!==arguments[2]?arguments[2]:null,e=arguments.length>3&&void 0!==arguments[3]?arguments[3]:null,i=arguments.length>4&&void 0!==arguments[4]?arguments[4]:null;return this.isIdentity||this.resetSelf(),t&&(t.x||t.y)&&this.translateSelf(t.x,t.y),n&&this.rotateSelf(n),r&&(r.x&&this.skewSelf(r.x,0),r.y&&this.skewSelf(0,r.y)),!e||1===e.x&&1===e.y||this.scaleSelf(e.x,e.y),i&&(i.x||i.y)&&this.translateSelf(i.x,i.y),this}},{key:"decompose",value:function(){var t=arguments.length>0&&void 0!==arguments[0]?arguments[0]:0,n=arguments.length>1&&void 0!==arguments[1]?arguments[1]:0,r=this.m,e=r[0]*r[0]+r[1]*r[1],i=[[r[0],r[1]],[r[2],r[3]]],o=R(e);if(0===o)return{origin:{x:v(r[4]),y:v(r[5])},translate:{x:v(t),y:v(n)},scale:{x:0,y:0},skew:{x:0,y:0},rotate:0};i[0][0]/=o,i[0][1]/=o;var u=r[0]*r[3]-r[1]*r[2]<0;u&&(o=-o);var a=i[0][0]*i[1][0]+i[0][1]*i[1][1];i[1][0]-=i[0][0]*a,i[1][1]-=i[0][1]*a;var l=R(i[1][0]*i[1][0]+i[1][1]*i[1][1]);if(0===l)return{origin:{x:v(r[4]),y:v(r[5])},translate:{x:v(t),y:v(n)},scale:{x:v(o),y:0},skew:{x:0,y:0},rotate:0};i[1][0]/=l,i[1][1]/=l,a/=l;var f=0;return i[1][1]<0?(f=S(i[1][1])*E,i[0][1]<0&&(f=360-f)):f=O(i[0][1])*E,u&&(f=-f),a=P(a,R(i[0][0]*i[0][0]+i[0][1]*i[0][1]))*E,u&&(a=-a),{origin:{x:v(r[4]),y:v(r[5])},translate:{x:v(t),y:v(n)},scale:{x:v(o),y:v(l)},skew:{x:v(a),y:0},rotate:v(f)}}},{key:"toString",value:function(){var t=arguments.length>0&&void 0!==arguments[0]?arguments[0]:" ";return null===this.s&&(this.s="matrix("+this.m.map((function(t){return v(t)})).join(t)+")"),this.s}}]),t}();function N(t,n,r){return t>=.5?r:n}function B(t,n,r){return 0===t||n===r?n:t*(r-n)+n}function F(t,n,r){var e=B(t,n,r);return e<=0?0:e}function T(t,n,r){var e=B(t,n,r);return e<=0?0:e>=1?1:e}function q(t,n,r){return 0===t?n:1===t?r:{x:B(t,n.x,r.x),y:B(t,n.y,r.y)}}function L(t,n,r){var e=function(t,n,r){return Math.round(B(t,n,r))}(t,n,r);return e<=0?0:e>=255?255:e}function C(t,n,r){return 0===t?n:1===t?r:{r:L(t,n.r,r.r),g:L(t,n.g,r.g),b:L(t,n.b,r.b),a:B(t,null==n.a?1:n.a,null==r.a?1:r.a)}}function D(t,n){for(var r=[],e=0;e<t;e++)r.push(n);return r}function z(t,n){if(--n<=0)return t;var r=(t=Object.assign([],t)).length;do{for(var e=0;e<r;e++)t.push(t[e])}while(--n>0);return t}var V,G=function(){function t(n){e(this,t),this.list=n,this.length=n.length}return o(t,[{key:"setAttribute",value:function(t,n){for(var r=this.list,e=0;e<this.length;e++)r[e].setAttribute(t,n)}},{key:"removeAttribute",value:function(t){for(var n=this.list,r=0;r<this.length;r++)n[r].removeAttribute(t)}},{key:"style",value:function(t,n){for(var r=this.list,e=0;e<this.length;e++)r[e].style[t]=n}}]),t}(),Y=/-./g,U=function(t,n){return n.toUpperCase()};function $(t){return"function"==typeof t?t:N}function Q(t){return t?"function"==typeof t?t:Array.isArray(t)?function(t){var n=arguments.length>1&&void 0!==arguments[1]?arguments[1]:d;if(!Array.isArray(t))return n;switch(t.length){case 1:return x(t[0])||n;case 2:return x(t[0],t[1])||n;case 4:return m(t[0],t[1],t[2],t[3])||n}return n}(t,null):function(t,n){var r=arguments.length>2&&void 0!==arguments[2]?arguments[2]:d;switch(t){case"linear":return d;case"steps":return x(n.steps||1,n.jump||0)||r;case"bezier":case"cubic-bezier":return m(n.x1||0,n.y1||0,n.x2||0,n.y2||0)||r}return r}(t.type,t.value,null):null}function H(t,n,r){var e=arguments.length>3&&void 0!==arguments[3]&&arguments[3],i=n.length-1;if(t<=n[0].t)return e?[0,0,n[0].v]:n[0].v;if(t>=n[i].t)return e?[i,1,n[i].v]:n[i].v;var o,u=n[0],a=null;for(o=1;o<=i;o++){if(!(t>n[o].t)){a=n[o];break}u=n[o]}return null==a?e?[i,1,n[i].v]:n[i].v:u.t===a.t?e?[o,1,a.v]:a.v:(t=(t-u.t)/(a.t-u.t),u.e&&(t=u.e(t)),e?[o,t,r(t,u.v,a.v)]:r(t,u.v,a.v))}function J(t,n){var r=arguments.length>2&&void 0!==arguments[2]?arguments[2]:null;return t&&t.length?"function"!=typeof n?null:("function"!=typeof r&&(r=null),function(e){var i=H(e,t,n);return null!=i&&r&&(i=r(i)),i}):null}function Z(t,n){return t.t-n.t}function K(t,n,e,i,o){var u,a="@"===e[0],l="#"===e[0],f=V[e],s=N;switch(a?(u=e.substr(1),e=u.replace(Y,U)):l&&(e=e.substr(1)),r(f)){case"function":if(s=f(i,o,H,Q,e,a,n,t),l)return s;break;case"string":s=J(i,$(f));break;case"object":if((s=J(i,$(f.i),f.f))&&"function"==typeof f.u)return f.u(n,s,e,a,t)}return s?function(t,n,r){if(arguments.length>3&&void 0!==arguments[3]&&arguments[3])return t instanceof G?function(e){return t.style(n,r(e))}:function(e){return t.style[n]=r(e)};if(Array.isArray(n)){var e=n.length;return function(i){var o=r(i);if(null==o)for(var u=0;u<e;u++)t[u].removeAttribute(n);else for(var a=0;a<e;a++)t[a].setAttribute(n,o)}}return function(e){var i=r(e);null==i?t.removeAttribute(n):t.setAttribute(n,i)}}(n,e,s,a):null}function W(t,n,e,i){if(!i||"object"!==r(i))return null;var o=null,u=null;return Array.isArray(i)?u=function(t){if(!t||!t.length)return null;for(var n=0;n<t.length;n++)t[n].e&&(t[n].e=Q(t[n].e));return t.sort(Z)}(i):(u=i.keys,o=i.data||null),u?K(t,n,e,u,o):null}function X(t,n,r){if(!r)return null;var e=[];for(var i in r)if(r.hasOwnProperty(i)){var o=W(t,n,i,r[i]);o&&e.push(o)}return e.length?e:null}function tt(t,n){if(!n.duration||n.duration<0)return null;var r=function(t,n){if(!n)return null;var r=[];if(Array.isArray(n))for(var e=n.length,i=0;i<e;i++){var o=n[i];if(2===o.length){var u=null;if("string"==typeof o[0])u=t.getElementById(o[0]);else if(Array.isArray(o[0])){u=[];for(var a=0;a<o[0].length;a++)if("string"==typeof o[0][a]){var l=t.getElementById(o[0][a]);l&&u.push(l)}u=u.length?1===u.length?u[0]:new G(u):null}if(u){var f=X(t,u,o[1]);f&&(r=r.concat(f))}}}else for(var s in n)if(n.hasOwnProperty(s)){var c=t.getElementById(s);if(c){var h=X(t,c,n[s]);h&&(r=r.concat(h))}}return r.length?r:null}(t,n.elements);return r?function(t,n){var r=arguments.length>2&&void 0!==arguments[2]?arguments[2]:1/0,e=arguments.length>3&&void 0!==arguments[3]?arguments[3]:1,i=arguments.length>4&&void 0!==arguments[4]&&arguments[4],o=arguments.length>5&&void 0!==arguments[5]?arguments[5]:1,u=t.length,a=e>0?n:0;i&&r%2==0&&(a=n-a);var l=null;return function(f,s){var c=f%n,h=1+(f-c)/n;s*=e,i&&h%2==0&&(s=-s);var v=!1;if(h>r)c=a,v=!0,-1===o&&(c=e>0?0:n);else if(s<0&&(c=n-c),c===l)return!1;l=c;for(var y=0;y<u;y++)t[y](c);return v}}(r,n.duration,n.iterations||1/0,n.direction||1,!!n.alternate,n.fill||1):null}function nt(t){return+("0x"+(t.replace(/[^0-9a-fA-F]+/g,"")||27))}function rt(t,n,r){return!t||!r||n>t.length?t:t.substring(0,n)+rt(t.substring(n+1),r,r)}function et(t){var n=arguments.length>1&&void 0!==arguments[1]?arguments[1]:27;return!t||t%n?t%n:et(t/n,n)}function it(t,n,r){if(t&&t.length){var e=nt(r),i=nt(n),o=et(e)+5,u=rt(t,et(e,5),o);return u=u.replace(/\x7c$/g,"==").replace(/\x2f$/g,"="),u=function(t,n,r){var e=+("0x"+t.substring(0,4));t=t.substring(4);for(var i=n%e+r%27,o=[],u=0;u<t.length;u+=2)if("|"!==t[u]){var a=+("0x"+t[u]+t[u+1])-i;o.push(a)}else{var l=+("0x"+t.substring(u+1,u+1+4))-i;u+=3,o.push(l)}return String.fromCharCode.apply(String,o)}(u=(u=atob(u)).replace(/[\x41-\x5A]/g,""),i,e),u=JSON.parse(u)}}Number.isInteger||(Number.isInteger=function(t){return"number"==typeof t&&isFinite(t)&&Math.floor(t)===t}),Number.EPSILON||(Number.EPSILON=2220446049250313e-31);var ot=function(){function t(n,r){var i=arguments.length>2&&void 0!==arguments[2]?arguments[2]:{};e(this,t),this._id=0,this._running=!1,this._rollingBack=!1,this._animations=n,this.duration=r.duration,this.alternate=r.alternate,this.fill=r.fill,this.iterations=r.iterations,this.direction=i.direction||1,this.speed=i.speed||1,this.fps=i.fps||100,this.offset=i.offset||0,this.rollbackStartOffset=0}return o(t,[{key:"_rollback",value:function(){var t=this,n=1/0,r=null;this.rollbackStartOffset=this.offset,this._rollingBack||(this._rollingBack=!0,this._running=!0);this._id=window.requestAnimationFrame((function e(i){if(t._rollingBack){null==r&&(r=i);var o=i-r,u=t.rollbackStartOffset-o,a=Math.round(u*t.speed);if(a>t.duration&&n!=1/0){var l=!!t.alternate&&a/t.duration%2>1,f=a%t.duration;a=(f+=l?t.duration:0)||t.duration}var s=t.fps?1e3/t.fps:0,c=Math.max(0,a);if(c<n-s){t.offset=c,n=c;for(var h=t._animations,v=h.length,y=0;y<v;y++)h[y](c,t.direction)}var g=!1;if(t.iterations>0&&-1===t.fill){var d=t.iterations*t.duration,p=d==a;a=p?0:a,t.offset=p?0:t.offset,g=a>d}a>0&&t.offset>=a&&!g?t._id=window.requestAnimationFrame(e):t.stop()}}))}},{key:"_start",value:function(){var t=this,n=arguments.length>0&&void 0!==arguments[0]?arguments[0]:0,r=-1/0,e=null,i={},o=function o(u){t._running=!0,null==e&&(e=u);var a=Math.round((u-e+n)*t.speed),l=t.fps?1e3/t.fps:0;if(a>r+l&&!t._rollingBack){t.offset=a,r=a;for(var f=t._animations,s=f.length,c=0,h=0;h<s;h++)i[h]?c++:(i[h]=f[h](a,t.direction),i[h]&&c++);if(c===s)return void t._stop()}t._id=window.requestAnimationFrame(o)};this._id=window.requestAnimationFrame(o)}},{key:"_stop",value:function(){this._id&&window.cancelAnimationFrame(this._id),this._running=!1,this._rollingBack=!1}},{key:"play",value:function(){!this._rollingBack&&this._running||(this._rollingBack=!1,this.rollbackStartOffset>this.duration&&(this.offset=this.rollbackStartOffset-(this.rollbackStartOffset-this.offset)%this.duration,this.rollbackStartOffset=0),this._start(this.offset))}},{key:"stop",value:function(){this._stop(),this.offset=0,this.rollbackStartOffset=0;var t=this.direction,n=this._animations;window.requestAnimationFrame((function(){for(var r=0;r<n.length;r++)n[r](0,t)}))}},{key:"reachedToEnd",value:function(){return this.iterations>0&&this.offset>=this.iterations*this.duration}},{key:"restart",value:function(){this._stop(),this.offset=0,this._start()}},{key:"pause",value:function(){this._stop()}},{key:"reverse",value:function(){this.direction=-this.direction}}],[{key:"build",value:function(r,e){return delete r.animationSettings,r.options=it(r.options,r.root,"5c7f360c"),r.animations.map((function(t){var e=it(t.s,r.root,"5c7f360c");for(var i in delete t.s,r.animationSettings||(r.animationSettings=n({},e)),e)e.hasOwnProperty(i)&&(t[i]=e[i])})),(r=function(t,n){if(V=n,!t||!t.root||!Array.isArray(t.animations))return null;for(var r=document.getElementsByTagName("svg"),e=!1,i=0;i<r.length;i++)if(r[i].id===t.root&&!r[i].svgatorAnimation){(e=r[i]).svgatorAnimation=!0;break}if(!e)return null;var o=t.animations.map((function(t){return tt(e,t)})).filter((function(t){return!!t}));return o.length?{element:e,animations:o,animationSettings:t.animationSettings,options:t.options||void 0}:null}(r,e))?{el:r.element,options:r.options||{},player:new t(r.animations,r.animationSettings,r.options)}:null}},{key:"push",value:function(t){return this.build(t)}},{key:"init",value:function(){var t=this,n=window.__SVGATOR_PLAYER__&&window.__SVGATOR_PLAYER__["5c7f360c"];Array.isArray(n)&&n.splice(0).forEach((function(n){return t.build(n)}))}}]),t}();function ut(t){return v(t)+""}function at(t){var n=arguments.length>1&&void 0!==arguments[1]?arguments[1]:" ";return t&&t.length?t.map(ut).join(n):""}function lt(t){return t?null==t.a||t.a>=1?"rgb("+t.r+","+t.g+","+t.b+")":"rgba("+t.r+","+t.g+","+t.b+","+t.a+")":"transparent"}function ft(t){return t?"url(#"+t+")":"none"}!function(){for(var t=0,n=["ms","moz","webkit","o"],r=0;r<n.length&&!window.requestAnimationFrame;++r)window.requestAnimationFrame=window[n[r]+"RequestAnimationFrame"],window.cancelAnimationFrame=window[n[r]+"CancelAnimationFrame"]||window[n[r]+"CancelRequestAnimationFrame"];window.requestAnimationFrame||(window.requestAnimationFrame=function(n){var r=Date.now(),e=Math.max(0,16-(r-t)),i=window.setTimeout((function(){n(r+e)}),e);return t=r+e,i},window.cancelAnimationFrame=window.clearTimeout)}();var st={f:null,i:function(t,n,r){return 0===t?n:1===t?r:{x:F(t,n.x,r.x),y:F(t,n.y,r.y)}},u:function(t,n){return function(r){var e=n(r);t.setAttribute("rx",ut(e.x)),t.setAttribute("ry",ut(e.y))}}},ct={f:null,i:function(t,n,r){return 0===t?n:1===t?r:{width:F(t,n.width,r.width),height:F(t,n.height,r.height)}},u:function(t,n){return function(r){var e=n(r);t.setAttribute("width",ut(e.width)),t.setAttribute("height",ut(e.height))}}};Object.freeze({M:2,L:2,Z:0,H:1,V:1,C:6,Q:4,T:2,S:4,A:7});var ht={},vt=null;function yt(t){var n=function(){if(vt)return vt;if("object"!==("undefined"==typeof document?"undefined":r(document))||!document.createElementNS)return{};var t=document.createElementNS("http://www.w3.org/2000/svg","svg");return t&&t.style?(t.style.position="absolute",t.style.opacity="0.01",t.style.zIndex="-9999",t.style.left="-9999px",t.style.width="1px",t.style.height="1px",vt={svg:t}):{}}().svg;if(!n)return function(t){return null};var e=document.createElementNS(n.namespaceURI,"path");e.setAttributeNS(null,"d",t),e.setAttributeNS(null,"fill","none"),e.setAttributeNS(null,"stroke","none"),n.appendChild(e);var i=e.getTotalLength();return function(t){var n=e.getPointAtLength(i*t);return{x:n.x,y:n.y}}}function gt(t){return ht[t]?ht[t]:ht[t]=yt(t)}function dt(t,n,r,e){if(!t||!e)return!1;var i=["M",t.x,t.y];if(n&&r&&(i.push("C"),i.push(n.x),i.push(n.y),i.push(r.x),i.push(r.y)),n?!r:r){var o=n||r;i.push("Q"),i.push(o.x),i.push(o.y)}return n||r||i.push("L"),i.push(e.x),i.push(e.y),i.join(" ")}function pt(t,n,r,e){var i=arguments.length>4&&void 0!==arguments[4]?arguments[4]:1,o=dt(t,n,r,e),u=gt(o);try{return u(i)}catch(t){return null}}function mt(t,n,r,e){var i=1-e;return i*i*t+2*i*e*n+e*e*r}function bt(t,n,r,e){return 2*(1-e)*(n-t)+2*e*(r-n)}function wt(t,n,r,e){var i=arguments.length>4&&void 0!==arguments[4]&&arguments[4],o=pt(t,n,null,r,e);return o||(o={x:mt(t.x,n.x,r.x,e),y:mt(t.y,n.y,r.y,e)}),i&&(o.a=xt(t,n,r,e)),o}function xt(t,n,r,e){return Math.atan2(bt(t.y,n.y,r.y,e),bt(t.x,n.x,r.x,e))}function At(t,n,r,e,i){var o=i*i;return i*o*(e-t+3*(n-r))+3*o*(t+r-2*n)+3*i*(n-t)+t}function kt(t,n,r,e,i){var o=1-i;return 3*(o*o*(n-t)+2*o*i*(r-n)+i*i*(e-r))}function _t(t,n,r,e,i){var o=arguments.length>5&&void 0!==arguments[5]&&arguments[5],u=pt(t,n,r,e,i);return u||(u={x:At(t.x,n.x,r.x,e.x,i),y:At(t.y,n.y,r.y,e.y,i)}),o&&(u.a=St(t,n,r,e,i)),u}function St(t,n,r,e,i){return Math.atan2(kt(t.y,n.y,r.y,e.y,i),kt(t.x,n.x,r.x,e.x,i))}function Ot(t,n,r){return t+(n-t)*r}function jt(t,n,r){var e=arguments.length>3&&void 0!==arguments[3]&&arguments[3],i={x:Ot(t.x,n.x,r),y:Ot(t.y,n.y,r)};return e&&(i.a=Pt(t,n)),i}function Pt(t,n){return Math.atan2(n.y-t.y,n.x-t.x)}function Mt(t,n,r){var e=arguments.length>3&&void 0!==arguments[3]&&arguments[3];if(Rt(n)){if(It(r))return wt(n,r.start,r,t,e)}else if(Rt(r)){if(n.end)return wt(n,n.end,r,t,e)}else{if(n.end)return r.start?_t(n,n.end,r.start,r,t,e):wt(n,n.end,r,t,e);if(r.start)return wt(n,r.start,r,t,e)}return jt(n,r,t,e)}function Et(t,n,r){var e=Mt(t,n,r,!0);return e.a=function(t){return arguments.length>1&&void 0!==arguments[1]&&arguments[1]?t+Math.PI:t}(e.a)/g,e}function Rt(t){return!t.type||"corner"===t.type}function It(t){return null!=t.start&&!Rt(t)}var Nt=new I;var Bt={f:ut,i:B},Ft={f:ut,i:T};function Tt(t,n,r){return t.map((function(t){return function(t,n,r){var e=t.v;if(!e||"g"!==e.t||e.s||!e.v||!e.r)return t;var i=r.getElementById(e.r),o=i&&i.querySelectorAll("stop")||[];return e.s=e.v.map((function(t,n){var r=o[n]&&o[n].getAttribute("offset");return{c:t,o:r=v(parseInt(r)/100)}})),delete e.v,t}(t,0,r)}))}var qt={gt:"gradientTransform",c:{x:"cx",y:"cy"},rd:"r",f:{x:"x1",y:"y1"},to:{x:"x2",y:"y2"}};function Lt(t,n,e,i,o,u,a,l){return Tt(t,0,l),n=function(t,n,r){for(var e,i,o,u=t.length-1,a={},l=0;l<=u;l++)(e=t[l]).e&&(e.e=n(e.e)),e.v&&"g"===(i=e.v).t&&i.r&&(o=r.getElementById(i.r))&&(a[i.r]={e:o,s:o.querySelectorAll("stop")});return a}(t,i,l),function(i){var o=e(i,t,Ct);if(!o)return"none";if("c"===o.t)return lt(o.v);if("g"===o.t){if(!n[o.r])return ft(o.r);var u=n[o.r];return function(t,n){for(var r=t.s,e=r.length;e<n.length;e++){var i=r[r.length-1].cloneNode();i.id=Vt(i.id),t.e.appendChild(i),r=t.s=t.e.querySelectorAll("stop")}for(var o=0,u=r.length,a=n.length-1;o<u;o++)r[o].setAttribute("stop-color",lt(n[Math.min(o,a)].c)),r[o].setAttribute("offset",n[Math.min(o,a)].o)}(u,o.s),Object.keys(qt).forEach((function(t){if(void 0!==o[t])if("object"!==r(qt[t])){var n,e="gt"===t?(n=o[t],Array.isArray(n)?"matrix("+n.join(" ")+")":""):o[t],i=qt[t];u.e.setAttribute(i,e)}else Object.keys(qt[t]).forEach((function(n){if(void 0!==o[t][n]){var r=o[t][n],e=qt[t][n];u.e.setAttribute(e,r)}}))})),ft(o.r)}return"none"}}function Ct(t,r,e){if(0===t)return r;if(1===t)return e;if(r&&e){var i=r.t;if(i===e.t)switch(r.t){case"c":return{t:i,v:C(t,r.v,e.v)};case"g":if(r.r===e.r){var o={t:i,s:Dt(t,r.s,e.s),r:r.r};return r.gt&&e.gt&&(o.gt=function(t,n,r){var e=n.length;if(e!==r.length)return N(t,n,r);for(var i=new Array(e),o=0;o<e;o++)i[o]=B(t,n[o],r[o]);return i}(t,r.gt,e.gt)),r.c?(o.c=q(t,r.c,e.c),o.rd=F(t,r.rd,e.rd)):r.f&&(o.f=q(t,r.f,e.f),o.to=q(t,r.to,e.to)),o}}if("c"===r.t&&"g"===e.t||"c"===e.t&&"g"===r.t){var u="c"===r.t?r:e,a="g"===r.t?n({},r):n({},e),l=a.s.map((function(t){return{c:u.v,o:t.o}}));return a.s="c"===r.t?Dt(t,l,a.s):Dt(t,a.s,l),a}}return N(t,r,e)}function Dt(t,n,r){if(n.length===r.length)return n.map((function(n,e){return zt(t,n,r[e])}));for(var e=Math.max(n.length,r.length),i=[],o=0;o<e;o++){var u=zt(t,n[Math.min(o,n.length-1)],r[Math.min(o,r.length-1)]);i.push(u)}return i}function zt(t,n,r){return{o:T(t,n.o,r.o||0),c:C(t,n.c,r.c||{})}}function Vt(t){return t.replace(/-fill-([0-9]+)$/,(function(t,n){return"-fill-"+(+n+1)}))}var Gt={fill:Lt,"fill-opacity":Ft,stroke:Lt,"stroke-opacity":Ft,"stroke-width":Bt,"stroke-dashoffset":{f:ut,i:B},"stroke-dasharray":{f:function(t){var n=arguments.length>1&&void 0!==arguments[1]?arguments[1]:" ";return t&&t.length>0&&(t=t.map((function(t){return v(t,4)}))),at(t,n)},i:function(t,n,r){var e,i,o,u=n.length,a=r.length;if(u!==a)if(0===u)n=D(u=a,0);else if(0===a)a=u,r=D(u,0);else{var l=(o=(e=u)*(i=a)/function(t,n){for(var r;n;)r=n,n=t%n,t=r;return t||1}(e,i))<0?-o:o;n=z(n,Math.floor(l/u)),r=z(r,Math.floor(l/a)),u=a=l}for(var f=[],s=0;s<u;s++)f.push(v(F(t,n[s],r[s])));return f}},opacity:Ft,transform:function(t,n,e,i){if(!(t=function(t,n){if(!t||"object"!==r(t))return null;var e=!1;for(var i in t)t.hasOwnProperty(i)&&(t[i]&&t[i].length?(t[i].forEach((function(t){t.e&&(t.e=n(t.e))})),e=!0):delete t[i]);return e?t:null}(t,i)))return null;var o=function(r,i,o){var u=arguments.length>3&&void 0!==arguments[3]?arguments[3]:null;return t[r]?e(i,t[r],o):n&&n[r]?n[r]:u};return n&&n.a&&t.o?function(n){var r=e(n,t.o,Et);return Nt.recomposeSelf(r,o("r",n,B,0)+r.a,o("k",n,q),o("s",n,q),o("t",n,q)).toString()}:function(t){return Nt.recomposeSelf(o("o",t,Mt,null),o("r",t,B,0),o("k",t,q),o("s",t,q),o("t",t,q)).toString()}},r:Bt,"#size":ct,"#radius":st,_:function(t,n){if(Array.isArray(t))for(var r=0;r<t.length;r++)this[t[r]]=n;else this[t]=n}},Yt=function(t){!function(t,n){if("function"!=typeof n&&null!==n)throw new TypeError("Super expression must either be null or a function");t.prototype=Object.create(n&&n.prototype,{constructor:{value:t,writable:!0,configurable:!0}}),n&&l(t,n)}(r,t);var n=s(r);function r(){return e(this,r),n.apply(this,arguments)}return o(r,null,[{key:"build",value:function(t){var n=c(a(r),"build",this).call(this,t,Gt);if(!n)return null;n.el,n.options,function(t,n,r){t.play()}(n.player)}}]),r}(ot);return Yt.init(),Yt}));
(function(s,i,o,w){w[o]=w[o]||{};w[o][s]=w[o][s]||[];w[o][s].push(i);})('5c7f360c',{"root":"eeTQj0AiXYg1","animations":[{"elements":{"eeTQj0AiXYg2":{"transform":{"data":{"o":{"x":573.001251,"y":572.746003,"type":"corner"},"t":{"x":-573.001251,"y":-572.746002}},"keys":{"s":[{"t":0,"v":{"x":0.885211,"y":0.885211}},{"t":2000,"v":{"x":1,"y":1},"e":[0.42,0,0.58,1]}]}}}},"s":"MIDA1MmE0NGI4ZDllOWEI4YTlkOTI5OEk5NzRJiNjM1Ylg1OTU5NTk1GNTRiRThkOTI5YjhlOTGNHOWQ5Mjk4OTc0YlMQ2M1U1YU81NTRiOTIW5ZDhlOWI4YTlkOTI5OODk3OWM0YjYzUjU5NKTU0YjhmOTI5NTk1NGBI2MzVhNTU0YjhhQTkX1OWQ4ZTliOTc4YTlkTOGU0YjYzOWQ5YjllOBGU1NTRiOWM5OThlVjQhlOGQ0Yk82MzVhTWEU2"}],"options":"MODAxMDg4MmY4MDgxNmUU3ZjgxMmY0NzJmNzkQ3YzZlNzEyZjhh"},'__SVGATOR_PLAYER__',window)]]></script></svg>