<svg width="120" height="120" viewBox="0 0 120 120" fill="none" xmlns="http://www.w3.org/2000/svg">
<path d="M105.571 85.398V68.25C105.571 66.0537 104.698 63.9473 103.145 62.3943C101.591 60.8413 99.4832 59.9688 97.2857 59.9688H64.1429V43.4063H72.4286C74.6253 43.4037 76.7313 42.5304 78.2847 40.978C79.838 39.4255 80.7118 37.3206 80.7143 35.125V10.2813C80.7118 8.0857 79.838 5.9808 78.2847 4.42831C76.7313 2.87582 74.6253 2.00252 72.4286 2H47.5714C45.3746 2.00219 43.2684 2.87538 41.715 4.42794C40.1616 5.98051 39.2879 8.0856 39.2857 10.2813V35.125C39.2879 37.3207 40.1616 39.4258 41.715 40.9783C43.2684 42.5309 45.3746 43.4041 47.5714 43.4063H55.8571V59.9688H22.7143C20.5168 59.9688 18.4093 60.8413 16.8554 62.3943C15.3016 63.9473 14.4286 66.0537 14.4286 68.25V85.4009C10.5233 86.4087 7.11982 88.8055 4.85612 92.1419C2.59241 95.4783 1.6239 99.5254 2.13212 103.524C2.64034 107.524 4.59041 111.2 7.61679 113.865C10.6432 116.53 14.5381 118 18.5715 118C22.6048 118 26.4997 116.53 29.5261 113.865C32.5525 111.2 34.5026 107.524 35.0108 103.524C35.519 99.5254 34.5505 95.4783 32.2868 92.1419C30.0231 88.8055 26.6196 86.4087 22.7143 85.4009V68.25H55.8571V85.4005C51.9518 86.4083 48.5484 88.805 46.2847 92.1415C44.021 95.4779 43.0524 99.525 43.5607 103.524C44.0689 107.523 46.019 111.2 49.0453 113.865C52.0717 116.529 55.9666 118 60 118C64.0334 118 67.9283 116.529 70.9547 113.865C73.981 111.2 75.9311 107.523 76.4393 103.524C76.9476 99.525 75.9791 95.4779 73.7153 92.1415C71.4516 88.805 68.0482 86.4083 64.1429 85.4005V68.25H97.2857V85.398C93.3804 86.4058 89.9769 88.8026 87.7132 92.139C85.4495 95.4754 84.481 99.5225 84.9892 103.522C85.4974 107.521 87.4475 111.197 90.4739 113.862C93.5003 116.527 97.3952 117.997 101.429 117.997C105.462 117.997 109.357 116.527 112.383 113.862C115.41 111.197 117.36 107.521 117.868 103.522C118.376 99.5225 117.408 95.4754 115.144 92.139C112.88 88.8026 109.477 86.4058 105.571 85.398V85.398ZM47.5714 10.2813H72.4286L72.4327 35.125H47.5714V10.2813ZM26.8572 101.375C26.8572 103.013 26.3712 104.614 25.4608 105.976C24.5503 107.338 23.2563 108.399 21.7423 109.026C20.2282 109.653 18.5623 109.817 16.955 109.497C15.3477 109.178 13.8714 108.389 12.7126 107.231C11.5538 106.073 10.7647 104.597 10.445 102.991C10.1252 101.384 10.2893 99.7191 10.9165 98.2059C11.5436 96.6927 12.6056 95.3994 13.9682 94.4894C15.3307 93.5795 16.9327 93.0938 18.5715 93.0938C20.7682 93.0963 22.8742 93.9696 24.4276 95.5221C25.9809 97.0746 26.8546 99.1795 26.8572 101.375ZM68.2857 101.375C68.2857 103.013 67.7998 104.614 66.8893 105.976C65.9789 107.338 64.6848 108.399 63.1708 109.026C61.6568 109.653 59.9908 109.817 58.3835 109.497C56.7763 109.178 55.2999 108.389 54.1411 107.231C52.9823 106.073 52.1932 104.597 51.8735 102.991C51.5538 101.384 51.7179 99.7191 52.345 98.2059C52.9721 96.6927 54.0341 95.3994 55.3967 94.4894C56.7593 93.5795 58.3612 93.0938 60 93.0938C62.1966 93.0967 64.3024 93.9702 65.8556 95.5226C67.4088 97.075 68.2828 99.1796 68.2857 101.375ZM101.429 109.656C99.7898 109.656 98.1878 109.171 96.8253 108.261C95.4627 107.351 94.4007 106.057 93.7735 104.544C93.1464 103.031 92.9823 101.366 93.302 99.7594C93.6218 98.153 94.4109 96.6775 95.5697 95.5193C96.7284 94.3612 98.2048 93.5724 99.8121 93.2529C101.419 92.9334 103.085 93.0974 104.599 93.7242C106.113 94.351 107.407 95.4124 108.318 96.7742C109.228 98.1361 109.714 99.7372 109.714 101.375C109.712 103.571 108.838 105.675 107.285 107.228C105.731 108.78 103.625 109.654 101.429 109.656Z" fill="white"/>
</svg>
