<svg width="160" height="160" viewBox="0 0 160 160" fill="none" xmlns="http://www.w3.org/2000/svg">
<path d="M135 110.707V90C135 87.3478 133.946 84.8043 132.071 82.9289C130.196 81.0536 127.652 80 125 80H85V60H95C97.6513 59.997 100.193 58.9424 102.068 57.0677C103.942 55.193 104.997 52.6512 105 50V20C104.997 17.3488 103.942 14.807 102.068 12.9323C100.193 11.0576 97.6513 10.003 95 10H65C62.3487 10.0026 59.8067 11.0571 57.9319 12.9319C56.0571 14.8066 55.0027 17.3486 55 20V50C55.0027 52.6513 56.0571 55.1933 57.9319 57.0681C59.8067 58.9429 62.3487 59.9973 65 60H75V80H35C32.3479 80 29.8043 81.0536 27.929 82.9289C26.0536 84.8043 25 87.3478 25 90V110.71C20.2868 111.927 16.1791 114.822 13.447 118.851C10.715 122.879 9.54608 127.766 10.1595 132.595C10.7728 137.425 13.1264 141.864 16.7789 145.082C20.4314 148.3 25.1322 150.075 30 150.075C34.8679 150.075 39.5687 148.3 43.2212 145.082C46.8737 141.864 49.2273 137.425 49.8406 132.595C50.454 127.766 49.2851 122.879 46.5531 118.851C43.821 114.822 39.7133 111.927 35 110.71V90H75V110.71C70.2868 111.927 66.1791 114.821 63.447 118.85C60.715 122.879 59.5461 127.766 60.1595 132.595C60.7728 137.424 63.1264 141.864 66.7789 145.082C70.4314 148.3 75.1322 150.075 80 150.075C84.8679 150.075 89.5687 148.3 93.2212 145.082C96.8737 141.864 99.2273 137.424 99.8406 132.595C100.454 127.766 99.2851 122.879 96.5531 118.85C93.821 114.821 89.7133 111.927 85 110.71V90H125V110.707C120.287 111.924 116.179 114.818 113.447 118.847C110.715 122.876 109.546 127.763 110.159 132.592C110.773 137.421 113.126 141.861 116.779 145.079C120.431 148.297 125.132 150.072 130 150.072C134.868 150.072 139.569 148.297 143.221 145.079C146.874 141.861 149.227 137.421 149.841 132.592C150.454 127.763 149.285 122.876 146.553 118.847C143.821 114.818 139.713 111.924 135 110.707ZM65 20H95L95.005 50H65V20ZM40 130C40 131.978 39.4136 133.911 38.3147 135.556C37.2159 137.2 35.6541 138.482 33.8269 139.239C31.9996 139.996 29.989 140.194 28.0491 139.808C26.1093 139.422 24.3275 138.47 22.929 137.071C21.5305 135.673 20.578 133.891 20.1922 131.951C19.8063 130.011 20.0044 128 20.7613 126.173C21.5181 124.346 22.7999 122.784 24.4443 121.685C26.0888 120.586 28.0222 120 30 120C32.6513 120.003 35.1931 121.058 37.0678 122.932C38.9425 124.807 39.997 127.349 40 130ZM90 130C90 131.978 89.4136 133.911 88.3147 135.556C87.2159 137.2 85.6541 138.482 83.8269 139.239C81.9996 139.996 79.989 140.194 78.0491 139.808C76.1093 139.422 74.3275 138.47 72.929 137.071C71.5305 135.673 70.578 133.891 70.1922 131.951C69.8063 130.011 70.0044 128 70.7613 126.173C71.5181 124.346 72.7999 122.784 74.4443 121.685C76.0888 120.586 78.0222 120 80 120C82.6511 120.004 85.1926 121.058 87.0672 122.933C88.9418 124.807 89.9965 127.349 90 130ZM130 140C128.022 140 126.089 139.413 124.444 138.315C122.8 137.216 121.518 135.654 120.761 133.827C120.004 132 119.806 129.989 120.192 128.049C120.578 126.109 121.53 124.327 122.929 122.929C124.328 121.53 126.109 120.578 128.049 120.192C129.989 119.806 132 120.004 133.827 120.761C135.654 121.518 137.216 122.8 138.315 124.444C139.414 126.089 140 128.022 140 130C139.997 132.651 138.942 135.193 137.068 137.068C135.193 138.942 132.651 139.997 130 140Z" fill="#E8E8E8"/>
</svg>
