<svg width="46" height="47" viewBox="0 0 46 47" fill="none" xmlns="http://www.w3.org/2000/svg">
<path d="M38.3335 19.6667C38.7082 18.004 38.2453 16.0442 35.9376 13.9167C32.1867 17.3121 33.2591 20.8426 34.5001 22.5417C34.5001 22.5417 34.3411 23.5001 30.6668 23.5001C26.9926 23.5001 1.9168 23.5001 1.9168 23.5001C1.9168 23.5001 0.160176 38.8334 17.2501 38.8334C32.1934 38.8334 36.3909 27.3305 37.2103 24.3856C37.5495 24.4316 37.93 24.4613 38.3335 24.4584C40.391 24.4421 43.058 23.3362 44.0835 19.2029C41.3637 18.2609 39.6167 18.6873 38.3335 19.6667Z" fill="#03A9F4"/>
<path d="M2.07471 27.3333C2.77908 31.8748 5.73362 38.8332 17.2499 38.8332C28.9272 38.8332 34.0428 31.8087 36.1118 27.3333H2.07471Z" fill="#0288D1"/>
<path d="M18.9865 38.7739C18.1049 38.4653 14.1259 37.7293 13.4167 32.125C9.38307 33.9104 5.80944 33.4427 4.23682 33.091C6.30873 36.1855 10.1497 38.8333 17.25 38.8333C17.8471 38.8333 18.423 38.8103 18.9865 38.7739Z" fill="#81D4FA"/>
<path d="M17.2502 29.25C16.7418 29.25 16.2543 29.4519 15.8949 29.8114C15.5354 30.1708 15.3335 30.6583 15.3335 31.1667C15.3335 31.675 15.5354 32.1625 15.8949 32.522C16.2543 32.8814 16.7418 33.0833 17.2502 33.0833C17.7585 33.0833 18.246 32.8814 18.6054 32.522C18.9649 32.1625 19.1668 31.675 19.1668 31.1667C19.1668 30.6583 18.9649 30.1708 18.6054 29.8114C18.246 29.4519 17.7585 29.25 17.2502 29.25Z" fill="white"/>
<path d="M14.2924 32.6972C14.5071 33.1812 14.3116 33.8108 13.8037 33.9603C10.6402 34.8927 7.91375 35.0164 5.85238 35.0164C5.23521 34.4232 4.70813 33.7907 4.26538 33.1352C6.74267 33.1352 10.6958 33.0202 13.0284 32.2094C13.5286 32.035 14.0778 32.2113 14.2924 32.6972ZM1.9165 26.3751C1.9165 26.3751 3.71338 26.4949 4.7915 25.4167C6.58838 27.0344 10.484 26.4594 11.4998 25.4167C12.5185 27.0344 18.1488 26.7345 19.1665 25.4167C20.3644 26.7948 25.5155 27.0938 26.8332 25.4167C27.2922 26.8169 33.368 27.2127 34.4998 25.4167C35.5166 26.4594 39.3519 27.274 41.5062 25.4167C42.0467 26.5552 44.0832 26.3751 44.0832 26.3751V27.3334H1.9165V26.3751ZM16.2915 31.1667C16.2915 31.6957 16.7208 32.1251 17.2498 32.1251C17.7788 32.1251 18.2082 31.6957 18.2082 31.1667C18.2082 30.6377 17.7788 30.2084 17.2498 30.2084C16.7208 30.2084 16.2915 30.6377 16.2915 31.1667Z" fill="#37474F"/>
<path d="M10.5417 23.5001H5.75V18.7084H10.5417V23.5001ZM20.125 18.7084H15.3333V23.5001H20.125V18.7084ZM29.7083 18.7084H24.9167V23.5001H29.7083V18.7084ZM15.3333 13.9167H10.5417V18.7084H15.3333V13.9167ZM24.9167 13.9167H20.125V18.7084H24.9167V13.9167Z" fill="#01579B"/>
<path d="M15.3332 23.5H10.5415V18.7083H15.3332V23.5ZM24.9165 18.7083H20.1248V23.5H24.9165V18.7083ZM24.9165 9.125H20.1248V13.9167H24.9165V9.125ZM20.1248 13.9167H15.3332V18.7083H20.1248V13.9167Z" fill="#0288D1"/>
</svg>
