<svg width="46" height="47" viewBox="0 0 46 47" fill="none" xmlns="http://www.w3.org/2000/svg">
<path fill-rule="evenodd" clip-rule="evenodd" d="M40.052 11.071L40.0542 11.0667C36.4942 6.80595 31.1424 4.09338 25.1559 4.09338C17.5379 4.09338 10.9484 8.48638 7.77222 14.8746H33.0665C34.8813 14.8746 36.648 14.2493 38.0366 13.0806C38.7583 12.4733 39.4332 11.812 40.052 11.071Z" fill="#FEC514"/>
<path fill-rule="evenodd" clip-rule="evenodd" d="M5.75 23.5C5.75 25.2408 5.98288 26.9263 6.41269 28.5312H30.1875C32.9662 28.5312 35.2188 26.2787 35.2188 23.5C35.2188 20.7213 32.9662 18.4688 30.1875 18.4688H6.41269C5.98288 20.0737 5.75 21.7592 5.75 23.5Z" fill="#343741"/>
<path fill-rule="evenodd" clip-rule="evenodd" d="M40.052 35.929L40.0542 35.9333C36.4942 40.1941 31.1424 42.9066 25.1559 42.9066C17.5379 42.9066 10.9484 38.5136 7.77222 32.1254H33.0665C34.8813 32.1254 36.648 32.7507 38.0366 33.9194C38.7583 34.5267 39.4332 35.188 40.052 35.929Z" fill="#00BFB3"/>
</svg>
