<svg width="46" height="46" viewBox="0 0 46 46" fill="none" xmlns="http://www.w3.org/2000/svg">
<g clip-path="url(#clip0)">
<path d="M15.3058 46.0001C19.5378 46.0001 22.9725 42.5654 22.9725 38.3334V30.6667H15.3058C11.0738 30.6667 7.63916 34.1014 7.63916 38.3334C7.63916 42.5654 11.0738 46.0001 15.3058 46.0001Z" fill="#0ACF83"/>
<path d="M7.63916 23C7.63916 18.768 11.0738 15.3334 15.3058 15.3334H22.9725V30.6667H15.3058C11.0738 30.6667 7.63916 27.232 7.63916 23Z" fill="#A259FF"/>
<path d="M7.63916 7.66667C7.63916 3.43467 11.0738 0 15.3058 0H22.9725V15.3333H15.3058C11.0738 15.3333 7.63916 11.8987 7.63916 7.66667Z" fill="#F24E1E"/>
<path d="M22.9724 0H30.6391C34.8711 0 38.3058 3.43467 38.3058 7.66667C38.3058 11.8987 34.8711 15.3333 30.6391 15.3333H22.9724V0Z" fill="#FF7262"/>
<path d="M38.3058 23C38.3058 27.232 34.8711 30.6667 30.6391 30.6667C26.4071 30.6667 22.9724 27.232 22.9724 23C22.9724 18.768 26.4071 15.3334 30.6391 15.3334C34.8711 15.3334 38.3058 18.768 38.3058 23Z" fill="#1ABCFE"/>
</g>
<defs>
<clipPath id="clip0">
<rect width="30.6728" height="46" fill="white" transform="translate(7.63599)"/>
</clipPath>
</defs>
</svg>
