<svg width="479" height="397" viewBox="0 0 479 397" fill="none" xmlns="http://www.w3.org/2000/svg">
<path opacity="0.53" d="M376.262 201.796C433.003 201.796 479 156.622 479 100.898C479 45.1736 433.003 0 376.262 0C319.521 0 273.523 45.1736 273.523 100.898C273.523 156.622 319.521 201.796 376.262 201.796Z" fill="#E5F1FF"/>
<path opacity="0.42" d="M154.004 355.3C177.454 332.27 177.454 294.93 154.004 271.9C130.553 248.869 92.5325 248.87 69.0821 271.9C45.6317 294.93 45.6316 332.27 69.0821 355.3C92.5325 378.33 130.553 378.33 154.004 355.3Z" fill="#43D992"/>
<path opacity="0.28" d="M110.736 33.6365C99.8768 33.6365 89.2617 36.799 80.2331 42.724C71.2044 48.649 64.1676 57.0704 60.0127 66.9232C55.8577 76.776 54.7712 87.6176 56.8905 98.0768C59.0099 108.536 64.2398 118.143 71.9191 125.683C79.5983 133.223 89.3818 138.357 100.032 140.436C110.683 142.516 121.722 141.446 131.754 137.363C141.785 133.281 150.359 126.368 156.39 117.5C162.421 108.632 165.639 98.2063 165.636 87.542C165.636 80.462 164.216 73.4514 161.457 66.9105C158.698 60.3696 154.654 54.4266 149.556 49.4209C144.458 44.4151 138.405 40.4447 131.744 37.7364C125.084 35.0281 117.945 33.6349 110.736 33.6365ZM110.736 122.013C103.793 122.013 97.0072 119.992 91.235 116.204C85.4628 112.416 80.9639 107.032 78.3073 100.734C75.6506 94.4348 74.9556 87.5038 76.3099 80.817C77.6642 74.1302 81.0072 67.988 85.9161 63.1671C90.8249 58.3462 97.0792 55.0631 103.888 53.733C110.697 52.4029 117.754 53.0856 124.168 55.6947C130.582 58.3037 136.063 62.722 139.92 68.3908C143.777 74.0595 145.836 80.7242 145.836 87.542C145.836 96.6844 142.138 105.452 135.555 111.917C128.973 118.382 120.045 122.013 110.736 122.013Z" fill="#43D992"/>
<path d="M318.14 378.326C318.14 379.966 317.477 381.539 316.296 382.699C315.115 383.859 313.513 384.51 311.843 384.51H152.552C150.928 384.441 149.394 383.758 148.269 382.605C147.145 381.452 146.518 379.917 146.518 378.32C146.518 376.724 147.145 375.189 148.269 374.036C149.394 372.882 150.928 372.2 152.552 372.13H209.105L216.898 358.022H247.497L255.302 372.13H311.843C312.671 372.13 313.491 372.291 314.256 372.602C315.021 372.914 315.715 373.37 316.3 373.946C316.885 374.521 317.349 375.204 317.664 375.956C317.98 376.708 318.142 377.513 318.14 378.326Z" fill="white"/>
<path d="M243.929 345.183H217.832V352.696H243.929V345.183Z" fill="#43D992"/>
<path d="M243.929 332.803H217.832V340.316H243.929V332.803Z" fill="#43D992"/>
<path d="M323.444 81.7813H316.931C315.599 76.18 313.342 70.8306 310.251 65.9447L314.86 61.4535C315.805 60.514 316.334 59.2468 316.334 57.9264C316.334 56.6061 315.805 55.3389 314.86 54.3994L304.625 44.3472C303.671 43.4139 302.379 42.8898 301.033 42.8898C299.687 42.8898 298.395 43.4139 297.442 44.3472L292.833 48.8736C287.858 45.8373 282.411 43.6212 276.707 42.3132V35.8705C276.706 35.2143 276.573 34.5648 276.315 33.9592C276.058 33.3536 275.682 32.8036 275.209 32.3407C274.735 31.8778 274.173 31.511 273.555 31.2614C272.937 31.0117 272.276 30.884 271.607 30.8855H257.134C255.785 30.8855 254.491 31.4119 253.536 32.349C252.582 33.2861 252.046 34.557 252.046 35.8822V42.278C246.342 43.5859 240.895 45.802 235.921 48.8383L231.36 44.3002C230.406 43.3668 229.114 42.8428 227.768 42.8428C226.422 42.8428 225.13 43.3668 224.177 44.3002L213.893 54.3994C212.943 55.3359 212.409 56.6042 212.409 57.9264C212.409 59.2487 212.943 60.517 213.893 61.4535L218.49 65.9799C215.399 70.8658 213.143 76.2153 211.81 81.8165H205.298C203.959 81.8227 202.676 82.347 201.728 83.2758C200.78 84.2046 200.243 85.4629 200.234 86.7779V100.992C200.237 102.315 200.774 103.583 201.728 104.518C202.682 105.452 203.974 105.977 205.322 105.977H211.834C213.168 111.581 215.425 116.935 218.514 121.825L213.917 126.34C212.967 127.277 212.433 128.545 212.433 129.867C212.433 131.189 212.967 132.458 213.917 133.394L224.141 143.446C225.094 144.38 226.386 144.904 227.732 144.904C229.079 144.904 230.37 144.38 231.324 143.446L235.933 138.92C240.907 141.956 246.354 144.172 252.058 145.48V151.876C252.058 153.201 252.594 154.472 253.548 155.409C254.502 156.346 255.797 156.873 257.146 156.873H271.619C272.969 156.873 274.263 156.346 275.217 155.409C276.171 154.472 276.707 153.201 276.707 151.876V145.48C282.411 144.172 287.858 141.956 292.833 138.92L297.442 143.446C298.395 144.38 299.687 144.904 301.033 144.904C302.379 144.904 303.671 144.38 304.625 143.446L314.86 133.394C315.805 132.455 316.334 131.187 316.334 129.867C316.334 128.547 315.805 127.28 314.86 126.34L310.251 121.825C313.341 116.935 315.597 111.581 316.931 105.977H323.444C324.791 105.977 326.083 105.452 327.037 104.518C327.991 103.583 328.528 102.315 328.531 100.992V86.7779C328.531 86.1218 328.4 85.472 328.144 84.8658C327.888 84.2596 327.514 83.7087 327.041 83.2448C326.569 82.7808 326.008 82.4127 325.391 82.1616C324.773 81.9105 324.112 81.7813 323.444 81.7813ZM264.377 119.239C259.269 119.241 254.275 117.756 250.027 114.971C245.779 112.186 242.468 108.226 240.511 103.592C238.555 98.9583 238.042 93.859 239.037 88.9389C240.032 84.0188 242.491 79.4991 246.101 75.9513C249.712 72.4035 254.313 69.987 259.323 69.0076C264.332 68.0281 269.525 68.5296 274.244 70.4487C278.963 72.3678 282.996 75.6182 285.834 79.7888C288.672 83.9595 290.187 88.863 290.187 93.8791C290.187 100.603 287.468 107.051 282.628 111.807C277.788 116.563 271.223 119.236 264.377 119.239Z" fill="#43D992"/>
<path d="M425.224 315.944V104.954C425.224 97.5064 419.077 91.4689 411.493 91.4689L52.9017 91.4689C45.3181 91.4689 39.1705 97.5064 39.1705 104.954V315.944C39.1705 323.392 45.3181 329.429 52.9017 329.429H411.493C419.077 329.429 425.224 323.392 425.224 315.944Z" fill="white"/>
<path d="M107.132 120.908H67.3152V129.526H107.132V120.908Z" fill="#242D34"/>
<path d="M155.054 120.908H115.237V129.526H155.054V120.908Z" fill="#242D34"/>
<path d="M276.552 120.908H236.735V129.526H276.552V120.908Z" fill="#242D34"/>
<path d="M398.037 120.908H358.22V129.526H398.037V120.908Z" fill="#242D34"/>
<path d="M231.671 120.908H160.465V129.526H231.671V120.908Z" fill="#43D992"/>
<path d="M352.486 120.908H281.28V129.526H352.486V120.908Z" fill="#F2B705"/>
<path d="M74.5221 114.054H67.5427V118.251H74.5221V114.054Z" fill="#2889DB"/>
<path d="M140.329 136.592H67.5427V140.789H140.329V136.592Z" fill="white"/>
<path d="M89.1391 143.999H67.5427V148.196H89.1391V143.999Z" fill="white"/>
<path d="M144.603 161.34H77.1078C72.0764 161.34 67.9976 165.346 67.9976 170.287V290.267C67.9976 295.208 72.0764 299.214 77.1078 299.214H144.603C149.634 299.214 153.713 295.208 153.713 290.267V170.287C153.713 165.346 149.634 161.34 144.603 161.34Z" fill="#242D34"/>
<path d="M107.479 181.562H78.7957V185.865H107.479V181.562Z" fill="white"/>
<path d="M107.479 191.168H78.7957V195.471H107.479V191.168Z" fill="white"/>
<path d="M107.479 200.785H78.7957V205.088H107.479V200.785Z" fill="white"/>
<path d="M96.3457 240.888H78.7957V245.191H96.3457V240.888Z" fill="white"/>
<path d="M96.3457 250.505H78.7957V254.808H96.3457V250.505Z" fill="white"/>
<path d="M126.49 250.505H108.94V254.808H126.49V250.505Z" fill="white"/>
<path d="M89.8213 229.954H78.7957V234.257H89.8213V229.954Z" fill="white"/>
<path d="M131.889 229.954H126.035V234.257H131.889V229.954Z" fill="white"/>
<path d="M123.784 229.954H93.6404V234.257H123.784V229.954Z" fill="#F2B705"/>
<path d="M83.0096 213.706H78.7957V218.009H83.0096V213.706Z" fill="#43D992"/>
<path d="M83.0096 221.336H78.7957V225.639H83.0096V221.336Z" fill="#F2B705"/>
<path d="M102.188 255.69H100.62L104.391 250.164H105.959L102.188 255.69Z" fill="white"/>
<path d="M143.932 263.096H78.7957V266.741H143.932V263.096Z" fill="#F2B705"/>
<path d="M143.932 271.385H78.7957V275.03H143.932V271.385Z" fill="#F2B705"/>
<path d="M457.212 154.721H278.132C273.655 154.721 270.027 158.285 270.027 162.681V210.402C270.027 214.798 273.655 218.361 278.132 218.361H457.212C461.688 218.361 465.316 214.798 465.316 210.402V162.681C465.316 158.285 461.688 154.721 457.212 154.721Z" fill="#43D992"/>
<path d="M328.077 195.812C328.077 195.812 337.977 171.945 366.325 177.694C394.674 183.443 409.075 214.811 445.516 189.181" stroke="white" stroke-width="1.13" stroke-miterlimit="10"/>
<path d="M419.873 197.14H415.827V201.114H419.873V197.14Z" fill="#F2B705" stroke="white" stroke-width="1.13" stroke-miterlimit="10"/>
<path d="M333.033 176.589H384.33" stroke="white" stroke-width="0.56" stroke-miterlimit="10"/>
<path d="M392.195 200.232H443.493" stroke="white" stroke-width="0.56" stroke-miterlimit="10"/>
<path d="M358.675 174.602H354.629V178.576H358.675V174.602Z" fill="#F2B705" stroke="white" stroke-width="1.13" stroke-miterlimit="10"/>
<path d="M304.23 166.208H265.538C262.305 166.208 259.684 168.781 259.684 171.957V228.954C259.684 232.129 262.305 234.703 265.538 234.703H304.23C307.463 234.703 310.084 232.129 310.084 228.954V171.957C310.084 168.781 307.463 166.208 304.23 166.208Z" fill="#242D34"/>
<path d="M296.245 175.931H267.561V179.81H296.245V175.931Z" fill="white"/>
<path d="M296.245 184.595H267.561V188.475H296.245V184.595Z" fill="white"/>
<path d="M278.359 193.26H267.561V197.14H278.359V193.26Z" fill="white"/>
<path d="M286.236 202.219H267.561V206.099H286.236V202.219Z" fill="#43D992"/>
<path d="M280.155 210.884H267.561V214.764H280.155V210.884Z" fill="#43D992"/>
<path d="M280.155 219.549H267.561V223.429H280.155V219.549Z" fill="white"/>
<path d="M388.329 258.3L381.337 263.672L371.305 265.471C371.305 265.471 361.848 264.848 360.974 264.848C360.1 264.848 353.683 259.769 353.683 259.769L341.832 255.595L333.631 258.582L323.91 256.489L309.329 255.595L295.347 260.968L283.806 262.755L273.475 266.024L261.922 266.929L249.46 257.371L237.92 255.29L226.068 261.85L216.647 264.848L205.956 264.543L192.476 272.608H184.443L170.868 277.311" stroke="#43D992" stroke-width="1.02" stroke-miterlimit="10"/>
<path d="M171.072 277.499H388.628" stroke="#43D992" stroke-width="0.25" stroke-miterlimit="10"/>
<path d="M171.167 274.818H168.941V280.191H171.167V274.818Z" fill="#43D992"/>
<path d="M389.538 274.818H387.311V280.191H389.538V274.818Z" fill="#F7F7F7"/>
<path d="M388.424 277.499V259.499" stroke="#F7F7F7" stroke-width="0.25" stroke-miterlimit="10"/>
<path d="M389.645 258.605C389.645 258.94 389.544 259.268 389.355 259.546C389.165 259.824 388.896 260.041 388.581 260.169C388.266 260.298 387.919 260.331 387.585 260.266C387.251 260.2 386.944 260.039 386.702 259.802C386.461 259.566 386.297 259.264 386.231 258.936C386.164 258.607 386.198 258.267 386.329 257.957C386.459 257.648 386.68 257.384 386.964 257.198C387.247 257.012 387.58 256.912 387.921 256.912C388.378 256.915 388.814 257.095 389.137 257.412C389.459 257.728 389.642 258.157 389.645 258.605Z" fill="#F7F7F7"/>
<path d="M356.616 285.258H221.303V287.645H356.616V285.258Z" fill="#242D34"/>
<path d="M304.361 285.258H221.303V287.645H304.361V285.258Z" fill="#43D992"/>
<path d="M287.841 289.832H221.303V292.218H287.841V289.832Z" fill="#242D34"/>
<path d="M179.128 296.945H187.329L188.394 294.711H171.838V298.438H177.608L179.128 296.945Z" fill="#43D992"/>
<path d="M196.128 294.687H195.218V295.581H196.128V294.687Z" fill="#43D992"/>
<path d="M201.79 294.687H200.88V295.581H201.79V294.687Z" fill="#43D992"/>
<path d="M207.441 294.687H206.531V295.581H207.441V294.687Z" fill="#43D992"/>
<path d="M378.61 248.192L378.904 245.313H381.862V245.991H379.526L379.352 247.565C379.635 247.399 379.956 247.315 380.315 247.315C380.841 247.315 381.259 247.49 381.568 247.839C381.877 248.185 382.032 248.654 382.032 249.246C382.032 249.841 381.871 250.31 381.548 250.654C381.229 250.995 380.781 251.165 380.204 251.165C379.694 251.165 379.278 251.024 378.955 250.741C378.633 250.458 378.449 250.067 378.404 249.568H379.098C379.143 249.898 379.261 250.148 379.451 250.317C379.641 250.483 379.892 250.567 380.204 250.567C380.545 250.567 380.812 250.45 381.005 250.218C381.201 249.985 381.299 249.664 381.299 249.254C381.299 248.868 381.193 248.559 380.981 248.327C380.773 248.091 380.494 247.974 380.145 247.974C379.825 247.974 379.574 248.044 379.392 248.184L379.197 248.342L378.61 248.192ZM386.453 248.624C386.453 249.483 386.306 250.121 386.013 250.539C385.719 250.957 385.261 251.165 384.637 251.165C384.021 251.165 383.565 250.962 383.269 250.555C382.973 250.145 382.82 249.534 382.809 248.723V247.744C382.809 246.895 382.956 246.265 383.249 245.852C383.543 245.44 384.003 245.234 384.629 245.234C385.25 245.234 385.708 245.434 386.001 245.833C386.294 246.229 386.445 246.842 386.453 247.672V248.624ZM385.719 247.621C385.719 247 385.632 246.548 385.458 246.265C385.283 245.979 385.007 245.837 384.629 245.837C384.254 245.837 383.98 245.978 383.808 246.261C383.637 246.544 383.548 246.978 383.543 247.565V248.739C383.543 249.363 383.633 249.824 383.812 250.123C383.995 250.419 384.27 250.567 384.637 250.567C384.999 250.567 385.267 250.427 385.442 250.146C385.619 249.866 385.711 249.425 385.719 248.822V247.621ZM391.012 248.624C391.012 249.483 390.866 250.121 390.572 250.539C390.279 250.957 389.82 251.165 389.197 251.165C388.581 251.165 388.125 250.962 387.829 250.555C387.533 250.145 387.379 249.534 387.369 248.723V247.744C387.369 246.895 387.515 246.265 387.809 245.852C388.102 245.44 388.562 245.234 389.189 245.234C389.81 245.234 390.267 245.434 390.56 245.833C390.854 246.229 391.005 246.842 391.012 247.672V248.624ZM390.279 247.621C390.279 247 390.192 246.548 390.017 246.265C389.843 245.979 389.567 245.837 389.189 245.837C388.813 245.837 388.54 245.978 388.368 246.261C388.196 246.544 388.108 246.978 388.102 247.565V248.739C388.102 249.363 388.192 249.824 388.372 250.123C388.554 250.419 388.829 250.567 389.197 250.567C389.559 250.567 389.827 250.427 390.001 250.146C390.179 249.866 390.271 249.425 390.279 248.822V247.621Z" fill="#F7F7F7"/>
<path d="M366.349 292.418H364.314L361.082 285.258H363.105L366.349 292.418Z" fill="#242D34"/>
<path d="M371.617 292.418H369.581L366.349 285.258H368.372L371.617 292.418Z" fill="#242D34"/>
<path d="M376.884 292.418H374.849L371.617 285.258H373.64L376.884 292.418Z" fill="#242D34"/>
<path d="M382.151 292.418H380.116L376.884 285.258H378.907L382.151 292.418Z" fill="#242D34"/>
<path d="M387.311 292.418H385.288L382.043 285.258H384.067L387.311 292.418Z" fill="#242D34"/>
<path d="M378.512 45.8521H345.579V51.6482H378.512V45.8521Z" fill="#43D992"/>
<path d="M395.236 56.2217H345.579V62.0178H395.236V56.2217Z" fill="#43D992"/>
<path d="M406.824 66.5793H345.579V72.3755H406.824V66.5793Z" fill="#43D992"/>
<path d="M368.995 76.9492H345.579V82.7454H368.995V76.9492Z" fill="#43D992"/>
<path d="M32.9333 115.676H0V121.472H32.9333V115.676Z" fill="#43D992"/>
<path d="M49.6574 126.034H0V131.83H49.6574V126.034Z" fill="#A9CCEA"/>
<path d="M61.2457 136.404H0V142.2H61.2457V136.404Z" fill="#A9CCEA"/>
<path d="M23.4161 146.773H0V152.57H23.4161V146.773Z" fill="#A9CCEA"/>
<path d="M222.56 319.106H82.1716V337.001H222.56V319.106Z" stroke="#F2B705" stroke-width="1.13" stroke-miterlimit="10"/>
<path d="M156.646 178.141H149.894V218.796H156.646V178.141Z" stroke="#289DF2" stroke-width="1.13" stroke-miterlimit="10"/>
<path d="M427.758 292.513C440.441 290.504 449.064 278.779 447.019 266.324C444.974 253.869 433.035 245.4 420.353 247.408C407.67 249.416 399.047 261.142 401.092 273.597C403.137 286.052 415.076 294.521 427.758 292.513Z" fill="#43D992"/>
<path d="M422.375 267.811L413.133 271.127L422.375 274.43V277.84L409.207 272.902V269.375L422.375 264.437V267.811Z" fill="#F9FBFC"/>
<path d="M425.392 264.425L438.561 269.363V272.89L425.392 277.828V274.419L434.634 271.115L425.392 267.799V264.425Z" fill="#F9FBFC"/>
<path d="M248.886 160.458H168.342V164.432H248.886V160.458Z" fill="#242D34"/>
<path d="M204.843 160.458H168.342V164.432H204.843V160.458Z" fill="#43D992"/>
<path d="M248.886 170.734H168.342V174.708H248.886V170.734Z" fill="#242D34"/>
<path d="M224.416 170.734H168.342V174.708H224.416V170.734Z" fill="#F2B705"/>
<path d="M248.886 181.01H168.342V184.983H248.886V181.01Z" fill="#242D34"/>
<path d="M184.767 181.01H168.342V184.983H184.767V181.01Z" fill="#43D992"/>
<path d="M170.257 153.498H168.677V155.05H170.257V153.498Z" fill="#43D992"/>
<path d="M175.657 153.498H174.076V155.05H175.657V153.498Z" fill="#43D992"/>
<path d="M181.056 153.498H179.475V155.05H181.056V153.498Z" fill="#43D992"/>
<path d="M321.181 207.674H318.559V210.249H321.181V207.674Z" fill="white"/>
<path d="M330.172 207.674H327.55V210.249H330.172V207.674Z" fill="white"/>
<path d="M339.174 207.674H336.552V210.249H339.174V207.674Z" fill="white"/>
<path d="M361.357 105.236H356.437V110.068H361.357V105.236Z" fill="white"/>
<path d="M378.237 105.236H373.316V110.068H378.237V105.236Z" fill="white"/>
<path d="M395.104 105.236H390.184V110.068H395.104V105.236Z" fill="white"/>
<path d="M291.612 304.975H286.691V309.807H291.612V304.975Z" fill="white"/>
<path d="M308.491 304.975H303.571V309.807H308.491V304.975Z" fill="white"/>
<path d="M325.359 304.975H320.439V309.807H325.359V304.975Z" fill="white"/>
<path d="M82.8422 171.146H80.2205V173.72H82.8422V171.146Z" fill="white"/>
<path d="M91.8446 171.146H89.2229V173.72H91.8446V171.146Z" fill="white"/>
<path d="M100.835 171.146H98.2134V173.72H100.835V171.146Z" fill="white"/>
<path d="M448.221 167.971H404.574V172.168H448.221V167.971Z" fill="white"/>
<path d="M417.527 175.378H404.574V179.575H417.527V175.378Z" fill="#242D34"/>
<path d="M52.4709 176.589H43.0254V167.313H34.2504V176.589H24.793V185.207H34.2504V194.483H43.0254V185.207H52.4709V176.589Z" fill="#43D992"/>
<path d="M27.1871 202.443H21.4168V196.787H16.0776V202.443H10.3074V207.698H16.0776V213.353H21.4168V207.698H27.1871V202.443Z" fill="#43D992"/>
<path d="M184.886 197.505C181.965 197.507 179.11 198.36 176.682 199.955C174.255 201.551 172.363 203.818 171.247 206.469C170.131 209.12 169.84 212.037 170.411 214.85C170.982 217.664 172.39 220.248 174.457 222.275C176.523 224.303 179.156 225.684 182.021 226.243C184.886 226.802 187.856 226.514 190.555 225.415C193.253 224.317 195.56 222.457 197.182 220.072C198.805 217.686 199.671 214.881 199.671 212.013C199.673 210.106 199.291 208.218 198.549 206.456C197.806 204.694 196.717 203.094 195.344 201.746C193.97 200.399 192.34 199.33 190.545 198.602C188.751 197.875 186.828 197.501 184.886 197.505ZM184.886 219.572C183.364 219.572 181.876 219.129 180.61 218.298C179.344 217.468 178.357 216.287 177.775 214.906C177.192 213.524 177.04 212.004 177.337 210.538C177.634 209.071 178.367 207.724 179.443 206.667C180.52 205.61 181.892 204.89 183.385 204.598C184.878 204.306 186.426 204.456 187.832 205.028C189.239 205.601 190.441 206.569 191.287 207.813C192.133 209.056 192.584 210.517 192.584 212.013C192.584 214.018 191.773 215.94 190.33 217.358C188.886 218.776 186.928 219.572 184.886 219.572Z" fill="#242D34"/>
<path d="M174.831 210.578C175.5 210.571 176.154 210.38 176.719 210.027C177.284 209.674 177.737 209.172 178.027 208.58C178.671 207.337 179.653 206.293 180.864 205.565C182.074 204.836 183.466 204.45 184.886 204.45C186.306 204.45 187.699 204.836 188.909 205.565C190.12 206.293 191.102 207.337 191.746 208.58C192.036 209.172 192.489 209.674 193.054 210.027C193.619 210.38 194.273 210.571 194.942 210.578C195.533 210.567 196.111 210.413 196.626 210.129C197.141 209.846 197.577 209.442 197.896 208.954C198.214 208.466 198.405 207.908 198.452 207.33C198.498 206.752 198.399 206.172 198.163 205.64C196.946 203.201 195.056 201.146 192.709 199.709C190.363 198.272 187.652 197.51 184.886 197.51C182.121 197.51 179.41 198.272 177.063 199.709C174.717 201.146 172.827 203.201 171.61 205.64C171.374 206.172 171.275 206.752 171.321 207.33C171.368 207.908 171.559 208.466 171.877 208.954C172.196 209.442 172.632 209.846 173.147 210.129C173.662 210.413 174.24 210.567 174.831 210.578Z" fill="#43D992"/>
<path d="M209.703 212.013C209.701 214.885 210.566 217.693 212.189 220.083C213.812 222.472 216.12 224.335 218.822 225.435C221.523 226.536 224.496 226.825 227.365 226.267C230.234 225.708 232.869 224.326 234.938 222.296C237.007 220.265 238.416 217.678 238.988 214.861C239.559 212.044 239.267 209.124 238.148 206.471C237.03 203.817 235.135 201.548 232.703 199.952C230.271 198.356 227.412 197.505 224.488 197.505C220.569 197.505 216.81 199.033 214.038 201.753C211.265 204.474 209.706 208.164 209.703 212.013ZM232.185 212.013C232.185 213.508 231.734 214.969 230.888 216.213C230.042 217.456 228.84 218.425 227.434 218.997C226.027 219.569 224.479 219.719 222.986 219.427C221.493 219.135 220.121 218.415 219.045 217.358C217.968 216.301 217.235 214.954 216.938 213.487C216.641 212.021 216.794 210.501 217.376 209.12C217.959 207.738 218.945 206.558 220.211 205.727C221.477 204.896 222.965 204.453 224.488 204.453C226.529 204.453 228.487 205.249 229.931 206.667C231.374 208.085 232.185 210.008 232.185 212.013Z" fill="#242D34"/>
<path d="M222.98 221.888C222.972 221.231 222.777 220.589 222.418 220.034C222.058 219.479 221.548 219.034 220.944 218.749C219.679 218.117 218.616 217.152 217.874 215.963C217.132 214.775 216.739 213.407 216.739 212.013C216.739 210.618 217.132 209.251 217.874 208.062C218.616 206.873 219.679 205.909 220.944 205.276C221.548 204.991 222.058 204.546 222.418 203.991C222.777 203.437 222.972 202.794 222.98 202.137C222.968 201.557 222.811 200.989 222.522 200.483C222.234 199.977 221.823 199.549 221.326 199.236C220.829 198.924 220.261 198.736 219.672 198.69C219.084 198.645 218.493 198.742 217.952 198.974C215.464 200.166 213.368 202.021 211.901 204.326C210.435 206.631 209.657 209.295 209.657 212.013C209.657 214.731 210.435 217.394 211.901 219.699C213.368 222.005 215.464 223.859 217.952 225.051C218.493 225.283 219.084 225.381 219.672 225.335C220.261 225.289 220.829 225.102 221.326 224.789C221.823 224.476 222.234 224.048 222.522 223.542C222.811 223.036 222.968 222.468 222.98 221.888Z" fill="#43D992"/>
<path d="M142.687 154.721H115.692V218.361H142.687V154.721Z" stroke="#289DF2" stroke-width="1.13" stroke-miterlimit="10"/>
<path d="M127.388 166.984H119.51V169.264H127.388V166.984Z" fill="#43D992"/>
<path d="M127.388 172.074H119.51V174.355H127.388V172.074Z" fill="#43D992"/>
<path d="M127.388 177.177H119.51V179.458H127.388V177.177Z" fill="#43D992"/>
<path d="M127.388 203.689H119.51V205.97H127.388V203.689Z" fill="#43D992"/>
<path d="M130.979 184.654H119.51V186.935H130.979V184.654Z" fill="#1AE5FF"/>
<path d="M130.979 189.757H119.51V192.038H130.979V189.757Z" fill="white"/>
<path d="M130.979 194.848H119.51V197.128H130.979V194.848Z" fill="white"/>
<path d="M53.1532 234.257H18.9509V267.846H53.1532V234.257Z" fill="#F2B705"/>
<path d="M35.1481 242.216H0.945801V275.806H35.1481V242.216Z" stroke="#43D992" stroke-width="1.13" stroke-miterlimit="10"/>
<path d="M440.129 331.475H425.727V345.618H440.129V331.475Z" stroke="#43D992" stroke-width="1.13" stroke-miterlimit="10"/>
<path d="M252.932 309.16H265.083L271.835 315.791H342.023L352.821 305.186H390.627" stroke="#43D992" stroke-width="1.13" stroke-miterlimit="10"/>
<path d="M249.388 312.805C251.345 312.805 252.932 311.247 252.932 309.325C252.932 307.403 251.345 305.845 249.388 305.845C247.431 305.845 245.845 307.403 245.845 309.325C245.845 311.247 247.431 312.805 249.388 312.805Z" stroke="#43D992" stroke-width="1.13" stroke-miterlimit="10"/>
<path d="M394.278 308.502C396.235 308.502 397.822 306.944 397.822 305.022C397.822 303.1 396.235 301.542 394.278 301.542C392.321 301.542 390.735 303.1 390.735 305.022C390.735 306.944 392.321 308.502 394.278 308.502Z" stroke="#43D992" stroke-width="1.13" stroke-miterlimit="10"/>
<path d="M26.1456 294.358C26.1456 295.232 25.8816 296.087 25.387 296.814C24.8924 297.541 24.1894 298.108 23.3669 298.442C22.5444 298.777 21.6393 298.864 20.7662 298.694C19.893 298.523 19.091 298.102 18.4615 297.484C17.8319 296.866 17.4032 296.078 17.2296 295.221C17.0559 294.363 17.145 293.474 17.4857 292.666C17.8264 291.859 18.4033 291.168 19.1436 290.682C19.8838 290.197 20.7541 289.938 21.6443 289.938C22.8381 289.938 23.983 290.403 24.8272 291.232C25.6713 292.061 26.1456 293.186 26.1456 294.358Z" fill="#F2B705"/>
<path d="M46.8442 310.7C46.8442 312.23 46.3822 313.726 45.5167 314.998C44.6511 316.27 43.4209 317.262 41.9815 317.848C40.5421 318.433 38.9583 318.586 37.4303 318.288C35.9022 317.989 34.4987 317.252 33.397 316.171C32.2954 315.089 31.5451 313.71 31.2412 312.21C30.9373 310.709 31.0933 309.153 31.6895 307.74C32.2857 306.326 33.2953 305.118 34.5907 304.268C35.8861 303.418 37.4091 302.964 38.967 302.964C41.0562 302.964 43.0598 303.779 44.537 305.23C46.0143 306.681 46.8442 308.649 46.8442 310.7Z" fill="#F2B705"/>
<path d="M315.028 336.777H283.531V343.843H315.028V336.777Z" stroke="#43D992" stroke-width="1.13" stroke-miterlimit="10"/>
<path d="M352.606 350.039H283.531V357.105H352.606V350.039Z" stroke="#43D992" stroke-width="1.13" stroke-miterlimit="10"/>
<path d="M90.5757 343.549L82.938 351.05" stroke="#43D992" stroke-width="1.13" stroke-linecap="round" stroke-linejoin="round"/>
<path d="M97.9141 343.549L90.2764 351.05" stroke="#43D992" stroke-width="1.13" stroke-linecap="round" stroke-linejoin="round"/>
<path d="M105.253 343.549L97.615 351.05" stroke="#43D992" stroke-width="1.13" stroke-linecap="round" stroke-linejoin="round"/>
<path d="M112.591 343.549L104.953 351.05" stroke="#43D992" stroke-width="1.13" stroke-linecap="round" stroke-linejoin="round"/>
<path d="M119.93 343.549L112.304 351.05" stroke="#43D992" stroke-width="1.13" stroke-linecap="round" stroke-linejoin="round"/>
</svg>
