<svg width="760" height="554" viewBox="0 0 760 554" fill="none" xmlns="http://www.w3.org/2000/svg">
<path d="M449.849 10.2916H269.151C245.574 10.2916 226.461 29.4419 226.461 53.0649V482.541C226.461 506.164 245.574 525.315 269.151 525.315H449.849C473.426 525.315 492.539 506.164 492.539 482.541V53.0649C492.539 29.4419 473.426 10.2916 449.849 10.2916Z" fill="#43D992"/>
<path d="M450.169 14.7992H268.831C248.18 14.7992 231.44 31.5725 231.44 52.2634V480.518C231.44 501.209 248.18 517.982 268.831 517.982H450.169C470.82 517.982 487.56 501.209 487.56 480.518V52.2634C487.56 31.5725 470.82 14.7992 450.169 14.7992Z" fill="white"/>
<path opacity="0.14" d="M476.343 41.9257V488.691C476.338 493.716 474.343 498.534 470.797 502.087C467.25 505.64 462.442 507.639 457.427 507.644H261.573C256.554 507.644 251.741 505.648 248.19 502.094C244.64 498.54 242.642 493.72 242.637 488.691V41.9257C242.629 39.4292 243.113 36.9556 244.061 34.6468C245.009 32.338 246.403 30.2394 248.162 28.4712C249.921 26.7031 252.011 25.3002 254.312 24.343C256.614 23.3858 259.081 22.8931 261.573 22.8931H294.225C295.115 22.8939 295.987 23.1437 296.743 23.6145C297.5 24.0853 298.109 24.7583 298.504 25.5577L301.963 32.4895C302.741 34.0546 303.939 35.3713 305.422 36.2915C306.906 37.2118 308.616 37.699 310.361 37.6985H408.599C410.344 37.7013 412.055 37.215 413.539 36.2946C415.023 35.3741 416.221 34.0561 416.997 32.4895L420.456 25.5577C420.852 24.7552 421.465 24.0802 422.225 23.6092C422.985 23.1382 423.861 22.8901 424.755 22.8931H457.527C462.539 22.9249 467.333 24.946 470.86 28.5136C474.387 32.0812 476.359 36.9042 476.343 41.9257V41.9257Z" fill="#515659"/>
<path d="M400.74 29.6446H321.559C321.121 29.6446 320.688 29.558 320.284 29.3896C319.88 29.2212 319.513 28.9744 319.205 28.6635C318.896 28.3525 318.652 27.9836 318.486 27.5777C318.321 27.1719 318.237 26.7373 318.239 26.2989V26.2989C318.229 25.8555 318.307 25.4144 318.469 25.0016C318.631 24.5888 318.874 24.2127 319.183 23.8953C319.492 23.5779 319.862 23.3258 320.27 23.1537C320.678 22.9815 321.116 22.8929 321.559 22.8931H400.74C401.178 22.8931 401.611 22.9797 402.015 23.1481C402.419 23.3165 402.786 23.5633 403.095 23.8742C403.403 24.1852 403.647 24.5541 403.813 24.96C403.978 25.3658 404.062 25.8004 404.06 26.2388V26.2388C404.07 26.6822 403.992 27.1233 403.83 27.5361C403.668 27.9489 403.425 28.325 403.116 28.6424C402.807 28.9598 402.437 29.2119 402.029 29.384C401.621 29.5562 401.183 29.6448 400.74 29.6446V29.6446Z" fill="#DEE3FC"/>
<path d="M441.031 404.647H273.41C264.156 404.647 256.654 412.164 256.654 421.436V475.248C256.654 484.521 264.156 492.037 273.41 492.037H441.031C450.285 492.037 457.787 484.521 457.787 475.248V421.436C457.787 412.164 450.285 404.647 441.031 404.647Z" stroke="#43D992" stroke-linecap="round" stroke-linejoin="round" stroke-dasharray="2.84 2.84"/>
<path d="M433.293 216.224H352.032C345.362 216.224 339.955 221.642 339.955 228.325V265.489C339.955 272.172 345.362 277.589 352.032 277.589H433.293C439.963 277.589 445.37 272.172 445.37 265.489V228.325C445.37 221.642 439.963 216.224 433.293 216.224Z" stroke="#3FBC7D" stroke-linecap="round" stroke-linejoin="round" stroke-dasharray="2.84 2.84"/>
<path d="M451.509 292.315H278.369C270.418 292.315 263.972 298.773 263.972 306.74V375.698C263.972 383.664 270.418 390.123 278.369 390.123H451.509C459.46 390.123 465.905 383.664 465.905 375.698V306.74C465.905 298.773 459.46 292.315 451.509 292.315Z" fill="#3C4042"/>
<path d="M457.787 295.16V371.49C457.787 372.902 457.509 374.3 456.969 375.604C456.43 376.909 455.638 378.093 454.641 379.091C453.644 380.088 452.46 380.879 451.157 381.417C449.855 381.956 448.459 382.231 447.05 382.229H267.411C266.001 382.234 264.603 381.96 263.298 381.423C261.993 380.886 260.806 380.095 259.807 379.098C258.808 378.1 258.015 376.915 257.473 375.609C256.932 374.304 256.654 372.904 256.654 371.49V295.16C256.654 293.745 256.932 292.344 257.473 291.038C258.014 289.731 258.807 288.544 259.806 287.545C260.805 286.546 261.991 285.754 263.296 285.214C264.601 284.675 266 284.399 267.411 284.401H447.05C449.897 284.401 452.628 285.535 454.642 287.552C456.656 289.57 457.787 292.306 457.787 295.16Z" fill="#515659"/>
<path d="M323.678 306.659H275.669C270.302 306.659 265.952 311.019 265.952 316.396V364.498C265.952 369.876 270.302 374.235 275.669 374.235H323.678C329.045 374.235 333.396 369.876 333.396 364.498V316.396C333.396 311.019 329.045 306.659 323.678 306.659Z" fill="white"/>
<path d="M388.863 315.214H342.254C341.951 315.217 341.651 315.159 341.371 315.044C341.091 314.929 340.836 314.76 340.622 314.545C340.408 314.331 340.239 314.076 340.124 313.795C340.01 313.514 339.952 313.213 339.955 312.91C339.955 312.608 340.014 312.31 340.13 312.031C340.246 311.753 340.416 311.5 340.629 311.288C340.843 311.076 341.097 310.908 341.376 310.794C341.655 310.681 341.953 310.624 342.254 310.626H388.863C389.47 310.626 390.052 310.866 390.482 311.294C390.913 311.722 391.158 312.303 391.163 312.91V312.91C391.163 313.521 390.921 314.107 390.489 314.539C390.058 314.971 389.473 315.214 388.863 315.214V315.214Z" fill="white"/>
<path d="M367.548 324.39H342.254C341.953 324.392 341.654 324.335 341.375 324.222C341.097 324.108 340.843 323.94 340.629 323.728C340.415 323.516 340.246 323.263 340.13 322.985C340.014 322.706 339.954 322.408 339.954 322.106V322.106C339.952 321.803 340.009 321.502 340.124 321.221C340.239 320.94 340.408 320.685 340.622 320.471C340.836 320.256 341.091 320.087 341.371 319.972C341.651 319.857 341.951 319.799 342.254 319.802H367.548C367.849 319.802 368.147 319.862 368.425 319.978C368.703 320.094 368.955 320.264 369.167 320.478C369.379 320.692 369.546 320.946 369.66 321.226C369.773 321.505 369.83 321.804 369.827 322.106C369.827 322.712 369.587 323.293 369.16 323.721C368.732 324.149 368.153 324.39 367.548 324.39V324.39Z" fill="white"/>
<path d="M445.53 324.39H376.946C376.342 324.39 375.762 324.149 375.334 323.721C374.907 323.292 374.667 322.712 374.667 322.106V322.106C374.664 321.804 374.721 321.505 374.834 321.226C374.948 320.946 375.115 320.692 375.327 320.478C375.539 320.264 375.791 320.094 376.069 319.978C376.347 319.862 376.645 319.802 376.946 319.802H445.53C445.831 319.802 446.129 319.862 446.407 319.978C446.685 320.094 446.937 320.264 447.149 320.478C447.361 320.692 447.528 320.946 447.642 321.226C447.755 321.505 447.812 321.804 447.81 322.106V322.106C447.81 322.712 447.569 323.292 447.142 323.721C446.714 324.149 446.135 324.39 445.53 324.39V324.39Z" fill="white"/>
<path d="M381.545 333.586H342.254C341.644 333.586 341.059 333.343 340.628 332.911C340.197 332.479 339.954 331.893 339.954 331.282V331.282C339.952 330.978 340.009 330.677 340.124 330.397C340.239 330.116 340.408 329.861 340.622 329.646C340.836 329.432 341.091 329.262 341.371 329.148C341.651 329.033 341.951 328.975 342.254 328.978H381.545C382.155 328.978 382.739 329.22 383.171 329.652C383.602 330.084 383.844 330.67 383.844 331.282V331.282C383.839 331.891 383.595 332.474 383.165 332.905C382.735 333.336 382.153 333.58 381.545 333.586Z" fill="white"/>
<path d="M414.817 333.585H390.143C389.534 333.58 388.953 333.336 388.523 332.905C388.092 332.474 387.848 331.891 387.843 331.281V331.281C387.843 330.67 388.086 330.084 388.517 329.652C388.948 329.22 389.533 328.978 390.143 328.978H414.817C415.427 328.978 416.012 329.22 416.443 329.652C416.874 330.084 417.117 330.67 417.117 331.281V331.281C417.111 331.891 416.867 332.474 416.437 332.905C416.007 333.336 415.425 333.58 414.817 333.585Z" fill="white"/>
<path d="M445.53 333.585H422.875C422.267 333.58 421.685 333.336 421.255 332.905C420.825 332.474 420.581 331.891 420.576 331.281V331.281C420.576 330.67 420.818 330.084 421.249 329.652C421.68 329.22 422.265 328.978 422.875 328.978H445.53C445.831 328.978 446.129 329.037 446.407 329.153C446.685 329.269 446.937 329.439 447.149 329.654C447.361 329.868 447.528 330.122 447.642 330.401C447.755 330.681 447.812 330.98 447.809 331.281V331.281C447.81 331.889 447.57 332.472 447.143 332.904C446.716 333.335 446.136 333.58 445.53 333.585V333.585Z" fill="white"/>
<path d="M445.53 342.761H342.254C341.644 342.761 341.059 342.519 340.628 342.086C340.197 341.654 339.955 341.068 339.955 340.457V340.457C339.955 339.846 340.197 339.26 340.628 338.828C341.059 338.396 341.644 338.153 342.254 338.153H445.53C446.136 338.159 446.716 338.404 447.143 338.835C447.57 339.267 447.81 339.85 447.81 340.457V340.457C447.81 341.065 447.57 341.648 447.143 342.079C446.716 342.511 446.136 342.756 445.53 342.761V342.761Z" fill="white"/>
<path d="M399.141 351.937H342.254C341.951 351.94 341.651 351.882 341.371 351.767C341.091 351.652 340.836 351.483 340.622 351.268C340.408 351.054 340.239 350.799 340.124 350.518C340.01 350.237 339.952 349.936 339.955 349.633C339.955 349.022 340.197 348.436 340.628 348.004C341.059 347.572 341.644 347.329 342.254 347.329H399.141C399.747 347.334 400.327 347.579 400.754 348.011C401.181 348.442 401.42 349.025 401.42 349.633V349.633C401.423 349.935 401.366 350.234 401.253 350.513C401.139 350.793 400.972 351.047 400.76 351.261C400.548 351.475 400.296 351.645 400.018 351.761C399.74 351.877 399.442 351.937 399.141 351.937V351.937Z" fill="white"/>
<path d="M445.53 351.937H408.299C407.689 351.937 407.104 351.694 406.673 351.262C406.242 350.83 405.999 350.244 405.999 349.633V349.633C406.004 349.024 406.248 348.441 406.678 348.01C407.109 347.579 407.69 347.334 408.299 347.329H445.53C446.136 347.334 446.716 347.579 447.143 348.011C447.57 348.442 447.809 349.025 447.809 349.633V349.633C447.812 349.935 447.755 350.234 447.642 350.513C447.528 350.793 447.361 351.047 447.149 351.261C446.937 351.475 446.685 351.645 446.407 351.761C446.129 351.877 445.831 351.937 445.53 351.937V351.937Z" fill="white"/>
<path d="M375.666 361.113H342.254C341.951 361.115 341.651 361.058 341.371 360.943C341.091 360.828 340.836 360.658 340.622 360.444C340.408 360.229 340.239 359.974 340.124 359.694C340.009 359.413 339.952 359.112 339.954 358.809V358.809C339.954 358.507 340.014 358.208 340.13 357.93C340.246 357.652 340.415 357.399 340.629 357.187C340.843 356.974 341.097 356.806 341.375 356.693C341.654 356.579 341.953 356.522 342.254 356.525H375.666C375.967 356.522 376.266 356.579 376.545 356.693C376.823 356.806 377.077 356.974 377.291 357.187C377.505 357.399 377.674 357.652 377.79 357.93C377.906 358.208 377.966 358.507 377.966 358.809V358.809C377.968 359.112 377.911 359.413 377.796 359.694C377.681 359.974 377.512 360.229 377.298 360.444C377.084 360.658 376.829 360.828 376.549 360.943C376.269 361.058 375.969 361.115 375.666 361.113V361.113Z" fill="white"/>
<path d="M418.136 361.113H384.724C384.421 361.115 384.121 361.058 383.841 360.943C383.561 360.828 383.306 360.658 383.092 360.444C382.878 360.229 382.709 359.974 382.594 359.694C382.48 359.413 382.422 359.112 382.425 358.809V358.809C382.425 358.507 382.484 358.208 382.6 357.93C382.716 357.652 382.886 357.399 383.099 357.187C383.313 356.974 383.567 356.806 383.846 356.693C384.125 356.579 384.423 356.522 384.724 356.525H418.136C418.743 356.525 419.325 356.765 419.755 357.192C420.186 357.62 420.431 358.201 420.436 358.809V358.809C420.436 359.42 420.194 360.006 419.762 360.438C419.331 360.87 418.746 361.113 418.136 361.113V361.113Z" fill="white"/>
<path d="M445.53 361.113H426.134C425.832 361.115 425.532 361.058 425.251 360.943C424.971 360.828 424.717 360.658 424.503 360.444C424.289 360.229 424.119 359.974 424.005 359.694C423.89 359.413 423.832 359.112 423.835 358.809C423.835 358.507 423.895 358.208 424.01 357.93C424.126 357.652 424.296 357.399 424.51 357.187C424.724 356.974 424.977 356.806 425.256 356.693C425.535 356.579 425.833 356.522 426.134 356.525H445.53C446.135 356.525 446.714 356.765 447.142 357.194C447.569 357.622 447.809 358.203 447.809 358.809C447.812 359.11 447.755 359.409 447.642 359.689C447.528 359.968 447.361 360.222 447.149 360.437C446.937 360.651 446.685 360.821 446.407 360.937C446.129 361.053 445.831 361.113 445.53 361.113V361.113Z" fill="white"/>
<path d="M388.863 370.288H342.254C341.953 370.291 341.655 370.234 341.376 370.12C341.097 370.007 340.843 369.839 340.629 369.627C340.416 369.414 340.246 369.162 340.13 368.883C340.014 368.605 339.955 368.306 339.955 368.004V368.004C339.952 367.701 340.01 367.4 340.124 367.12C340.239 366.839 340.408 366.584 340.622 366.369C340.836 366.155 341.091 365.985 341.371 365.87C341.651 365.756 341.951 365.698 342.254 365.701H388.863C389.473 365.701 390.058 365.943 390.489 366.375C390.921 366.807 391.163 367.393 391.163 368.004V368.004C391.158 368.612 390.913 369.193 390.482 369.621C390.052 370.048 389.47 370.288 388.863 370.288Z" fill="white"/>
<path d="M445.53 315.214H399.001C398.698 315.217 398.398 315.159 398.118 315.044C397.837 314.929 397.583 314.76 397.369 314.545C397.155 314.331 396.986 314.076 396.871 313.795C396.756 313.514 396.699 313.213 396.701 312.91V312.91C396.701 312.608 396.761 312.31 396.877 312.031C396.992 311.753 397.162 311.5 397.376 311.288C397.59 311.076 397.843 310.908 398.122 310.794C398.401 310.681 398.7 310.624 399.001 310.626H445.53C446.135 310.626 446.714 310.867 447.142 311.295C447.569 311.723 447.809 312.304 447.809 312.91C447.812 313.212 447.755 313.511 447.642 313.79C447.528 314.07 447.361 314.324 447.149 314.538C446.937 314.752 446.685 314.922 446.407 315.038C446.129 315.154 445.831 315.214 445.53 315.214Z" fill="white"/>
<path d="M457.787 295.16V298.365H256.654V295.16C256.654 293.745 256.932 292.344 257.473 291.038C258.014 289.731 258.807 288.544 259.806 287.545C260.805 286.546 261.991 285.754 263.296 285.214C264.601 284.675 266 284.399 267.411 284.401H447.05C449.897 284.401 452.628 285.535 454.642 287.552C456.656 289.57 457.787 292.306 457.787 295.16Z" fill="#242D34"/>
<path d="M419.876 291.634C419.876 292.129 419.729 292.613 419.455 293.025C419.18 293.437 418.79 293.758 418.333 293.947C417.876 294.137 417.374 294.186 416.889 294.09C416.404 293.993 415.959 293.755 415.609 293.404C415.26 293.054 415.022 292.608 414.925 292.122C414.829 291.636 414.878 291.133 415.067 290.675C415.257 290.218 415.577 289.826 415.988 289.551C416.399 289.276 416.882 289.129 417.377 289.129C418.039 289.129 418.675 289.393 419.144 289.863C419.613 290.332 419.876 290.969 419.876 291.634Z" fill="#242D34"/>
<path d="M432.633 291.634C432.633 292.129 432.487 292.613 432.212 293.025C431.937 293.437 431.547 293.758 431.09 293.947C430.634 294.137 430.131 294.186 429.646 294.09C429.161 293.993 428.716 293.755 428.366 293.404C428.017 293.054 427.779 292.608 427.682 292.122C427.586 291.636 427.635 291.133 427.825 290.675C428.014 290.218 428.334 289.826 428.745 289.551C429.156 289.276 429.639 289.129 430.134 289.129C430.797 289.129 431.432 289.393 431.901 289.863C432.37 290.332 432.633 290.969 432.633 291.634V291.634Z" fill="#242D34"/>
<path d="M445.37 291.634C445.37 292.13 445.223 292.615 444.947 293.027C444.672 293.439 444.28 293.76 443.822 293.949C443.364 294.138 442.861 294.186 442.375 294.088C441.89 293.99 441.445 293.749 441.096 293.397C440.747 293.045 440.511 292.597 440.417 292.11C440.323 291.623 440.375 291.119 440.567 290.661C440.759 290.204 441.083 289.814 441.496 289.542C441.91 289.269 442.395 289.125 442.891 289.129C443.55 289.135 444.181 289.401 444.645 289.87C445.109 290.339 445.37 290.973 445.37 291.634V291.634Z" fill="#242D34"/>
<path d="M315.32 216.284H282.728C274.832 216.284 268.431 222.698 268.431 230.609V263.265C268.431 271.176 274.832 277.589 282.728 277.589H315.32C323.216 277.589 329.617 271.176 329.617 263.265V230.609C329.617 222.698 323.216 216.284 315.32 216.284Z" stroke="#3FBC7D" stroke-width="0.9" stroke-miterlimit="10"/>
<path d="M289.486 238.062L280.668 246.897L289.546 255.812" stroke="#3FBC7D" stroke-width="1.67" stroke-linecap="round" stroke-linejoin="round"/>
<path d="M308.562 238.062L317.38 246.897L308.502 255.812" stroke="#3FBC7D" stroke-width="1.67" stroke-linecap="round" stroke-linejoin="round"/>
<path d="M303.143 238.062L294.905 255.812" stroke="#3FBC7D" stroke-width="1.67" stroke-linecap="round" stroke-linejoin="round"/>
<path opacity="0.38" d="M445.55 54.4072H268.891C262.133 54.4072 256.654 59.8967 256.654 66.6682V191.362C256.654 198.134 262.133 203.623 268.891 203.623H445.55C452.308 203.623 457.787 198.134 457.787 191.362V66.6682C457.787 59.8967 452.308 54.4072 445.55 54.4072Z" fill="#43D992"/>
<path d="M417.057 123.005C433.158 123.005 446.21 109.927 446.21 93.7944C446.21 77.6622 433.158 64.5844 417.057 64.5844C400.956 64.5844 387.903 77.6622 387.903 93.7944C387.903 109.927 400.956 123.005 417.057 123.005Z" fill="#F0F4FF"/>
<path d="M374.886 203.623H268.911C265.667 203.617 262.558 202.324 260.264 200.026C257.97 197.727 256.679 194.612 256.674 191.362V171.728L303.063 91.2301C303.615 90.2688 304.411 89.4703 305.369 88.9151C306.327 88.36 307.415 88.0676 308.522 88.0676C309.629 88.0676 310.716 88.36 311.675 88.9151C312.633 89.4703 313.428 90.2688 313.981 91.2301L348.992 152.014L374.986 197.152C375.567 198.134 375.865 199.259 375.848 200.401C375.83 201.543 375.497 202.658 374.886 203.623V203.623Z" fill="white"/>
<path d="M420.596 203.623H319.239L348.972 152.014L364.969 124.186C365.464 123.321 366.179 122.601 367.041 122.101C367.903 121.601 368.881 121.337 369.878 121.337C370.874 121.337 371.852 121.601 372.714 122.101C373.576 122.601 374.291 123.321 374.786 124.186L420.596 203.623Z" fill="#F0F4FF"/>
<path d="M621.649 435.36H543.507V553.022H621.649V435.36Z" fill="#0D0D0D"/>
<path d="M621.669 553.042H651.582V435.38H621.669V553.042Z" fill="#3C4042"/>
<path d="M647.903 439.888H625.928V443.634H647.903V439.888Z" fill="white"/>
<path d="M647.903 447.962H625.928V451.708H647.903V447.962Z" fill="white"/>
<path d="M647.903 456.015H625.928V459.762H647.903V456.015Z" fill="white"/>
<path d="M647.903 464.089H625.928V467.836H647.903V464.089Z" fill="white"/>
<path d="M647.903 472.163H625.928V475.909H647.903V472.163Z" fill="white"/>
<path d="M647.903 480.217H625.928V483.963H647.903V480.217Z" fill="white"/>
<path d="M647.903 488.291H625.928V492.037H647.903V488.291Z" fill="white"/>
<path d="M647.903 496.364H625.928V500.111H647.903V496.364Z" fill="white"/>
<path d="M647.903 504.418H625.928V508.165H647.903V504.418Z" fill="white"/>
<path d="M647.903 512.492H625.928V516.239H647.903V512.492Z" fill="white"/>
<path d="M647.903 520.566H625.928V524.313H647.903V520.566Z" fill="white"/>
<path d="M647.903 528.62H625.928V532.366H647.903V528.62Z" fill="white"/>
<path d="M647.903 536.694H625.928V540.44H647.903V536.694Z" fill="white"/>
<path d="M647.903 544.768H625.928V548.514H647.903V544.768Z" fill="white"/>
<path d="M530.81 553.042H570.521C571.716 547.617 570.793 541.939 567.941 537.175C567.941 537.175 564.742 539.739 555.164 537.996C553.068 539.791 550.805 541.381 548.406 542.744C545.627 544.086 529.75 547.212 530.81 553.042Z" fill="#515659"/>
<path d="M533.51 440.829C536.069 456.176 547.906 508.045 552.985 538.697C558.37 539.377 563.833 539.099 569.121 537.876C568.661 527.197 567.742 501.634 567.842 490.414C568.022 471.462 568.921 446.479 560.583 432.775L532.59 434.979C532.77 436.462 532.93 437.664 533.07 438.525C533.21 439.387 533.51 440.108 533.51 440.829Z" fill="#43D992"/>
<path d="M458.967 553.042H498.698C499.891 547.614 498.961 541.935 496.098 537.175C496.098 537.175 492.899 539.739 483.321 537.996C481.233 539.793 478.977 541.383 476.583 542.744C473.803 544.086 457.907 547.212 458.967 553.042Z" fill="#515659"/>
<path d="M482.181 537.775C487.287 539.146 492.591 539.62 497.858 539.178C499.977 526.857 503.317 499.75 506.316 487.089C510.975 467.355 515.534 440.188 512.314 430.492L484.821 423.58C484.741 424.421 482.501 507.544 482.181 537.775Z" fill="#3FBC7D"/>
<path d="M591.776 395.271C591.216 389.822 590.576 385.835 590.576 385.835L559.823 393.368L533.689 399.378C523.992 401.542 512.294 404.146 501.977 406.49C490.4 409.115 482.701 417.93 485.241 429.55L488.14 443.574C504.336 443.354 580.479 436.041 586.997 432.755C594.335 429.049 596.555 415.887 591.776 395.271Z" fill="#3FBC7D"/>
<path d="M637.686 395.271C637.152 391.373 636.075 387.57 634.486 383.972L605.733 393.368L579.599 399.378C569.921 401.542 558.224 404.146 547.906 406.49C536.309 409.115 528.631 417.93 531.17 429.55L534.07 443.574C550.266 443.354 618.05 440.99 632.907 432.755C640.145 428.789 642.484 415.887 637.686 395.271Z" fill="#43D992"/>
<path d="M551.506 351.096C551.506 351.096 565.162 344.905 568.922 351.096C570.921 354.481 569.561 360.792 564.923 363.437C560.284 366.081 533.93 377.24 509.075 383.471C508.301 381.043 507.373 378.668 506.296 376.359C514.094 372.955 521.541 368.794 528.531 363.938C535.779 358.942 543.477 354.635 551.526 351.076L551.506 351.096Z" fill="#E5918F"/>
<path d="M555.005 308.342L543.287 355.203C543.287 355.203 544.507 367.043 556.444 361.213C568.382 355.383 576.3 318.059 576.3 318.059L555.005 308.342Z" fill="#E5918F"/>
<path d="M574.82 334.547C573.36 334.207 571.98 333.806 570.641 333.405C569.301 333.005 567.981 332.604 566.742 332.163C560.653 330.205 554.881 327.371 549.606 323.749C551.915 312.53 555.771 301.687 561.063 291.533L561.363 291.033L561.663 290.532C563.77 287.174 566.539 284.284 569.801 282.037L570.781 281.356L572.16 305.818L572.4 308.342L574.82 334.547Z" fill="white"/>
<path d="M574.82 334.547C573.361 334.206 571.981 333.806 570.641 333.405C569.301 333.004 567.982 332.604 566.742 332.163C569.081 315.675 571.201 305.317 571.201 305.317L572.401 308.342L574.82 334.547Z" fill="#C7E5F2"/>
<path d="M643.944 292.235C643.664 299.487 642.404 311.107 641.304 322.807C640.945 326.493 640.625 330.22 640.325 333.806C640.125 336.05 636.766 347.99 636.626 350.114C636.026 360.331 631.047 367.984 635.766 383.531C636.596 385.837 637.075 388.255 637.185 390.703C637.185 391.785 635.806 392.907 635.186 393.208C631.819 394.636 628.237 395.489 624.588 395.732V395.732C614.802 396.717 604.97 397.171 595.135 397.094C584.958 397.094 569.681 395.472 567.742 392.907C565.802 390.343 567.602 387.117 568.441 382.409C572.201 361.093 570.861 349.974 570.621 334.587C570.621 334.207 570.621 333.806 570.621 333.405C570.241 309.685 568.621 289.33 569.781 282.037L570.761 281.356C572.38 280.254 573.96 279.353 575.5 278.391L575.96 278.13L577.359 277.369L577.899 277.089C581.604 275.394 585.395 273.896 589.257 272.601L590.236 272.28C592.956 272.12 595.895 272.1 599.074 272.28C601.854 272.28 606.073 272.721 610.672 273.322C615.86 273.95 621.003 274.914 626.068 276.207V276.207C630.719 278.042 634.871 280.953 638.185 284.702C640.388 286.982 642.321 289.509 643.944 292.235V292.235Z" fill="white"/>
<path d="M635.766 383.511C636.596 385.817 637.075 388.235 637.185 390.683C637.185 391.765 635.806 392.887 635.186 393.188C631.819 394.616 628.237 395.469 624.588 395.712C625.948 395.314 627.167 394.538 628.105 393.474C629.043 392.411 629.661 391.103 629.887 389.702C629.887 387.698 627.368 374.516 628.068 365.981C628.767 357.446 630.067 343.943 627.508 333.085C624.948 322.226 622.389 307.962 622.389 307.962L637.225 316.937C637.225 316.937 639.225 319.622 641.224 322.947C640.864 326.634 640.545 330.36 640.245 333.946C640.125 336.05 631.047 367.984 635.766 383.511Z" fill="#C7E5F2"/>
<path d="M570.461 229.507C570.461 229.507 571.761 245.054 576.899 246.116C582.038 247.177 580.779 240.546 580.779 240.546L580.059 233.153L570.461 229.507Z" fill="#002C54"/>
<path d="M594.196 285.884C584.198 284.682 587.897 274.865 589.277 272.601C589.637 272.481 591.376 271.96 591.516 271.88C591.876 271.57 592.145 271.168 592.296 270.718C592.91 268.093 593.079 265.384 592.796 262.704V261.782C592.976 261.161 593.136 260.58 593.276 260.019L598.575 255.852L609.772 247.017C609.772 247.017 606.793 261.802 609.192 271.058C609.281 271.508 609.457 271.936 609.711 272.318C609.965 272.699 610.291 273.027 610.672 273.282C610.672 273.282 610.672 273.282 610.672 273.282C611.008 273.502 611.392 273.639 611.792 273.683C614.571 274.925 610.752 287.847 594.196 285.884Z" fill="#E5918F"/>
<path d="M603.094 256.293C602.849 259.47 601.705 262.51 599.796 265.058C597.887 267.606 595.292 269.555 592.316 270.678C592.947 268.056 593.116 265.344 592.816 262.664L597.295 259.138L603.094 256.293Z" fill="#CC6362"/>
<path d="M572.94 231.731C572.94 231.731 575.26 263.986 583.958 266.731C587.68 266.811 591.365 265.97 594.686 264.282C598.006 262.594 600.86 260.111 602.993 257.054C605.293 253.969 608.192 253.268 609.132 249.541C610.672 243.531 612.831 232.312 610.072 225.5C606.133 215.984 573.3 208.371 572.94 231.731Z" fill="#E5918F"/>
<path d="M610.192 220.251C610.052 214.381 604.193 212.237 604.193 212.237C598.295 209.473 586.057 210.655 573.42 213.48C570.461 214.141 566.742 212.318 564.662 213.76C562.163 215.503 564.662 223.437 564.662 223.437C569.541 238.222 587.457 233.454 592.856 231.591C594.136 235.397 593.976 240.686 597.155 243.411C598.974 244.974 602.154 245.014 605.353 244.493C605.753 245.234 607.353 245.895 607.553 246.937C608.362 251.227 608.645 255.6 608.392 259.959L609.912 259.218C610.032 258.056 625.768 220.732 610.192 220.251Z" fill="#002C54"/>
<path d="M581.858 242.589C581.812 243.344 581.553 244.07 581.112 244.684C580.671 245.297 580.066 245.773 579.367 246.057C578.668 246.34 577.902 246.42 577.16 246.286C576.417 246.153 575.727 245.811 575.17 245.302C574.613 244.792 574.211 244.135 574.011 243.406C573.811 242.677 573.821 241.906 574.039 241.182C574.257 240.459 574.676 239.812 575.246 239.316C575.815 238.821 576.514 238.497 577.259 238.382C578.421 238.349 579.55 238.769 580.408 239.554C581.266 240.339 581.786 241.427 581.858 242.589V242.589Z" stroke="white" stroke-width="0.5" stroke-miterlimit="10"/>
<path d="M592.356 240.626C592.31 241.382 592.051 242.109 591.61 242.723C591.169 243.338 590.563 243.814 589.862 244.098C589.162 244.381 588.395 244.46 587.652 244.325C586.908 244.19 586.218 243.847 585.661 243.336C585.105 242.824 584.704 242.165 584.505 241.434C584.307 240.704 584.319 239.932 584.541 239.208C584.762 238.485 585.184 237.838 585.756 237.345C586.329 236.851 587.03 236.53 587.777 236.419C588.937 236.386 590.063 236.807 590.918 237.592C591.773 238.378 592.289 239.466 592.356 240.626V240.626Z" stroke="white" stroke-width="0.5" stroke-miterlimit="10"/>
<path d="M581.858 242.589C581.858 242.589 582.318 241.848 584.738 242.049" stroke="white" stroke-width="0.5" stroke-miterlimit="10"/>
<path d="M592.456 241.267L601.434 239.825" stroke="white" stroke-width="0.5" stroke-miterlimit="10"/>
<path d="M602.094 251.284C608.272 253.669 610.212 238.402 604.333 237.741C599.874 237.22 599.694 243.451 599.694 243.451C599.694 243.451 598.554 249.902 602.094 251.284Z" fill="#E5918F"/>
<g opacity="0.5">
<path opacity="0.5" d="M604.133 239.985C603.355 241.081 602.892 242.37 602.794 243.711C602.674 244.994 602.794 246.316 602.794 247.878C602.266 247.3 601.864 246.618 601.614 245.875C601.353 245.123 601.25 244.325 601.314 243.531C601.378 242.713 601.669 241.929 602.154 241.267C602.382 240.932 602.675 240.646 603.014 240.426C603.354 240.206 603.735 240.056 604.133 239.985V239.985Z" fill="#CC6362"/>
<path opacity="0.5" d="M605.093 242.89C604.465 243.02 603.892 243.342 603.454 243.812C603.079 244.254 602.843 244.798 602.774 245.374L601.414 244.873C601.781 244.178 602.345 243.607 603.034 243.23C603.668 242.905 604.388 242.786 605.093 242.89Z" fill="#CC6362"/>
</g>
<path d="M661.58 357.266C658.861 360.431 648.543 362.735 643.584 358.348C642.024 356.965 640.265 353.299 638.545 348.731C635.2 339.199 632.337 329.503 629.967 319.682L653.062 307.861C653.062 307.861 656.041 321.204 658.601 333.906V334.247C659.44 338.253 660.22 342.26 660.82 345.746C660.828 345.833 660.828 345.92 660.82 346.007C661.507 349.718 661.762 353.496 661.58 357.266V357.266Z" fill="#E5918F"/>
<path d="M621.229 303.494C623.851 312.607 626.934 321.581 630.467 330.38C636.198 331.063 642.008 330.377 647.423 328.377C651.472 326.812 655.15 324.416 658.221 321.345C658.221 321.345 653.482 308.222 649.483 298.826C645.744 290.371 643.484 287.226 641.885 285.563C639.206 282.813 636.108 280.507 632.707 278.731L621.229 303.494Z" fill="white"/>
<path d="M650.423 309.564L636.886 303.714L626.208 276.147C626.208 276.147 628.208 276.748 630.747 277.79L631.107 277.91L631.287 278.01C633.607 279.092 642.524 284.361 648.703 303.514L648.863 303.995C649.523 306.219 650.003 308.002 650.263 308.903C650.256 308.997 650.256 309.09 650.263 309.184C650.363 309.384 650.403 309.384 650.423 309.564Z" fill="white"/>
<path d="M661.58 357.266C661.38 358.949 660.9 360.171 660.08 360.612C659.94 360.612 658.081 361.814 657.921 361.914C653.322 364.707 648.538 367.184 643.604 369.327C627.255 376.176 610.571 382.194 593.616 387.358C592.756 384.96 591.733 382.624 590.556 380.366C598.206 376.64 605.473 372.171 612.251 367.023C623.029 358.789 638.525 348.771 638.525 348.771L642.524 344.164C642.524 344.164 656.521 331.342 658.681 333.926V334.267C659.021 335.609 660.12 340.537 660.9 345.766C660.908 345.853 660.908 345.94 660.9 346.027C661.559 349.734 661.787 353.506 661.58 357.266V357.266Z" fill="#E5918F"/>
<path d="M592.156 379.504C590.498 380.459 588.57 380.832 586.677 380.566C585.138 380.245 584.518 379.604 583.398 379.404C581.468 379.19 579.569 378.753 577.739 378.102C576.26 377.36 575.74 377.28 575.74 378.783C575.74 380.285 578.739 381.588 579.539 382.008C580.323 382.547 581.001 383.226 581.538 384.012C581.538 384.172 576.62 386.797 575.26 386.276C575.049 386.88 574.993 387.528 575.1 388.159C575.32 388.84 576.36 389.081 576.44 389.421C576.52 389.762 576.2 390.443 576.44 390.984C576.68 391.525 577.579 391.525 577.959 392.406C578.339 393.288 577.959 393.288 578.199 394.209C578.439 395.131 579.639 395.291 579.859 395.752C580.079 396.213 579.959 396.774 580.439 397.114C582.738 396.839 584.983 396.217 587.097 395.271C588.757 394.57 593.096 388.199 598.035 386.035L592.156 379.504Z" fill="#E5918F"/>
<path d="M615.251 407.933H580.119V404.487H615.251C615.707 404.487 616.144 404.668 616.467 404.992C616.789 405.315 616.97 405.753 616.97 406.21V406.21C616.965 406.665 616.782 407.101 616.461 407.423C616.139 407.745 615.705 407.928 615.251 407.933V407.933Z" fill="#D89E0B"/>
<path d="M596.235 407.933H508.255C507.742 407.934 507.243 407.766 506.835 407.454C506.427 407.143 506.132 406.706 505.996 406.21L488 341.279C487.908 340.944 487.894 340.593 487.959 340.252C488.024 339.911 488.167 339.59 488.375 339.313C488.584 339.036 488.854 338.811 489.163 338.655C489.472 338.499 489.813 338.417 490.16 338.414H575.2C576.165 338.417 577.104 338.736 577.872 339.321C578.641 339.907 579.198 340.728 579.459 341.659L597.455 406.35C597.508 406.537 597.517 406.734 597.48 406.925C597.443 407.116 597.362 407.296 597.244 407.45C597.125 407.604 596.972 407.728 596.797 407.812C596.622 407.896 596.429 407.937 596.235 407.933V407.933Z" fill="#D89E0B"/>
<path d="M593.056 407.933H505.076C504.563 407.934 504.064 407.766 503.656 407.454C503.247 407.143 502.953 406.706 502.817 406.21L484.821 341.279C484.729 340.944 484.715 340.593 484.78 340.252C484.845 339.911 484.987 339.59 485.196 339.313C485.405 339.036 485.674 338.811 485.984 338.655C486.293 338.499 486.634 338.417 486.98 338.414H572.021C572.985 338.42 573.922 338.74 574.69 339.325C575.458 339.911 576.016 340.73 576.28 341.659L594.275 406.35C594.329 406.537 594.337 406.734 594.301 406.925C594.264 407.116 594.183 407.296 594.065 407.45C593.946 407.604 593.793 407.728 593.617 407.812C593.442 407.896 593.25 407.937 593.056 407.933V407.933Z" fill="#F2B705"/>
<path d="M244.497 365.981L254.674 355.503C254.781 353.593 255.09 351.699 255.594 349.853C256.307 348.083 257.213 346.397 258.294 344.825C258.992 344.622 259.734 344.622 260.433 344.825C261.082 344.604 261.752 344.45 262.433 344.364C263.073 344.459 263.694 344.655 264.272 344.945C264.272 344.945 265.792 344.825 266.432 344.825C266.717 344.792 267.006 344.856 267.251 345.005C268.397 343.673 269.619 342.408 270.911 341.218C272.09 340.277 273.91 338.514 274.45 338.534C274.99 338.554 275.19 339.435 274.81 340.377C274.278 341.311 273.603 342.156 272.81 342.881L268.171 349.913C268.59 349.747 268.998 349.552 269.391 349.332C269.811 349.072 272.65 346.427 272.81 346.307C272.97 346.187 274.25 345.366 274.99 346.207C275.73 347.048 270.131 353.78 269.231 354.682C267.317 355.991 265.313 357.163 263.232 358.188C263.232 358.188 257.794 367.984 257.234 368.625C256.674 369.267 244.497 365.981 244.497 365.981Z" fill="#E49191"/>
<path d="M254.074 317.678C254.074 317.678 248.396 350.695 243.037 351.456C243.037 351.456 221.662 352.338 216.883 326.333C212.764 303.794 229.32 298.986 237.078 300.709C244.837 302.432 255.754 303.554 254.074 317.678Z" fill="#E49191"/>
<path d="M235.179 346.187C235.179 346.187 232.18 350.194 231.18 360.031C225.31 360.661 219.381 359.634 214.064 357.066C216.87 347.691 218.535 338.011 219.023 328.236" fill="#E49191"/>
<path d="M229.16 295.18C217.463 297.764 218.403 305.057 218.403 305.057C212.924 306.419 211.764 308.683 211.804 318.8C211.844 328.917 215.583 341.078 217.583 342.06C219.582 343.042 231.02 343.102 231.96 342.741C232.899 342.381 236.918 333.125 235.959 331.482C234.999 329.839 235.959 323.468 238.678 323.188C241.397 322.907 240.817 327.074 240.817 327.074L242.997 326.593L244.697 322.446C260.133 323.368 264.112 305.738 264.112 305.738C260.373 303.374 240.837 292.595 229.16 295.18Z" fill="#002C54"/>
<path d="M99.4302 518.783L111.247 520.486L107.348 534.31L94.5513 531.084C93.8369 530.13 93.3352 529.033 93.0802 527.868C92.8251 526.703 92.8226 525.497 93.0728 524.331C93.323 523.165 93.8201 522.066 94.5305 521.109C95.2409 520.152 96.1481 519.359 97.1907 518.783C97.9237 518.582 98.6972 518.582 99.4302 518.783V518.783Z" fill="#E5918F"/>
<path d="M187.59 483.262L170.174 430.432C170.174 430.432 164.895 428.548 162.176 430.432C162.176 430.432 144.02 440.208 145.96 468.076C147.489 485.861 150.053 503.541 153.638 521.027L107.189 519.304C105.512 521.517 104.444 524.133 104.094 526.89C103.743 529.646 104.12 532.447 105.189 535.011C105.189 535.011 163.575 550.738 171.814 552.2C178.492 553.382 185.81 554.204 189.329 551.259C195.588 545.91 187.59 483.262 187.59 483.262Z" fill="#3C4042"/>
<path d="M154.457 518.783L166.275 520.486L162.276 534.31L149.479 531.084C148.765 530.129 148.264 529.031 148.011 527.865C147.757 526.699 147.756 525.492 148.009 524.326C148.261 523.16 148.76 522.061 149.472 521.105C150.185 520.149 151.094 519.357 152.138 518.783C152.896 518.567 153.699 518.567 154.457 518.783V518.783Z" fill="#E5918F"/>
<path d="M150.159 526.015C149.899 528.74 152.278 531.204 151.838 531.885C151.398 532.567 143.46 545.91 143.46 545.91C143.46 545.91 149.459 548.514 148.499 552.3H133.302C130.928 550.013 129.543 546.884 129.443 543.586C130.183 539.714 131.441 535.961 133.182 532.426C135.882 527.197 142.04 515.397 142.04 515.397C143.689 514.89 145.451 514.89 147.099 515.397C149.686 516.171 152.16 517.283 154.457 518.703C154.457 518.703 150.818 519.304 150.159 526.015Z" fill="#0D0D0D"/>
<path d="M271.81 540.16C268.051 526.136 232.78 466.313 220.842 450.145C196.328 439.487 170.214 430.432 170.214 430.432C159.417 433.016 154.078 454.833 160.216 469.378C164.415 479.395 191.089 504.458 207.425 519.244H162.096C162.096 519.244 156.757 527.258 161.596 534.83C161.596 534.83 236.979 552 243.577 552.982C250.175 553.963 265.032 552.982 265.032 552.982C265.032 552.982 274.95 551.96 271.81 540.16Z" fill="#515659"/>
<path d="M95.1512 526.015C94.8913 528.74 97.2707 531.204 96.8308 531.885C96.3909 532.567 88.4528 545.91 88.4528 545.91C88.4528 545.91 94.4514 548.514 93.4716 552.3H78.2951C75.9211 550.013 74.5358 546.884 74.436 543.586C75.176 539.714 76.4337 535.961 78.1752 532.426C80.8745 527.197 87.0331 515.397 87.0331 515.397C88.6812 514.889 90.4438 514.889 92.0919 515.397C94.6731 516.169 97.1407 517.281 99.4302 518.703C99.4302 518.703 95.8111 519.304 95.1512 526.015Z" fill="#0D0D0D"/>
<path d="M328.537 355.803L304.243 398.657L286.827 381.267L272.41 402.744L276.609 404.747L275.09 405.989C275.09 405.989 308.702 422.398 312.721 418.771C316.74 415.145 335.496 360.672 335.496 360.672L328.537 355.803Z" fill="#E49191"/>
<path d="M289.926 383.972C289.926 383.972 285.347 403.385 276.169 412.581L252.675 403.545C252.675 403.545 241.777 421.897 231.12 435.981C227.021 441.41 225.661 449.064 220.862 450.005L219.982 449.745C206.925 445.738 187.67 449.985 171.774 444.075C154.238 437.524 157.637 433.837 157.637 433.837C164.43 421.205 170.014 407.957 174.313 394.27C176.649 386.42 178.585 378.456 180.112 370.409C181.186 364.781 183.99 359.63 188.131 355.678C192.273 351.727 197.544 349.172 203.206 348.371C203.333 348.36 203.46 348.36 203.586 348.371C216.903 346.668 251.715 350.795 258.493 353.7C265.272 356.605 289.926 383.972 289.926 383.972Z" fill="#43D992"/>
<path d="M252.675 403.545C252.675 403.545 241.777 421.897 231.12 435.981C227.021 441.41 225.661 449.063 220.862 450.005C222.962 449.264 226.461 438.145 227.701 435.64C228.94 433.136 230.94 430.652 235.259 421.937C239.578 413.222 245.257 400.36 245.257 400.36L252.675 403.545Z" fill="#43D992"/>
<path d="M207.425 519.244C209.394 518.796 211.405 518.568 213.424 518.563C215.43 518.539 217.435 518.666 219.422 518.943C223.434 519.421 227.317 520.666 230.86 522.609C228.86 522.449 226.861 522.109 224.961 521.868L219.143 521.047C215.243 520.486 211.384 520.025 207.425 519.244Z" fill="black"/>
<path d="M346.713 340.037C345.272 340.87 343.931 341.865 342.714 343.002L344.094 340.337C344.988 339.48 345.823 338.563 346.593 337.592C347.253 336.611 346.893 335.589 346.373 335.589C344.997 336.35 343.715 337.271 342.554 338.334L342.834 337.793C343.726 336.939 344.554 336.022 345.314 335.048C345.973 334.066 345.633 333.045 345.114 333.045C343.436 334.074 341.85 335.247 340.375 336.551L338.375 339.295L339.935 336.29C340.449 335.631 340.904 334.927 341.294 334.187C341.834 333.105 341.434 332.784 341.134 332.403C340.835 332.023 337.995 334.166 337.275 335.008C336.111 336.529 335.043 338.122 334.076 339.776L331.557 344.705C331.397 343.262 331.177 340.838 330.997 339.275C330.757 337.031 328.737 336.511 328.657 337.592C328.092 340.68 327.777 343.809 327.718 346.948C327.977 349.853 328.457 351.757 328.637 353.399C328.467 355.113 327.958 356.775 327.138 358.288C327.138 358.288 333.896 362.495 335.016 361.233C336.713 359.346 338.271 357.338 339.675 355.223C340.763 353.318 341.647 351.303 342.314 349.212L344.434 344.685C345.32 343.826 346.148 342.909 346.913 341.94C347.553 341.058 347.233 340.097 346.713 340.037Z" fill="#E49191"/>
<path d="M735.003 203.623H655.681C654.47 203.62 653.27 203.857 652.151 204.32C651.031 204.784 650.014 205.464 649.157 206.322C648.301 207.18 647.622 208.199 647.16 209.321C646.697 210.443 646.461 211.645 646.463 212.859V231.631C646.464 233.866 647.275 236.026 648.747 237.707C650.218 239.387 652.249 240.475 654.462 240.766C654.78 240.814 655.071 240.973 655.283 241.215C655.496 241.457 655.615 241.766 655.621 242.089V252.366C655.615 252.498 655.652 252.628 655.726 252.736C655.801 252.845 655.909 252.926 656.034 252.967C656.159 253.008 656.294 253.007 656.418 252.963C656.542 252.92 656.649 252.837 656.721 252.727L664.719 241.408C664.841 241.234 665.003 241.093 665.191 240.995C665.379 240.897 665.587 240.846 665.799 240.847H734.863C736.071 240.847 737.267 240.608 738.383 240.145C739.499 239.682 740.513 239.003 741.367 238.147C742.221 237.292 742.898 236.276 743.361 235.157C743.823 234.039 744.061 232.841 744.061 231.631V212.859C744.066 210.435 743.119 208.107 741.423 206.378C739.728 204.65 737.421 203.66 735.003 203.623Z" stroke="white" stroke-width="0.9" stroke-miterlimit="10"/>
<path d="M667.838 222.215C667.838 222.818 667.66 223.407 667.325 223.909C666.99 224.41 666.514 224.8 665.958 225.03C665.401 225.26 664.789 225.319 664.199 225.2C663.609 225.081 663.067 224.789 662.643 224.361C662.219 223.933 661.931 223.388 661.816 222.796C661.701 222.204 661.764 221.591 661.997 221.035C662.23 220.479 662.623 220.005 663.125 219.673C663.628 219.341 664.217 219.165 664.819 219.169C665.622 219.175 666.39 219.498 666.955 220.068C667.521 220.639 667.838 221.41 667.838 222.215V222.215Z" stroke="white" stroke-width="0.9" stroke-miterlimit="10"/>
<path d="M683.095 222.215C683.107 222.82 682.938 223.415 682.611 223.925C682.283 224.434 681.812 224.833 681.256 225.072C680.701 225.312 680.087 225.379 679.493 225.267C678.899 225.155 678.352 224.868 677.922 224.442C677.491 224.017 677.197 223.472 677.078 222.879C676.958 222.285 677.017 221.669 677.248 221.11C677.48 220.55 677.872 220.072 678.376 219.737C678.879 219.402 679.471 219.226 680.076 219.229C680.87 219.229 681.632 219.543 682.197 220.101C682.762 220.66 683.085 221.419 683.095 222.215Z" stroke="white" stroke-width="0.9" stroke-miterlimit="10"/>
<path d="M698.372 222.215C698.372 222.817 698.193 223.406 697.859 223.906C697.525 224.407 697.051 224.798 696.495 225.028C695.94 225.258 695.329 225.319 694.739 225.201C694.15 225.084 693.608 224.794 693.183 224.368C692.758 223.942 692.469 223.399 692.351 222.809C692.234 222.218 692.294 221.606 692.524 221.049C692.754 220.493 693.144 220.017 693.644 219.683C694.144 219.348 694.731 219.169 695.332 219.169C696.138 219.169 696.911 219.49 697.481 220.061C698.051 220.632 698.372 221.407 698.372 222.215V222.215Z" stroke="white" stroke-width="0.9" stroke-miterlimit="10"/>
<path d="M713.628 222.215C713.628 222.817 713.45 223.406 713.116 223.906C712.782 224.407 712.307 224.798 711.752 225.028C711.196 225.258 710.585 225.319 709.996 225.201C709.406 225.084 708.865 224.794 708.44 224.368C708.014 223.942 707.725 223.399 707.608 222.809C707.49 222.218 707.551 221.606 707.781 221.049C708.011 220.493 708.4 220.017 708.9 219.683C709.4 219.348 709.988 219.169 710.589 219.169C711.395 219.169 712.168 219.49 712.738 220.061C713.308 220.632 713.628 221.407 713.628 222.215V222.215Z" stroke="white" stroke-width="0.9" stroke-miterlimit="10"/>
<path d="M728.884 222.215C728.896 222.82 728.727 223.415 728.4 223.925C728.072 224.434 727.601 224.833 727.045 225.072C726.49 225.312 725.876 225.379 725.282 225.267C724.688 225.155 724.141 224.868 723.711 224.442C723.28 224.017 722.987 223.472 722.867 222.879C722.747 222.285 722.806 221.669 723.037 221.11C723.269 220.55 723.661 220.072 724.165 219.737C724.668 219.402 725.26 219.226 725.865 219.229C726.657 219.235 727.416 219.549 727.98 220.107C728.544 220.665 728.868 221.421 728.884 222.215V222.215Z" stroke="white" stroke-width="0.9" stroke-miterlimit="10"/>
<path d="M108.208 285.944H187.59C190.029 285.944 192.369 286.915 194.094 288.643C195.819 290.371 196.788 292.715 196.788 295.16V313.932C196.792 316.171 195.983 318.335 194.511 320.02C193.039 321.705 191.005 322.795 188.79 323.087C188.468 323.127 188.172 323.283 187.958 323.527C187.744 323.771 187.628 324.085 187.63 324.41V334.687C187.636 334.819 187.6 334.949 187.525 335.057C187.45 335.166 187.342 335.247 187.217 335.288C187.092 335.329 186.957 335.328 186.833 335.284C186.709 335.241 186.603 335.158 186.53 335.048L178.532 323.728C178.413 323.553 178.251 323.409 178.063 323.311C177.874 323.213 177.665 323.164 177.452 323.168H108.208C105.765 323.162 103.424 322.187 101.696 320.457C99.9686 318.726 98.9958 316.38 98.9905 313.932V295.16C98.9958 292.713 99.9693 290.369 101.697 288.642C103.425 286.914 105.767 285.944 108.208 285.944Z" stroke="white" stroke-width="0.9" stroke-miterlimit="10"/>
<path d="M175.353 304.516C175.349 305.119 175.524 305.709 175.855 306.213C176.187 306.716 176.66 307.11 177.215 307.343C177.77 307.577 178.382 307.64 178.973 307.525C179.564 307.41 180.107 307.121 180.534 306.696C180.961 306.271 181.253 305.728 181.371 305.137C181.49 304.546 181.431 303.933 181.202 303.375C180.972 302.817 180.583 302.341 180.083 302.005C179.582 301.67 178.994 301.49 178.392 301.49C177.589 301.49 176.819 301.809 176.25 302.375C175.681 302.942 175.358 303.711 175.353 304.516V304.516Z" stroke="white" stroke-width="0.9" stroke-miterlimit="10"/>
<path d="M160.096 304.516C160.092 305.119 160.267 305.709 160.599 306.213C160.93 306.716 161.404 307.11 161.959 307.343C162.514 307.577 163.125 307.64 163.716 307.525C164.307 307.41 164.85 307.121 165.278 306.696C165.705 306.271 165.996 305.728 166.115 305.137C166.234 304.546 166.175 303.933 165.945 303.375C165.716 302.817 165.326 302.341 164.826 302.005C164.326 301.67 163.738 301.49 163.136 301.49C162.333 301.49 161.563 301.809 160.993 302.375C160.424 302.942 160.102 303.711 160.096 304.516V304.516Z" stroke="white" stroke-width="0.9" stroke-miterlimit="10"/>
<path d="M144.84 304.516C144.836 305.12 145.011 305.711 145.344 306.215C145.676 306.719 146.15 307.112 146.707 307.345C147.263 307.578 147.876 307.64 148.467 307.523C149.058 307.406 149.602 307.116 150.028 306.689C150.454 306.262 150.744 305.717 150.861 305.125C150.977 304.532 150.916 303.918 150.683 303.361C150.451 302.804 150.058 302.328 149.555 301.995C149.052 301.662 148.462 301.487 147.859 301.49C147.06 301.496 146.295 301.816 145.73 302.382C145.165 302.949 144.845 303.715 144.84 304.516V304.516Z" stroke="white" stroke-width="0.9" stroke-miterlimit="10"/>
<path d="M129.603 304.516C129.599 305.12 129.775 305.711 130.107 306.215C130.44 306.719 130.914 307.112 131.47 307.345C132.026 307.578 132.639 307.64 133.231 307.523C133.822 307.406 134.365 307.116 134.792 306.689C135.218 306.262 135.508 305.717 135.624 305.125C135.741 304.532 135.679 303.918 135.447 303.361C135.214 302.804 134.822 302.328 134.319 301.995C133.816 301.662 133.225 301.487 132.623 301.49C131.822 301.49 131.054 301.809 130.488 302.377C129.921 302.944 129.603 303.713 129.603 304.516Z" stroke="white" stroke-width="0.9" stroke-miterlimit="10"/>
<path d="M114.307 304.516C114.303 305.119 114.478 305.709 114.809 306.213C115.141 306.716 115.614 307.11 116.169 307.343C116.724 307.577 117.336 307.64 117.927 307.525C118.517 307.41 119.061 307.121 119.488 306.696C119.915 306.271 120.206 305.728 120.325 305.137C120.444 304.546 120.385 303.933 120.156 303.375C119.926 302.817 119.537 302.341 119.037 302.005C118.536 301.67 117.948 301.49 117.346 301.49C116.543 301.49 115.773 301.809 115.204 302.375C114.635 302.942 114.312 303.711 114.307 304.516V304.516Z" stroke="white" stroke-width="0.9" stroke-miterlimit="10"/>
<path d="M587.257 160.308H442.671C440.775 160.308 438.897 159.934 437.146 159.207C435.394 158.481 433.803 157.415 432.462 156.072C431.122 154.729 430.058 153.134 429.333 151.379C428.607 149.624 428.234 147.743 428.234 145.844V145.844C428.234 143.944 428.607 142.063 429.333 140.308C430.058 138.553 431.122 136.959 432.462 135.616C433.803 134.272 435.394 133.207 437.146 132.48C438.897 131.753 440.775 131.379 442.671 131.379H587.257C591.086 131.379 594.758 132.903 597.465 135.616C600.173 138.328 601.694 142.007 601.694 145.844C601.694 149.68 600.173 153.359 597.465 156.072C594.758 158.785 591.086 160.308 587.257 160.308Z" fill="white" stroke="#43D992" stroke-width="0.9" stroke-miterlimit="10"/>
<path d="M585.138 144.842C585.126 146.363 584.664 147.846 583.812 149.104C582.959 150.362 581.753 151.338 580.347 151.91C578.941 152.482 577.397 152.624 575.91 152.317C574.424 152.01 573.061 151.268 571.995 150.186C570.929 149.104 570.207 147.729 569.92 146.236C569.633 144.743 569.794 143.198 570.383 141.796C570.972 140.395 571.963 139.199 573.229 138.362C574.496 137.524 575.982 137.081 577.499 137.089C578.509 137.094 579.509 137.299 580.439 137.691C581.37 138.084 582.215 138.657 582.924 139.377C583.634 140.098 584.194 140.951 584.574 141.889C584.954 142.826 585.146 143.83 585.138 144.842V144.842Z" stroke="#43D992" stroke-width="1.67" stroke-miterlimit="10"/>
<path d="M582.878 150.291L587.117 154.538" stroke="#43D992" stroke-width="1.67" stroke-miterlimit="10" stroke-linecap="round"/>
<path d="M364.349 494.201H335.776C327.261 494.201 320.359 501.116 320.359 509.647V538.276C320.359 546.807 327.261 553.723 335.776 553.723H364.349C372.863 553.723 379.765 546.807 379.765 538.276V509.647C379.765 501.116 372.863 494.201 364.349 494.201Z" fill="#0D0D0D"/>
<path d="M353.512 494.201H324.938C316.424 494.201 309.522 501.116 309.522 509.647V538.276C309.522 546.807 316.424 553.723 324.938 553.723H353.512C362.026 553.723 368.928 546.807 368.928 538.276V509.647C368.928 501.116 362.026 494.201 353.512 494.201Z" fill="#F2B705"/>
<path d="M332.216 512.733L349.272 522.59C349.513 522.728 349.714 522.928 349.853 523.169C349.992 523.41 350.065 523.684 350.065 523.962C350.065 524.24 349.992 524.514 349.853 524.755C349.714 524.996 349.513 525.196 349.272 525.334L332.216 535.211C331.976 535.348 331.703 535.419 331.426 535.418C331.15 535.416 330.878 535.341 330.639 535.201C330.4 535.061 330.202 534.861 330.065 534.62C329.928 534.379 329.856 534.106 329.857 533.829V514.095C329.859 513.819 329.934 513.549 330.072 513.311C330.211 513.073 330.409 512.875 330.648 512.738C330.886 512.6 331.156 512.527 331.431 512.526C331.707 512.525 331.977 512.597 332.216 512.733Z" fill="white"/>
<path d="M739.382 475.909H702.031C690.899 475.909 681.875 484.951 681.875 496.104V533.528C681.875 544.681 690.899 553.723 702.031 553.723H739.382C750.513 553.723 759.537 544.681 759.537 533.528V496.104C759.537 484.951 750.513 475.909 739.382 475.909Z" fill="#0D0D0D"/>
<path d="M725.225 475.909H687.874C676.742 475.909 667.719 484.951 667.719 496.104V533.528C667.719 544.681 676.742 553.723 687.874 553.723H725.225C736.357 553.723 745.381 544.681 745.381 533.528V496.104C745.381 484.951 736.357 475.909 725.225 475.909Z" fill="#F2B705"/>
<path d="M715.887 495.002C715.891 496.854 715.347 498.664 714.323 500.206C713.3 501.747 711.843 502.949 710.137 503.66C708.431 504.372 706.553 504.56 704.74 504.201C702.927 503.842 701.262 502.953 699.954 501.645C698.646 500.337 697.754 498.67 697.393 496.855C697.031 495.04 697.214 493.157 697.921 491.447C698.627 489.736 699.824 488.273 701.36 487.244C702.896 486.216 704.702 485.666 706.549 485.666C709.022 485.666 711.395 486.649 713.145 488.4C714.896 490.15 715.882 492.524 715.887 495.002V495.002Z" fill="white"/>
<path d="M726.005 526.656V540.46C726.005 541.061 725.767 541.636 725.343 542.061C724.92 542.485 724.345 542.724 723.746 542.724H689.354C688.754 542.724 688.18 542.485 687.756 542.061C687.332 541.636 687.094 541.061 687.094 540.46V526.656C687.094 524.097 687.597 521.562 688.575 519.197C689.553 516.832 690.986 514.683 692.793 512.873C694.599 511.062 696.744 509.627 699.104 508.647C701.465 507.667 703.995 507.163 706.55 507.163V507.163C711.71 507.163 716.658 509.217 720.307 512.873C723.955 516.528 726.005 521.487 726.005 526.656V526.656Z" fill="white"/>
<path d="M532.85 176.977H502.317C501.707 176.977 501.122 176.734 500.691 176.302C500.26 175.87 500.018 175.284 500.018 174.673V174.673C500.023 174.064 500.267 173.481 500.697 173.05C501.127 172.619 501.709 172.374 502.317 172.369H532.85C533.46 172.369 534.045 172.612 534.476 173.044C534.907 173.476 535.149 174.062 535.149 174.673V174.673C535.152 174.976 535.094 175.277 534.98 175.558C534.865 175.839 534.696 176.094 534.482 176.308C534.268 176.523 534.013 176.692 533.733 176.807C533.453 176.922 533.153 176.98 532.85 176.977Z" fill="#F0F4FF"/>
<path d="M563.503 176.977H541.308C541.005 176.98 540.705 176.922 540.425 176.807C540.145 176.692 539.89 176.523 539.676 176.308C539.462 176.094 539.293 175.839 539.178 175.558C539.063 175.277 539.006 174.976 539.008 174.673V174.673C539.008 174.062 539.251 173.476 539.682 173.044C540.113 172.612 540.698 172.369 541.308 172.369H563.503C564.111 172.374 564.693 172.619 565.123 173.05C565.553 173.481 565.797 174.064 565.802 174.673V174.673C565.802 175.284 565.56 175.87 565.129 176.302C564.698 176.734 564.113 176.977 563.503 176.977Z" fill="#F0F4FF"/>
<path d="M515.294 187.174H502.317C501.709 187.169 501.127 186.925 500.697 186.494C500.267 186.063 500.023 185.48 500.018 184.87V184.87C500.018 184.259 500.26 183.673 500.691 183.241C501.122 182.809 501.707 182.567 502.317 182.567H515.294C515.904 182.567 516.489 182.809 516.92 183.241C517.351 183.673 517.593 184.259 517.593 184.87V184.87C517.588 185.48 517.344 186.063 516.914 186.494C516.484 186.925 515.902 187.169 515.294 187.174V187.174Z" fill="#F0F4FF"/>
<path d="M563.503 187.174H522.992C522.384 187.169 521.802 186.925 521.372 186.494C520.942 186.063 520.698 185.48 520.693 184.87C520.693 184.259 520.935 183.673 521.366 183.241C521.797 182.809 522.382 182.567 522.992 182.567H563.503C564.113 182.567 564.697 182.809 565.129 183.241C565.56 183.673 565.802 184.259 565.802 184.87V184.87C565.797 185.48 565.553 186.063 565.123 186.494C564.693 186.925 564.111 187.169 563.503 187.174V187.174Z" fill="#F0F4FF"/>
<path d="M542.568 197.192H502.317C501.707 197.192 501.122 196.949 500.691 196.517C500.26 196.085 500.018 195.499 500.018 194.888V194.888C500.023 194.28 500.267 193.699 500.698 193.271C501.129 192.844 501.711 192.604 502.317 192.604H542.568C543.174 192.604 543.756 192.844 544.187 193.271C544.617 193.699 544.862 194.28 544.867 194.888V194.888C544.867 195.499 544.625 196.085 544.194 196.517C543.762 196.949 543.178 197.192 542.568 197.192V197.192Z" fill="#F0F4FF"/>
<path d="M563.503 197.192H550.526C549.916 197.192 549.331 196.949 548.9 196.517C548.469 196.085 548.226 195.499 548.226 194.888V194.888C548.232 194.28 548.476 193.699 548.907 193.271C549.338 192.844 549.919 192.604 550.526 192.604H563.503C564.109 192.604 564.691 192.844 565.122 193.271C565.552 193.699 565.797 194.28 565.802 194.888C565.802 195.499 565.56 196.085 565.129 196.517C564.698 196.949 564.113 197.192 563.503 197.192Z" fill="#F0F4FF"/>
<path d="M144.24 346.448H41.4837C37.2652 346.448 33.8455 349.874 33.8455 354.101V404.166C33.8455 408.393 37.2652 411.82 41.4837 411.82H144.24C148.458 411.82 151.878 408.393 151.878 404.166V354.101C151.878 349.874 148.458 346.448 144.24 346.448Z" fill="#43D992"/>
<path d="M38.8442 355.283H146.859" stroke="white" stroke-width="0.9" stroke-miterlimit="10" stroke-linecap="round"/>
<path d="M144 352.077C144.718 352.077 145.3 351.494 145.3 350.775C145.3 350.056 144.718 349.473 144 349.473C143.282 349.473 142.7 350.056 142.7 350.775C142.7 351.494 143.282 352.077 144 352.077Z" fill="white"/>
<path d="M137.182 352.077C137.899 352.077 138.481 351.494 138.481 350.775C138.481 350.056 137.899 349.473 137.182 349.473C136.464 349.473 135.882 350.056 135.882 350.775C135.882 351.494 136.464 352.077 137.182 352.077Z" fill="white"/>
<path d="M130.363 352.077C131.081 352.077 131.663 351.494 131.663 350.775C131.663 350.056 131.081 349.473 130.363 349.473C129.645 349.473 129.063 350.056 129.063 350.775C129.063 351.494 129.645 352.077 130.363 352.077Z" fill="white"/>
<path d="M58.9796 364.078H40.6638C40.1812 364.078 39.7184 363.886 39.3772 363.544C39.0359 363.202 38.8442 362.738 38.8442 362.255V362.255C38.8495 361.775 39.0435 361.316 39.3842 360.978C39.7249 360.641 40.1847 360.452 40.6638 360.452H58.9796C59.4587 360.452 59.9185 360.641 60.2592 360.978C60.5998 361.316 60.7939 361.775 60.7991 362.255V362.255C60.7991 362.738 60.6074 363.202 60.2662 363.544C59.925 363.886 59.4621 364.078 58.9796 364.078Z" fill="#E5F1FF"/>
<path d="M58.9796 372.432H40.6638C40.4258 372.435 40.1897 372.39 39.969 372.301C39.7484 372.211 39.5476 372.079 39.3784 371.911C39.2091 371.743 39.0748 371.544 38.9831 371.324C38.8914 371.104 38.8442 370.867 38.8442 370.629V370.629C38.8442 370.145 39.0359 369.682 39.3772 369.34C39.7184 368.998 40.1812 368.806 40.6638 368.806H58.9796C59.4621 368.806 59.925 368.998 60.2662 369.34C60.6074 369.682 60.7991 370.145 60.7991 370.629V370.629C60.7991 370.867 60.7519 371.104 60.6603 371.324C60.5686 371.544 60.4342 371.743 60.265 371.911C60.0958 372.079 59.895 372.211 59.6744 372.301C59.4537 372.39 59.2176 372.435 58.9796 372.432Z" fill="#E5F1FF"/>
<path d="M58.9796 380.806H40.6638C40.1812 380.806 39.7184 380.614 39.3772 380.272C39.0359 379.931 38.8442 379.467 38.8442 378.983V378.983C38.8442 378.745 38.8914 378.509 38.9831 378.289C39.0748 378.069 39.2091 377.869 39.3784 377.701C39.5476 377.533 39.7484 377.401 39.969 377.312C40.1897 377.222 40.4258 377.178 40.6638 377.18H58.9796C59.2176 377.178 59.4537 377.222 59.6744 377.312C59.895 377.401 60.0958 377.533 60.265 377.701C60.4342 377.869 60.5686 378.069 60.6603 378.289C60.7519 378.509 60.7991 378.745 60.7991 378.983V378.983C60.7991 379.467 60.6074 379.931 60.2662 380.272C59.925 380.614 59.4621 380.806 58.9796 380.806Z" fill="#E5F1FF"/>
<path d="M58.9796 389.161H40.6638C40.4258 389.163 40.1897 389.119 39.969 389.029C39.7484 388.94 39.5476 388.807 39.3784 388.64C39.2091 388.472 39.0748 388.272 38.9831 388.052C38.8914 387.832 38.8442 387.596 38.8442 387.358V387.358C38.8442 386.874 39.0359 386.41 39.3772 386.068C39.7184 385.727 40.1812 385.534 40.6638 385.534H58.9796C59.4621 385.534 59.925 385.727 60.2662 386.068C60.6074 386.41 60.7991 386.874 60.7991 387.358V387.358C60.7991 387.596 60.7519 387.832 60.6603 388.052C60.5686 388.272 60.4342 388.472 60.265 388.64C60.0958 388.807 59.895 388.94 59.6744 389.029C59.4537 389.119 59.2176 389.163 58.9796 389.161Z" fill="#E5F1FF"/>
<path d="M58.9796 397.535H40.6638C40.4258 397.538 40.1897 397.493 39.969 397.404C39.7484 397.314 39.5476 397.182 39.3784 397.014C39.2091 396.846 39.0748 396.647 38.9831 396.427C38.8914 396.207 38.8442 395.971 38.8442 395.732V395.732C38.8442 395.494 38.8914 395.257 38.9831 395.037C39.0748 394.817 39.2091 394.618 39.3784 394.45C39.5476 394.282 39.7484 394.15 39.969 394.06C40.1897 393.971 40.4258 393.926 40.6638 393.929H58.9796C59.2176 393.926 59.4537 393.971 59.6744 394.06C59.895 394.15 60.0958 394.282 60.265 394.45C60.4342 394.618 60.5686 394.817 60.6603 395.037C60.7519 395.257 60.7991 395.494 60.7991 395.732V395.732C60.7991 395.971 60.7519 396.207 60.6603 396.427C60.5686 396.647 60.4342 396.846 60.265 397.014C60.0958 397.182 59.895 397.314 59.6744 397.404C59.4537 397.493 59.2176 397.538 58.9796 397.535Z" fill="#E5F1FF"/>
<path d="M58.9796 405.889H40.6638C40.1812 405.889 39.7184 405.697 39.3772 405.355C39.0359 405.014 38.8442 404.55 38.8442 404.066V404.066C38.8495 403.586 39.0435 403.128 39.3842 402.79C39.7249 402.452 40.1847 402.263 40.6638 402.263H58.9796C59.4587 402.263 59.9185 402.452 60.2592 402.79C60.5998 403.128 60.7939 403.586 60.7991 404.066V404.066C60.7991 404.55 60.6074 405.014 60.2662 405.355C59.925 405.697 59.4621 405.889 58.9796 405.889V405.889Z" fill="#E5F1FF"/>
<path d="M145.04 364.078H66.0779C65.5953 364.078 65.1325 363.886 64.7912 363.544C64.45 363.202 64.2583 362.738 64.2583 362.255V362.255C64.2636 361.775 64.4576 361.316 64.7982 360.978C65.1389 360.641 65.5987 360.452 66.0779 360.452H145.04C145.519 360.452 145.979 360.641 146.319 360.978C146.66 361.316 146.854 361.775 146.859 362.255C146.859 362.738 146.667 363.202 146.326 363.544C145.985 363.886 145.522 364.078 145.04 364.078Z" fill="white"/>
<path d="M145.04 372.432H66.0779C65.8399 372.435 65.6037 372.39 65.383 372.301C65.1624 372.211 64.9616 372.079 64.7924 371.911C64.6232 371.743 64.4888 371.544 64.3972 371.324C64.3055 371.104 64.2583 370.867 64.2583 370.629V370.629C64.2583 370.145 64.45 369.682 64.7912 369.34C65.1325 368.998 65.5953 368.806 66.0779 368.806H145.04C145.522 368.806 145.985 368.998 146.326 369.34C146.667 369.682 146.859 370.145 146.859 370.629C146.859 370.867 146.812 371.104 146.72 371.324C146.629 371.544 146.494 371.743 146.325 371.911C146.156 372.079 145.955 372.211 145.734 372.301C145.514 372.39 145.278 372.435 145.04 372.432Z" fill="white"/>
<path d="M145.04 380.806H66.0779C65.5953 380.806 65.1325 380.614 64.7912 380.272C64.45 379.931 64.2583 379.467 64.2583 378.983V378.983C64.2583 378.745 64.3055 378.509 64.3972 378.289C64.4888 378.069 64.6232 377.869 64.7924 377.701C64.9616 377.533 65.1624 377.401 65.383 377.312C65.6037 377.222 65.8399 377.178 66.0779 377.18H145.04C145.278 377.178 145.514 377.222 145.734 377.312C145.955 377.401 146.156 377.533 146.325 377.701C146.494 377.869 146.629 378.069 146.72 378.289C146.812 378.509 146.859 378.745 146.859 378.983V378.983C146.859 379.467 146.667 379.931 146.326 380.272C145.985 380.614 145.522 380.806 145.04 380.806Z" fill="white"/>
<path d="M145.04 389.161H66.0779C65.8399 389.163 65.6037 389.119 65.383 389.029C65.1624 388.94 64.9616 388.807 64.7924 388.64C64.6232 388.472 64.4888 388.272 64.3972 388.052C64.3055 387.832 64.2583 387.596 64.2583 387.358V387.358C64.2583 386.874 64.45 386.41 64.7912 386.068C65.1325 385.727 65.5953 385.534 66.0779 385.534H145.04C145.522 385.534 145.985 385.727 146.326 386.068C146.667 386.41 146.859 386.874 146.859 387.358V387.358C146.859 387.596 146.812 387.832 146.72 388.052C146.629 388.272 146.494 388.472 146.325 388.64C146.156 388.807 145.955 388.94 145.734 389.029C145.514 389.119 145.278 389.163 145.04 389.161V389.161Z" fill="white"/>
<path d="M145.04 397.535H66.0779C65.8399 397.538 65.6037 397.493 65.383 397.404C65.1624 397.314 64.9616 397.182 64.7924 397.014C64.6232 396.846 64.4888 396.647 64.3972 396.427C64.3055 396.207 64.2583 395.971 64.2583 395.732V395.732C64.2583 395.494 64.3055 395.257 64.3972 395.037C64.4888 394.817 64.6232 394.618 64.7924 394.45C64.9616 394.282 65.1624 394.15 65.383 394.06C65.6037 393.971 65.8399 393.926 66.0779 393.929H145.04C145.278 393.926 145.514 393.971 145.734 394.06C145.955 394.15 146.156 394.282 146.325 394.45C146.494 394.618 146.629 394.817 146.72 395.037C146.812 395.257 146.859 395.494 146.859 395.732V395.732C146.859 395.971 146.812 396.207 146.72 396.427C146.629 396.647 146.494 396.846 146.325 397.014C146.156 397.182 145.955 397.314 145.734 397.404C145.514 397.493 145.278 397.538 145.04 397.535V397.535Z" fill="white"/>
<path d="M145.04 405.889H66.0779C65.5953 405.889 65.1325 405.697 64.7912 405.355C64.45 405.014 64.2583 404.55 64.2583 404.066V404.066C64.2636 403.586 64.4576 403.128 64.7982 402.79C65.1389 402.452 65.5987 402.263 66.0779 402.263H145.04C145.519 402.263 145.979 402.452 146.319 402.79C146.66 403.128 146.854 403.586 146.859 404.066V404.066C146.859 404.55 146.667 405.014 146.326 405.355C145.985 405.697 145.522 405.889 145.04 405.889V405.889Z" fill="white"/>
<path d="M699.508 70.3019C705.759 44.1543 689.67 17.8804 663.574 11.6174C637.477 5.35443 611.254 21.4741 605.004 47.6216C598.753 73.7691 614.841 100.043 640.938 106.306C667.034 112.569 693.257 96.4494 699.508 70.3019Z" stroke="#DEE3FC" stroke-width="0.79" stroke-miterlimit="10"/>
<path d="M669.378 97.6686C690.716 88.2077 700.36 63.2063 690.917 41.8265C681.475 20.4466 656.522 10.7843 635.184 20.2452C613.845 29.7061 604.202 54.7074 613.644 76.0873C623.087 97.4672 648.04 107.129 669.378 97.6686Z" fill="#43D992"/>
<path d="M656.141 58.9551C656.145 59.7207 655.922 60.4703 655.501 61.1087C655.079 61.7472 654.478 62.2459 653.773 62.5417C653.068 62.8374 652.292 62.9169 651.542 62.7699C650.792 62.623 650.102 62.2563 649.561 61.7164C649.019 61.1764 648.649 60.4875 648.499 59.7369C648.348 58.9863 648.423 58.2079 648.715 57.5002C649.006 56.7925 649.501 56.1874 650.136 55.7616C650.771 55.3359 651.518 55.1086 652.282 55.1086C652.788 55.1059 653.289 55.2035 653.758 55.3956C654.226 55.5877 654.651 55.8707 655.01 56.2281C655.368 56.5856 655.653 57.0105 655.847 57.4785C656.041 57.9465 656.141 58.4483 656.141 58.9551Z" fill="white"/>
<path d="M651.862 58.2138C651.726 58.2915 651.576 58.3413 651.42 58.3602C651.264 58.3791 651.107 58.3668 650.956 58.3239C650.805 58.281 650.664 58.2084 650.542 58.1104C650.419 58.0123 650.318 57.8909 650.242 57.753L637.806 35.2945C637.655 35.0122 637.621 34.682 637.71 34.3748C637.8 34.0676 638.007 33.808 638.285 33.6517V33.6517C638.567 33.5007 638.897 33.4665 639.203 33.5564C639.51 33.6463 639.769 33.8532 639.925 34.1325L652.342 56.571C652.419 56.7101 652.468 56.8633 652.486 57.0216C652.503 57.1799 652.49 57.3401 652.445 57.4929C652.4 57.6458 652.326 57.7882 652.226 57.912C652.126 58.0357 652.002 58.1383 651.862 58.2138V58.2138Z" fill="white"/>
<path d="M652.902 59.5761C653.129 59.3546 653.434 59.2307 653.752 59.2307C654.069 59.2307 654.374 59.3546 654.601 59.5761L665.359 70.3547C665.58 70.5827 665.704 70.8882 665.704 71.2061C665.704 71.5241 665.58 71.8295 665.359 72.0576C665.249 72.1721 665.117 72.2632 664.971 72.3254C664.825 72.3877 664.668 72.4197 664.509 72.4197C664.351 72.4197 664.193 72.3877 664.047 72.3254C663.901 72.2632 663.769 72.1721 663.659 72.0576L652.902 61.2991C652.679 61.0677 652.555 60.7589 652.555 60.4376C652.555 60.1164 652.679 59.8076 652.902 59.5761V59.5761Z" fill="white"/>
<path d="M652.542 25.0969V20.2285" stroke="white" stroke-width="2" stroke-miterlimit="10" stroke-linecap="round"/>
<path d="M686.094 59.2355H690.953" stroke="white" stroke-width="2" stroke-miterlimit="10" stroke-linecap="round"/>
<path d="M652.042 92.8528V97.7211" stroke="white" stroke-width="2" stroke-miterlimit="10" stroke-linecap="round"/>
<path d="M618.47 58.7146H613.611" stroke="white" stroke-width="2" stroke-miterlimit="10" stroke-linecap="round"/>
<g opacity="0.5">
<path opacity="0.5" d="M635.606 29.5043L633.187 25.2971" stroke="#DEE3FC" stroke-miterlimit="10" stroke-linecap="round"/>
<path opacity="0.5" d="M681.695 42.2662L685.914 39.822" stroke="#DEE3FC" stroke-miterlimit="10" stroke-linecap="round"/>
<path opacity="0.5" d="M668.978 88.4454L671.397 92.6526" stroke="#DEE3FC" stroke-miterlimit="10" stroke-linecap="round"/>
<path opacity="0.5" d="M622.869 75.6835L618.67 78.1277" stroke="#DEE3FC" stroke-miterlimit="10" stroke-linecap="round"/>
</g>
<g opacity="0.5">
<path opacity="0.5" d="M623.129 41.8055L618.93 39.3813" stroke="#DEE3FC" stroke-miterlimit="10" stroke-linecap="round"/>
<path opacity="0.5" d="M669.418 29.7649L671.858 25.5376" stroke="#DEE3FC" stroke-miterlimit="10" stroke-linecap="round"/>
<path opacity="0.5" d="M681.435 76.1444L685.654 78.5686" stroke="#DEE3FC" stroke-miterlimit="10" stroke-linecap="round"/>
<path opacity="0.5" d="M635.166 88.1849L632.727 92.3922" stroke="#DEE3FC" stroke-miterlimit="10" stroke-linecap="round"/>
</g>
<path d="M70.137 221.854H26.4471C15.8788 221.854 7.31152 230.438 7.31152 241.027V284.802C7.31152 295.391 15.8788 303.975 26.4471 303.975H70.137C80.7053 303.975 89.2726 295.391 89.2726 284.802V241.027C89.2726 230.438 80.7053 221.854 70.137 221.854Z" fill="#0D0D0D"/>
<path d="M67.5777 214.742H16.2896C7.81948 214.742 0.953125 221.621 0.953125 230.108V281.496C0.953125 289.983 7.81948 296.862 16.2896 296.862H67.5777C76.0478 296.862 82.9141 289.983 82.9141 281.496V230.108C82.9141 221.621 76.0478 214.742 67.5777 214.742Z" fill="#43D992" stroke="#DEE3FC" stroke-miterlimit="10"/>
<path d="M56.1404 246.396H55.6205V241.688C55.6205 237.969 54.1458 234.401 51.5209 231.771C48.896 229.141 45.3359 227.664 41.6238 227.664C37.9116 227.664 34.3515 229.141 31.7266 231.771C29.1017 234.401 27.627 237.969 27.627 241.688V246.396C26.5664 246.396 25.5492 246.818 24.7992 247.57C24.0493 248.321 23.6279 249.34 23.6279 250.403V268.133C23.6279 269.196 24.0493 270.215 24.7992 270.967C25.5492 271.718 26.5664 272.14 27.627 272.14H56.1004C57.161 272.14 58.1782 271.718 58.9282 270.967C59.6781 270.215 60.0995 269.196 60.0995 268.133V250.403C60.0995 249.347 59.6837 248.334 58.9423 247.584C58.201 246.833 57.1941 246.407 56.1404 246.396ZM31.2862 241.688C31.2862 238.914 32.3858 236.254 34.3432 234.293C36.3007 232.332 38.9555 231.23 41.7237 231.23C44.492 231.23 47.1468 232.332 49.1042 234.293C51.0616 236.254 52.1613 238.914 52.1613 241.688V246.396H31.2862V241.688Z" fill="#DEE3FC"/>
<path d="M46.5027 255.512C46.4918 254.714 46.2723 253.932 45.8661 253.246C45.46 252.559 44.8814 251.991 44.1879 251.598C43.4945 251.205 42.7104 251.001 41.9138 251.007C41.1173 251.012 40.336 251.226 39.6478 251.629C38.9596 252.031 38.3886 252.606 37.9917 253.298C37.5947 253.99 37.3856 254.774 37.3853 255.573C37.3849 256.371 37.5933 257.155 37.9896 257.847C38.386 258.54 38.9565 259.116 39.6443 259.519C39.8018 259.603 39.9267 259.737 39.9991 259.9C40.0716 260.064 40.0875 260.247 40.0442 260.42L39.2644 263.365C39.1513 263.773 39.1339 264.201 39.2134 264.617C39.2929 265.032 39.4673 265.424 39.7228 265.761C39.9784 266.098 40.3082 266.371 40.6865 266.559C41.0649 266.747 41.4815 266.845 41.9038 266.845C42.3261 266.845 42.7427 266.747 43.121 266.559C43.4994 266.371 43.8292 266.098 44.0847 265.761C44.3403 265.424 44.5146 265.032 44.5941 264.617C44.6737 264.201 44.6562 263.773 44.5432 263.365L43.7634 260.46C43.7167 260.282 43.733 260.092 43.8095 259.924C43.886 259.757 44.018 259.62 44.1833 259.539C44.8943 259.137 45.4846 258.551 45.8926 257.843C46.3006 257.135 46.5113 256.329 46.5027 255.512Z" fill="#43D992"/>
<path d="M58.3797 278.211H25.4274C24.9801 278.211 24.5508 278.034 24.2326 277.719C23.9144 277.404 23.733 276.976 23.7278 276.528C23.7278 276.305 23.7719 276.085 23.8575 275.879C23.9432 275.674 24.0687 275.487 24.2268 275.331C24.3849 275.174 24.5724 275.051 24.7785 274.967C24.9846 274.884 25.2051 274.842 25.4274 274.845H58.3797C58.8252 274.845 59.2524 275.022 59.5674 275.338C59.8824 275.653 60.0594 276.081 60.0594 276.528C60.0542 276.972 59.8755 277.397 59.5617 277.712C59.2478 278.026 58.8236 278.205 58.3797 278.211V278.211Z" fill="#DEE3FC"/>
<path d="M58.3797 283.92H25.4274C24.9801 283.92 24.5508 283.744 24.2326 283.429C23.9144 283.114 23.733 282.686 23.7278 282.237V282.237C23.7278 282.015 23.7719 281.794 23.8575 281.589C23.9432 281.383 24.0687 281.197 24.2268 281.04C24.3849 280.884 24.5724 280.76 24.7785 280.677C24.9846 280.593 25.2051 280.552 25.4274 280.555H58.3797C58.8252 280.555 59.2524 280.732 59.5674 281.047C59.8824 281.363 60.0594 281.791 60.0594 282.237C60.0542 282.682 59.8755 283.107 59.5617 283.422C59.2478 283.736 58.8236 283.915 58.3797 283.92V283.92Z" fill="#DEE3FC"/>
<path d="M717.767 352.177H692.033C685.816 352.177 680.775 357.227 680.775 363.457V389.241C680.775 395.47 685.816 400.52 692.033 400.52H717.767C723.984 400.52 729.024 395.47 729.024 389.241V363.457C729.024 357.227 723.984 352.177 717.767 352.177Z" fill="#0D0D0D"/>
<path d="M716.267 347.99H686.054C681.074 347.99 677.036 352.035 677.036 357.026V387.298C677.036 392.288 681.074 396.333 686.054 396.333H716.267C721.248 396.333 725.285 392.288 725.285 387.298V357.026C725.285 352.035 721.248 347.99 716.267 347.99Z" fill="#43D992" stroke="#DEE3FC" stroke-miterlimit="10"/>
<path d="M691.473 386.596H691.073C690.883 386.545 690.705 386.457 690.55 386.336C690.394 386.216 690.264 386.065 690.167 385.894C690.07 385.722 690.009 385.533 689.986 385.337C689.963 385.141 689.979 384.943 690.034 384.753L697.332 358.869C697.376 358.669 697.46 358.48 697.58 358.313C697.699 358.147 697.852 358.007 698.027 357.902C698.203 357.797 698.398 357.729 698.601 357.702C698.804 357.675 699.01 357.691 699.207 357.747C699.404 357.803 699.587 357.899 699.745 358.028C699.904 358.158 700.034 358.319 700.128 358.501C700.222 358.683 700.278 358.883 700.292 359.087C700.307 359.292 700.279 359.497 700.211 359.69L692.853 385.515C692.765 385.817 692.585 386.084 692.337 386.278C692.09 386.472 691.787 386.584 691.473 386.596V386.596Z" fill="white"/>
<path d="M703.63 386.596C703.491 386.616 703.35 386.616 703.21 386.596C703.022 386.543 702.846 386.453 702.693 386.332C702.539 386.21 702.411 386.059 702.317 385.888C702.222 385.717 702.162 385.528 702.14 385.333C702.119 385.138 702.136 384.941 702.19 384.753L709.469 358.809C709.52 358.618 709.608 358.44 709.728 358.284C709.849 358.128 709.999 357.998 710.17 357.901C710.342 357.804 710.53 357.742 710.726 357.719C710.921 357.696 711.119 357.712 711.308 357.767C711.691 357.879 712.014 358.137 712.209 358.485C712.403 358.834 712.453 359.245 712.348 359.63L705.07 385.514C704.973 385.823 704.783 386.094 704.524 386.288C704.266 386.482 703.953 386.59 703.63 386.596V386.596Z" fill="white"/>
<path d="M714.088 367.784H688.254C688.044 367.809 687.831 367.788 687.629 367.724C687.427 367.66 687.241 367.555 687.083 367.414C686.925 367.273 686.799 367.1 686.712 366.906C686.626 366.713 686.581 366.503 686.581 366.292C686.581 366.08 686.626 365.87 686.712 365.677C686.799 365.483 686.925 365.31 687.083 365.169C687.241 365.029 687.427 364.923 687.629 364.859C687.831 364.795 688.044 364.775 688.254 364.799H714.088C714.298 364.775 714.511 364.795 714.712 364.859C714.914 364.923 715.1 365.029 715.258 365.169C715.416 365.31 715.542 365.483 715.629 365.677C715.715 365.87 715.76 366.08 715.76 366.292C715.76 366.503 715.715 366.713 715.629 366.906C715.542 367.1 715.416 367.273 715.258 367.414C715.1 367.555 714.914 367.66 714.712 367.724C714.511 367.788 714.298 367.809 714.088 367.784V367.784Z" fill="white"/>
<path d="M714.088 379.604H688.254C688.044 379.629 687.831 379.608 687.629 379.544C687.427 379.481 687.241 379.375 687.083 379.234C686.925 379.093 686.799 378.92 686.712 378.727C686.626 378.533 686.581 378.324 686.581 378.112C686.581 377.9 686.626 377.69 686.712 377.497C686.799 377.303 686.925 377.131 687.083 376.99C687.241 376.849 687.427 376.743 687.629 376.679C687.831 376.615 688.044 376.595 688.254 376.619H714.088C714.298 376.595 714.511 376.615 714.712 376.679C714.914 376.743 715.1 376.849 715.258 376.99C715.416 377.131 715.542 377.303 715.629 377.497C715.715 377.69 715.76 377.9 715.76 378.112C715.76 378.324 715.715 378.533 715.629 378.727C715.542 378.92 715.416 379.093 715.258 379.234C715.1 379.375 714.914 379.481 714.712 379.544C714.511 379.608 714.298 379.629 714.088 379.604V379.604Z" fill="white"/>
<path d="M138.081 246.937H119.386C118.855 246.937 118.347 246.726 117.972 246.35C117.597 245.974 117.386 245.465 117.386 244.934C117.386 244.402 117.597 243.893 117.972 243.517C118.347 243.141 118.855 242.93 119.386 242.93H138.081C138.612 242.93 139.12 243.141 139.495 243.517C139.87 243.893 140.081 244.402 140.081 244.934C140.081 245.465 139.87 245.974 139.495 246.35C139.12 246.726 138.612 246.937 138.081 246.937Z" fill="#F0F4FF"/>
<path d="M156.897 256.053H119.386C118.855 256.053 118.347 255.841 117.972 255.466C117.597 255.09 117.386 254.58 117.386 254.049C117.386 253.518 117.597 253.008 117.972 252.632C118.347 252.257 118.855 252.046 119.386 252.046H156.897C157.427 252.046 157.936 252.257 158.311 252.632C158.686 253.008 158.897 253.518 158.897 254.049C158.897 254.58 158.686 255.09 158.311 255.466C157.936 255.841 157.427 256.053 156.897 256.053Z" fill="#F0F4FF"/>
<path d="M123.825 265.168H119.386C118.855 265.168 118.347 264.957 117.972 264.581C117.597 264.206 117.386 263.696 117.386 263.165C117.386 262.633 117.597 262.124 117.972 261.748C118.347 261.372 118.855 261.161 119.386 261.161H123.825C124.355 261.161 124.864 261.372 125.239 261.748C125.614 262.124 125.824 262.633 125.824 263.165C125.824 263.696 125.614 264.206 125.239 264.581C124.864 264.957 124.355 265.168 123.825 265.168Z" fill="#F0F4FF"/>
<path d="M156.897 265.168H130.783C130.253 265.168 129.744 264.957 129.369 264.581C128.994 264.206 128.783 263.696 128.783 263.165C128.783 262.633 128.994 262.124 129.369 261.748C129.744 261.372 130.253 261.161 130.783 261.161H156.897C157.427 261.161 157.936 261.372 158.311 261.748C158.686 262.124 158.896 262.633 158.896 263.165C158.896 263.696 158.686 264.206 158.311 264.581C157.936 264.957 157.427 265.168 156.897 265.168Z" fill="#F0F4FF"/>
<path d="M156.897 246.937H145.6C145.069 246.937 144.561 246.726 144.186 246.35C143.811 245.974 143.6 245.465 143.6 244.933C143.6 244.402 143.811 243.893 144.186 243.517C144.561 243.141 145.069 242.93 145.6 242.93H156.917C157.447 242.93 157.956 243.141 158.331 243.517C158.706 243.893 158.917 244.402 158.917 244.933C158.917 245.198 158.864 245.46 158.762 245.705C158.661 245.949 158.512 246.171 158.324 246.357C158.136 246.544 157.913 246.691 157.668 246.79C157.423 246.89 157.161 246.94 156.897 246.937Z" fill="#F0F4FF"/>
</svg>
