<svg width="32" height="32" viewBox="0 0 32 32" fill="none" xmlns="http://www.w3.org/2000/svg">
<path d="M16.3053 2.74077L19.2558 7.9195C19.3344 8.05727 19.3342 8.22718 19.2556 8.36495L7.32861 29.2595C7.24975 29.3977 7.10388 29.4827 6.94642 29.4827H1.02654C0.686738 29.4827 0.474575 29.1107 0.644355 28.8133L15.5411 2.74028C15.7112 2.44281 16.1357 2.44306 16.3053 2.74077Z" fill="#43D992"/>
<path d="M21.2937 11.4889L24.7975 17.6243C24.967 17.9215 24.7551 18.2934 24.4153 18.2934H17.4094C17.0699 18.2934 16.8575 17.922 17.0273 17.6245L20.5296 11.4889C20.6996 11.1917 21.1239 11.1914 21.2937 11.4889Z" fill="#43D992"/>
<path d="M15.0914 21.017L13.1105 24.4859C12.9409 24.7831 13.1531 25.1548 13.4927 25.1548H19.1959C19.3536 25.1548 19.4993 25.24 19.5779 25.3781L21.7941 29.2598C21.8732 29.3978 22.0189 29.4828 22.1763 29.4828H27.678C28.0176 29.4828 28.23 29.1113 28.0602 28.8136L26.3531 25.8213C26.183 25.5238 26.3957 25.1519 26.7352 25.1521L30.9733 25.1546C31.3109 25.1548 31.5236 24.7871 31.358 24.4899L29.4251 21.0175C29.3467 20.877 29.1996 20.7903 29.0402 20.7903L15.4731 20.794C15.3156 20.7938 15.17 20.879 15.0914 21.017Z" fill="#F1B705"/>
</svg>
