<svg width="196" height="90" viewBox="0 0 196 90" fill="none" xmlns="http://www.w3.org/2000/svg">
<path d="M25.5139 22.9606L29.7775 30.4439C29.8911 30.643 29.8908 30.8885 29.7772 31.0876L12.5425 61.2804C12.4286 61.4802 12.2178 61.603 11.9903 61.603H3.43599C2.94496 61.603 2.63838 61.0655 2.88372 60.6357L24.4097 22.9599C24.6554 22.53 25.2689 22.5304 25.5139 22.9606Z" fill="#43D992"/>
<path d="M32.7223 35.6015L37.7853 44.4673C38.0303 44.8967 37.724 45.4342 37.233 45.4342H27.1095C26.6189 45.4342 26.3119 44.8975 26.5573 44.4676L31.6181 35.6015C31.8638 35.1721 32.477 35.1717 32.7223 35.6015Z" fill="#43D992"/>
<path d="M23.7599 49.3701L20.8974 54.3827C20.6525 54.8122 20.959 55.3493 21.4497 55.3493H29.691C29.9189 55.3493 30.1293 55.4724 30.2429 55.6719L33.4454 61.281C33.5597 61.4805 33.7702 61.6032 33.9977 61.6032H41.9477C42.4384 61.6032 42.7453 61.0665 42.5 60.6363L40.0331 56.3123C39.7874 55.8825 40.0947 55.345 40.5854 55.3454L46.7095 55.349C47.1973 55.3493 47.5046 54.818 47.2653 54.3885L44.4723 49.3708C44.3591 49.1678 44.1465 49.0425 43.9161 49.0425L24.3115 49.0479C24.0839 49.0475 23.8735 49.1706 23.7599 49.3701Z" fill="#F1B705"/>
<path d="M58.3144 40.2532L58.8431 44.2399L58.6989 43.8997C59.4997 42.441 60.542 41.307 61.8242 40.4959C63.1064 39.6866 64.629 39.2805 66.3929 39.2805C68.0918 39.2805 69.5104 39.6459 70.6484 40.3749C71.7857 41.1039 72.5152 42.2149 72.8361 43.7049L72.5954 43.8025C73.461 42.4089 74.5434 41.307 75.8417 40.4959C77.1396 39.6866 78.4933 39.2805 79.9045 39.2805C81.9554 39.2805 83.5831 39.8641 84.7852 41.0316C85.9869 42.198 86.6043 43.7049 86.636 45.5524V61.2063H80.5774V48.0314C80.5454 47.0594 80.3688 46.2652 80.0487 45.6496C79.7279 45.034 79.0705 44.6935 78.0767 44.6283C76.9868 44.6283 76.0407 45.0016 75.2403 45.7465C74.4388 46.492 73.8292 47.4486 73.4129 48.6146C72.9963 49.7814 72.788 50.9964 72.788 52.261V61.2063H66.6817V48.0314C66.649 47.0594 66.4567 46.2652 66.1045 45.6496C65.7513 45.034 65.0783 44.6935 64.0849 44.6283C62.9946 44.6283 62.0652 45.0016 61.2958 45.7465C60.5263 46.492 59.9331 47.4406 59.5165 48.5908C59.0995 49.741 58.8916 50.9481 58.8916 52.2121V61.206H52.7849V40.2529H58.3144V40.2532Z" fill="#43D992"/>
<path d="M102.456 61.7409C100.532 61.7409 98.7844 61.3435 97.2141 60.5493C95.6424 59.7559 94.4012 58.5488 93.4875 56.9281C92.5738 55.307 92.1169 53.2496 92.1169 50.7541C92.1169 48.3885 92.5895 46.3542 93.5355 44.6524C94.4806 42.9514 95.7389 41.6306 97.3103 40.691C98.8805 39.751 100.564 39.2805 102.359 39.2805C104.379 39.2805 105.957 39.6459 107.096 40.3749C108.233 41.1039 109.139 41.9388 109.812 42.8787L109.524 43.7049L110.101 40.2536H115.775V61.2067H109.668V56.3942L110.197 57.804C110.101 57.8691 109.877 58.1118 109.524 58.5326C109.171 58.9542 108.674 59.4164 108.033 59.9186C107.391 60.4215 106.606 60.8503 105.677 61.2067C104.747 61.5627 103.673 61.7409 102.456 61.7409ZM104.187 56.7333C105.533 56.7333 106.67 56.41 107.6 55.761C108.53 55.1133 109.219 54.1903 109.668 52.99V48.1286C109.284 46.995 108.578 46.0705 107.552 45.357C106.526 44.6449 105.341 44.2878 103.994 44.2878C102.968 44.2878 102.023 44.5552 101.157 45.0898C100.292 45.6252 99.6023 46.3542 99.0896 47.2783C98.5765 48.201 98.3201 49.2637 98.3201 50.4621C98.3201 51.6292 98.5846 52.6909 99.1138 53.6467C99.6425 54.6028 100.355 55.3563 101.253 55.9071C102.15 56.4586 103.128 56.7333 104.187 56.7333Z" fill="#43D992"/>
<path d="M129.574 62.1786C127.683 62.1786 126.112 61.5951 124.862 60.4283C123.612 59.2623 122.955 57.7542 122.891 55.9071V40.2532H128.997V53.6221C129.062 54.5945 129.325 55.3804 129.791 55.9801C130.255 56.5795 131.017 56.896 132.075 56.9284C133.1 56.9284 133.998 56.5882 134.768 55.9071C135.536 55.2263 136.138 54.2946 136.57 53.112C137.004 51.9287 137.22 50.6082 137.22 49.1491V40.2532H143.327V61.2063H137.796L137.316 57.0256L137.46 57.5602C136.787 58.9213 135.769 60.0316 134.406 60.8898C133.044 61.7484 131.433 62.1786 129.574 62.1786Z" fill="#43D992"/>
<path d="M152.463 31.0649H158.569V40.2043H163.763V45.0175H158.569V61.2059H152.463V45.0175H149.096V40.2043H152.463V31.0649Z" fill="#43D992"/>
<path d="M177.659 61.7409C175.735 61.7409 173.987 61.3435 172.417 60.5493C170.846 59.7559 169.604 58.5488 168.691 56.9281C167.776 55.307 167.32 53.2496 167.32 50.7541C167.32 48.3885 167.792 46.3542 168.739 44.6524C169.682 42.9514 170.942 41.6306 172.513 40.691C174.084 39.751 175.766 39.2805 177.562 39.2805C179.582 39.2805 181.16 39.6459 182.299 40.3749C183.436 41.1039 184.342 41.9388 185.015 42.8787L184.727 43.7049L185.304 40.2536H190.978V61.2067H184.871V56.3942L185.4 57.804C185.304 57.8691 185.079 58.1118 184.727 58.5326C184.373 58.9542 183.877 59.4164 183.236 59.9186C182.594 60.4215 181.809 60.8503 180.88 61.2067C179.95 61.5627 178.877 61.7409 177.659 61.7409ZM179.389 56.7333C180.735 56.7333 181.873 56.41 182.804 55.761C183.733 55.1133 184.422 54.1903 184.872 52.99V48.1286C184.487 46.995 183.781 46.0705 182.756 45.357C181.73 44.6449 180.544 44.2878 179.197 44.2878C178.171 44.2878 177.227 44.5552 176.361 45.0898C175.495 45.6252 174.806 46.3542 174.293 47.2783C173.78 48.201 173.524 49.2637 173.524 50.4621C173.524 51.6292 173.787 52.6909 174.317 53.6467C174.846 54.6028 175.559 55.3563 176.457 55.9071C177.353 56.4586 178.332 56.7333 179.389 56.7333Z" fill="#43D992"/>
</svg>
