<svg width="46" height="46" viewBox="0 0 46 46" fill="none" xmlns="http://www.w3.org/2000/svg">
<g clip-path="url(#clip0)">
<path d="M23 46C35.7025 46 46 35.7025 46 23C46 10.2975 35.7025 0 23 0C10.2975 0 0 10.2975 0 23C0 35.7025 10.2975 46 23 46Z" fill="#5C2D91"/>
<path opacity="0.1" d="M7.0582 6.46875C4.72008 8.55227 2.83209 11.0913 1.50997 13.9303C0.187839 16.7693 -0.540575 19.8484 -0.630626 22.9789C-0.720677 26.1093 -0.170468 29.2252 0.986275 32.1355C2.14302 35.0458 3.88193 37.6892 6.09641 39.9037C8.31089 42.1181 10.9543 43.8571 13.8646 45.0138C16.7749 46.1705 19.8908 46.7208 23.0212 46.6307C26.1517 46.5406 29.2308 45.8122 32.0697 44.4901C34.9087 43.168 37.4478 41.28 39.5313 38.9419L7.0582 6.46875Z" fill="white"/>
<path d="M5.31895 26.7734C5.18478 26.7755 5.05163 26.7497 4.92792 26.6978C4.80421 26.6458 4.69262 26.5688 4.6002 26.4715C4.50524 26.3777 4.4302 26.2657 4.37956 26.1422C4.32892 26.0187 4.30374 25.8862 4.30551 25.7527C4.30455 25.6194 4.33011 25.4872 4.3807 25.3638C4.43129 25.2404 4.5059 25.1283 4.6002 25.034C4.69171 24.9351 4.80297 24.8564 4.92677 24.8032C5.05058 24.7499 5.18419 24.7233 5.31895 24.7249C5.45351 24.7246 5.58671 24.7518 5.71033 24.805C5.83395 24.8582 5.94537 24.9361 6.0377 25.034C6.13362 25.1274 6.20977 25.2392 6.26163 25.3627C6.31349 25.4862 6.34 25.6188 6.33957 25.7527C6.34083 25.8868 6.3147 26.0197 6.26279 26.1433C6.21088 26.2668 6.13429 26.3785 6.0377 26.4715C5.94449 26.5677 5.83275 26.6441 5.70922 26.696C5.58569 26.7479 5.45293 26.7742 5.31895 26.7734Z" fill="white"/>
<path d="M19.6003 26.5938H17.7172L10.9825 16.1432C10.8148 15.8857 10.675 15.611 10.5656 15.3238H10.5081C10.5721 15.9205 10.5961 16.5208 10.58 17.1206V26.5938H9.04907V13.491H11.04L17.595 23.7547C17.8681 24.1812 18.0454 24.4735 18.1269 24.6316H18.1628C18.087 23.9924 18.0558 23.3488 18.0694 22.7053V13.491H19.6003V26.5938Z" fill="white"/>
<path d="M29.9647 26.5938H23V13.491H29.6413V14.8782H24.5669V19.2338H29.2962V20.6138H24.5669V25.1563H29.9719L29.9647 26.5938Z" fill="white"/>
<path d="M40.2501 14.8782H36.4407V26.5938H34.9098V14.8782H31.1436V13.491H40.2501V14.8782Z" fill="white"/>
<path d="M18.7737 35.5063C18.2548 35.7577 17.6824 35.8785 17.1062 35.8585C16.7233 35.8758 16.3412 35.811 15.9854 35.6684C15.6296 35.5258 15.3085 35.3088 15.0434 35.032C14.5153 34.4408 14.237 33.6679 14.2672 32.8757C14.2478 32.4468 14.3149 32.0184 14.4642 31.6159C14.6136 31.2134 14.8424 30.845 15.1369 30.5326C15.4238 30.2386 15.7689 30.0075 16.15 29.8541C16.5311 29.7007 16.94 29.6282 17.3506 29.6413C17.842 29.6246 18.3316 29.7102 18.7881 29.8929V30.6117C18.3486 30.3683 17.8529 30.2444 17.3506 30.2523C17.0339 30.2434 16.719 30.303 16.4275 30.427C16.136 30.5511 15.8747 30.7366 15.6615 30.971C15.2133 31.4817 14.9813 32.1467 15.0147 32.8254C14.9811 33.4683 15.1974 34.0993 15.6184 34.5863C15.8203 34.8035 16.0669 34.9744 16.341 35.0873C16.6152 35.2002 16.9106 35.2524 17.2069 35.2404C17.7587 35.2549 18.3037 35.1155 18.7809 34.8379L18.7737 35.5063Z" fill="#F2F2F2"/>
<path d="M21.7133 35.8585C21.4272 35.8677 21.1424 35.8154 20.8783 35.705C20.6142 35.5947 20.3768 35.4288 20.1823 35.2188C19.7893 34.7802 19.5853 34.2042 19.6145 33.616C19.5966 33.3078 19.6401 32.9991 19.7425 32.7079C19.8449 32.4167 20.0042 32.1488 20.2111 31.9197C20.4223 31.7136 20.6734 31.5531 20.9491 31.448C21.2248 31.3429 21.5192 31.2955 21.8139 31.3088C22.0925 31.2939 22.371 31.3396 22.6303 31.4425C22.8896 31.5455 23.1236 31.7034 23.3161 31.9053C23.6981 32.3657 23.8908 32.9541 23.8552 33.5513C23.8853 34.1573 23.6763 34.751 23.273 35.2044C23.0749 35.4185 22.8331 35.5877 22.5641 35.7006C22.295 35.8134 22.0049 35.8672 21.7133 35.8585ZM21.7636 31.9269C21.5659 31.9186 21.3689 31.955 21.1872 32.0334C21.0055 32.1118 20.8438 32.2301 20.7142 32.3797C20.4377 32.7358 20.2997 33.1802 20.3261 33.6303C20.301 34.0671 20.4394 34.4975 20.7142 34.8378C20.8452 34.9853 21.0072 35.1017 21.1887 35.1788C21.3702 35.2559 21.5666 35.2916 21.7636 35.2835C21.9565 35.2948 22.1494 35.2619 22.3276 35.1871C22.5057 35.1124 22.6644 34.9978 22.7914 34.8522C23.0527 34.4951 23.18 34.0575 23.1508 33.616C23.1792 33.1723 23.0521 32.7326 22.7914 32.3725C22.6662 32.2239 22.5082 32.1063 22.3299 32.029C22.1515 31.9516 21.9577 31.9167 21.7636 31.9269Z" fill="#F2F2F2"/>
<path d="M27.212 32.1425C27.0567 32.0408 26.8724 31.9928 26.6873 32.006C26.5425 32.0112 26.4012 32.052 26.2759 32.1247C26.1505 32.1974 26.045 32.2998 25.9685 32.4228C25.7546 32.7615 25.6516 33.1585 25.6738 33.5585V35.7578H24.9551V31.4453H25.6738V32.3438C25.7528 32.0658 25.91 31.8163 26.1266 31.625C26.3141 31.4623 26.5541 31.373 26.8023 31.3735C26.9412 31.3672 27.0801 31.3867 27.212 31.431V32.1425Z" fill="#F2F2F2"/>
<path d="M31.4238 33.7813H28.3835C28.3631 34.1831 28.4939 34.5779 28.75 34.8881C28.8833 35.021 29.043 35.1243 29.2189 35.1911C29.3948 35.258 29.5828 35.287 29.7707 35.2763C30.2579 35.2714 30.7291 35.1017 31.1075 34.7947V35.4416C30.6632 35.7345 30.1369 35.878 29.6054 35.8513C29.3371 35.8648 29.0693 35.819 28.8208 35.7171C28.5723 35.6152 28.3494 35.4598 28.1679 35.2619C27.7937 34.7951 27.6066 34.2058 27.6432 33.6088C27.6173 33.0102 27.8204 32.4243 28.211 31.97C28.3888 31.7647 28.6099 31.6014 28.8586 31.492C29.1072 31.3826 29.377 31.3298 29.6485 31.3375C29.8936 31.3238 30.1387 31.3658 30.3653 31.4604C30.5919 31.555 30.794 31.6998 30.9566 31.8838C31.2876 32.3202 31.4508 32.8609 31.4166 33.4075L31.4238 33.7813ZM30.705 33.1991C30.7196 32.866 30.618 32.5383 30.4175 32.2719C30.3192 32.1608 30.197 32.0733 30.0601 32.016C29.9232 31.9588 29.7751 31.9332 29.6269 31.9413C29.4722 31.9394 29.3189 31.9697 29.1766 32.0303C29.0343 32.091 28.9061 32.1806 28.8004 32.2934C28.5638 32.5437 28.415 32.8641 28.3763 33.2063L30.705 33.1991Z" fill="#F2F2F2"/>
</g>
<defs>
<clipPath id="clip0">
<rect width="46" height="46" fill="white"/>
</clipPath>
</defs>
</svg>
