<svg width="80" height="80" viewBox="0 0 80 80" fill="none" xmlns="http://www.w3.org/2000/svg">
<path d="M25 35C27.7614 35 30 32.7614 30 30C30 27.2386 27.7614 25 25 25C22.2386 25 20 27.2386 20 30C20 32.7614 22.2386 35 25 35Z" fill="#E8E8E8"/>
<path d="M40 27.5C42.7614 27.5 45 25.2614 45 22.5C45 19.7386 42.7614 17.5 40 17.5C37.2386 17.5 35 19.7386 35 22.5C35 25.2614 37.2386 27.5 40 27.5Z" fill="#E8E8E8"/>
<path d="M55 35C57.7614 35 60 32.7614 60 30C60 27.2386 57.7614 25 55 25C52.2386 25 50 27.2386 50 30C50 32.7614 52.2386 35 55 35Z" fill="#E8E8E8"/>
<path d="M57.5 50C60.2614 50 62.5 47.7614 62.5 45C62.5 42.2386 60.2614 40 57.5 40C54.7386 40 52.5 42.2386 52.5 45C52.5 47.7614 54.7386 50 57.5 50Z" fill="#E8E8E8"/>
<path d="M47.5 62.5C50.2614 62.5 52.5 60.2614 52.5 57.5C52.5 54.7386 50.2614 52.5 47.5 52.5C44.7386 52.5 42.5 54.7386 42.5 57.5C42.5 60.2614 44.7386 62.5 47.5 62.5Z" fill="#E8E8E8"/>
<path d="M41.35 4.99997C36.6414 4.81822 31.9446 5.58913 27.5411 7.26648C23.1377 8.94384 19.1183 11.4931 15.7239 14.7614C12.3295 18.0298 9.62999 21.9499 7.78726 26.2867C5.94453 30.6236 4.9965 35.2879 5.00001 40C4.99989 41.8533 5.42725 43.6816 6.24887 45.3429C7.0705 47.0041 8.26423 48.4534 9.73724 49.5781C11.2103 50.7028 12.9228 51.4726 14.7418 51.8276C16.5608 52.1826 18.4372 52.1133 20.225 51.625L23.025 50.85C24.1389 50.5459 25.3079 50.5031 26.441 50.725C27.5741 50.9468 28.6407 51.4273 29.5576 52.1289C30.4746 52.8305 31.2172 53.7344 31.7276 54.7701C32.2379 55.8058 32.5023 56.9453 32.5 58.1V67.5C32.5 69.4891 33.2902 71.3967 34.6967 72.8033C36.1032 74.2098 38.0109 75 40 75C44.7121 75.0035 49.3764 74.0554 53.7132 72.2127C58.0501 70.37 61.9702 67.6705 65.2385 64.2761C68.5069 60.8817 71.0561 56.8623 72.7335 52.4588C74.4108 48.0554 75.1817 43.3586 75 38.65C74.6373 29.8417 70.9756 21.4918 64.7419 15.2581C58.5082 9.0244 50.1583 5.3627 41.35 4.99997ZM61.625 60.775C58.8335 63.6976 55.4772 66.0224 51.7598 67.6082C48.0424 69.194 44.0415 70.0077 40 70C39.337 70 38.7011 69.7366 38.2322 69.2677C37.7634 68.7989 37.5 68.163 37.5 67.5V58.1C37.5 54.7848 36.183 51.6053 33.8388 49.2611C31.4946 46.9169 28.3152 45.6 25 45.6C23.8766 45.602 22.7585 45.7533 21.675 46.05L18.875 46.825C17.8292 47.1052 16.7329 47.1409 15.6711 46.9291C14.6093 46.7174 13.6106 46.2639 12.7523 45.6039C11.894 44.9438 11.1993 44.095 10.722 43.1232C10.2447 42.1514 9.99766 41.0827 10 40C9.99691 35.9595 10.81 31.96 12.3906 28.2414C13.9712 24.5229 16.2867 21.162 19.1981 18.3603C22.1095 15.5586 25.5569 13.3739 29.3333 11.9373C33.1098 10.5007 37.1376 9.84171 41.175 9.99997C48.693 10.3915 55.7994 13.5541 61.1226 18.8773C66.4458 24.2006 69.6084 31.307 70 38.825C70.1721 42.8649 69.5181 46.8974 68.0781 50.6759C66.638 54.4544 64.4422 57.8993 61.625 60.8V60.775Z" fill="#E8E8E8"/>
</svg>
