<svg width="120" height="120" viewBox="0 0 120 120" fill="none" xmlns="http://www.w3.org/2000/svg">
<path d="M37.5 52.5C41.6421 52.5 45 49.1421 45 45C45 40.8579 41.6421 37.5 37.5 37.5C33.3579 37.5 30 40.8579 30 45C30 49.1421 33.3579 52.5 37.5 52.5Z" fill="#43D992"/>
<path d="M60 41.25C64.1421 41.25 67.5 37.8921 67.5 33.75C67.5 29.6079 64.1421 26.25 60 26.25C55.8579 26.25 52.5 29.6079 52.5 33.75C52.5 37.8921 55.8579 41.25 60 41.25Z" fill="#43D992"/>
<path d="M82.5 52.5C86.6421 52.5 90 49.1421 90 45C90 40.8579 86.6421 37.5 82.5 37.5C78.3579 37.5 75 40.8579 75 45C75 49.1421 78.3579 52.5 82.5 52.5Z" fill="#43D992"/>
<path d="M86.25 75C90.3921 75 93.75 71.6421 93.75 67.5C93.75 63.3579 90.3921 60 86.25 60C82.1079 60 78.75 63.3579 78.75 67.5C78.75 71.6421 82.1079 75 86.25 75Z" fill="#43D992"/>
<path d="M71.25 93.75C75.3921 93.75 78.75 90.3921 78.75 86.25C78.75 82.1079 75.3921 78.75 71.25 78.75C67.1079 78.75 63.75 82.1079 63.75 86.25C63.75 90.3921 67.1079 93.75 71.25 93.75Z" fill="#43D992"/>
<path d="M62.025 7.49995C54.9621 7.22732 47.9169 8.38368 41.3117 10.8997C34.7065 13.4157 28.6774 17.2396 23.5858 22.1421C18.4942 27.0446 14.445 32.9248 11.6809 39.4301C8.9168 45.9353 7.49475 52.9318 7.50001 59.9999C7.49982 62.7799 8.14087 65.5224 9.37331 68.0143C10.6057 70.5061 12.3963 72.6801 14.6059 74.3672C16.8154 76.0543 19.3843 77.2089 22.1127 77.7414C24.8412 78.2739 27.6558 78.1699 30.3375 77.4374L34.5375 76.2749C36.2083 75.8189 37.9618 75.7547 39.6615 76.0874C41.3611 76.4202 42.961 77.1409 44.3365 78.1933C45.7119 79.2458 46.8258 80.6016 47.5913 82.1552C48.3569 83.7087 48.7534 85.418 48.75 87.1499V101.25C48.75 104.234 49.9353 107.095 52.045 109.205C54.1548 111.315 57.0163 112.5 60 112.5C67.0682 112.505 74.0646 111.083 80.5699 108.319C87.0751 105.555 92.9553 101.506 97.8578 96.4141C102.76 91.3225 106.584 85.2934 109.1 78.6882C111.616 72.0831 112.773 65.0378 112.5 57.9749C111.956 44.7625 106.463 32.2377 97.1128 22.8871C87.7622 13.5366 75.2375 8.04405 62.025 7.49995ZM92.4375 91.1624C88.2503 95.5463 83.2158 99.0335 77.6397 101.412C72.0636 103.791 66.0623 105.012 60 105C59.0054 105 58.0516 104.605 57.3483 103.902C56.6451 103.198 56.25 102.244 56.25 101.25V87.1499C56.25 82.1771 54.2746 77.408 50.7583 73.8917C47.2419 70.3754 42.4728 68.3999 37.5 68.3999C35.8149 68.4029 34.1377 68.6299 32.5125 69.0749L28.3125 70.2374C26.7438 70.6578 25.0994 70.7113 23.5067 70.3937C21.914 70.076 20.4158 69.3958 19.1284 68.4058C17.841 67.4158 16.799 66.1425 16.083 64.6848C15.3671 63.227 14.9965 61.624 15 59.9999C14.9954 53.9392 16.2151 47.9399 18.5859 42.3621C20.9568 36.7843 24.43 31.7429 28.7971 27.5404C33.1642 23.3379 38.3353 20.0609 44 17.9059C49.6647 15.751 55.7064 14.7626 61.7625 14.9999C73.0395 15.5873 83.6991 20.3312 91.6839 28.316C99.6687 36.3008 104.413 46.9605 105 58.2374C105.258 64.2973 104.277 70.3461 102.117 76.0138C99.9571 81.6816 96.6633 86.849 92.4375 91.1999V91.1624Z" fill="#E8E8E8"/>
</svg>
