<svg width="160" height="160" viewBox="0 0 160 160" fill="none" xmlns="http://www.w3.org/2000/svg">
<path d="M145 137.929L107.239 100.169C116.313 89.2758 120.838 75.3038 119.872 61.1596C118.907 47.0153 112.525 33.7879 102.055 24.2288C91.5855 14.6698 77.8335 9.51515 63.66 9.83723C49.4865 10.1593 35.9828 15.9333 25.9581 25.9581C15.9333 35.9828 10.1593 49.4865 9.83723 63.66C9.51515 77.8335 14.6698 91.5855 24.2288 102.055C33.7879 112.525 47.0153 118.907 61.1596 119.872C75.3038 120.838 89.2758 116.313 100.169 107.239L137.929 145L145 137.929ZM20 65C20 56.0998 22.6392 47.3995 27.5838 39.9993C32.5285 32.5991 39.5565 26.8313 47.7792 23.4254C56.0019 20.0194 65.0499 19.1283 73.779 20.8646C82.5082 22.601 90.5264 26.8868 96.8198 33.1802C103.113 39.4735 107.399 47.4918 109.135 56.2209C110.872 64.9501 109.98 73.998 106.575 82.2207C103.169 90.4434 97.4008 97.4714 90.0006 102.416C82.6004 107.361 73.9001 110 65 110C53.0693 109.987 41.631 105.241 33.1948 96.8052C24.7585 88.3689 20.0132 76.9306 20 65Z" fill="#E8E8E8"/>
</svg>
