<svg width="120" height="120" viewBox="0 0 120 120" fill="none" xmlns="http://www.w3.org/2000/svg">
<path d="M118 111.933L85.5964 79.529C93.3828 70.1812 97.2655 58.1913 96.4369 46.0537C95.6083 33.916 90.1322 22.5651 81.1477 14.3621C72.1632 6.15919 60.3621 1.73583 48.1994 2.01221C36.0366 2.2886 24.4486 7.24346 15.8461 15.8461C7.24346 24.4486 2.2886 36.0366 2.01221 48.1994C1.73583 60.3621 6.15919 72.1632 14.3621 81.1477C22.5651 90.1322 33.916 95.6083 46.0537 96.4369C58.1913 97.2655 70.1812 93.3828 79.529 85.5964L111.933 118L118 111.933ZM10.7332 49.3492C10.7332 41.7117 12.998 34.2457 17.2412 27.8953C21.4844 21.5449 27.5154 16.5954 34.5715 13.6727C41.6277 10.7499 49.3921 9.98519 56.8829 11.4752C64.3736 12.9652 71.2544 16.643 76.6549 22.0436C82.0555 27.4441 85.7333 34.3249 87.2233 41.8156C88.7133 49.3064 87.9486 57.0708 85.0258 64.127C82.1031 71.1831 77.1535 77.2141 70.8032 81.4573C64.4528 85.7005 56.9868 87.9653 49.3492 87.9653C39.1111 87.9539 29.2956 83.8818 22.0561 76.6424C14.8167 69.4029 10.7446 59.5874 10.7332 49.3492V49.3492Z" fill="white"/>
</svg>
